<svg width="191" height="187" viewBox="0 0 191 187" fill="none" xmlns="http://www.w3.org/2000/svg">
<path d="M163.629 89.9239V3.58374H4V163.213H94.789" stroke="white" stroke-width="7"/>
<path d="M141.585 87.1987L152.678 121.339H188.575L159.534 142.44L170.627 176.58L141.585 155.48L112.543 176.58L123.636 142.44L94.594 121.339H130.492L141.585 87.1987Z" fill="#FCFF35"/>
<path d="M103.654 107.458V77.1181H92.0396V70.6204H122.226V77.1181H110.612V107.458H103.654Z" fill="white"/>
<path d="M74.2823 108.227C70.5986 108.227 67.4179 107.425 64.7403 105.822C62.0798 104.219 60.0248 101.976 58.5751 99.0939C57.1426 96.2117 56.4263 92.8605 56.4263 89.0403C56.4263 85.2201 57.1426 81.8689 58.5751 78.9867C60.0248 76.1045 62.0798 73.8618 64.7403 72.2587C67.4179 70.6556 70.5986 69.854 74.2823 69.854C78.5118 69.854 82.0592 70.9029 84.9243 73.0006C87.8065 75.0983 89.836 77.9378 91.0128 81.5193L84.0034 83.4635C83.3212 81.2294 82.17 79.4983 80.5499 78.2704C78.9297 77.0254 76.8405 76.4029 74.2823 76.4029C71.9459 76.4029 69.9931 76.9231 68.4241 77.9634C66.8722 79.0037 65.7039 80.4704 64.9194 82.3635C64.1349 84.2565 63.7426 86.4821 63.7426 89.0403C63.7426 91.5985 64.1349 93.8241 64.9194 95.7171C65.7039 97.6102 66.8722 99.0769 68.4241 100.117C69.9931 101.158 71.9459 101.678 74.2823 101.678C76.8405 101.678 78.9297 101.055 80.5499 99.8102C82.17 98.5653 83.3212 96.8342 84.0034 94.6171L91.0128 96.5613C89.836 100.143 87.8065 102.982 84.9243 105.08C82.0592 107.178 78.5118 108.227 74.2823 108.227Z" fill="white"/>
<path d="M23.5222 107.458L34.7782 70.6204H45.1644L56.4203 107.458H49.2575L39.2294 74.9693H40.5597L30.6851 107.458H23.5222ZM30.2758 99.7835V93.2858H49.7179V99.7835H30.2758Z" fill="white"/>
<path d="M59.9814 62.4344V25.5967H66.9397V62.4344H59.9814Z" fill="white"/>
<path d="M23.5222 62.4344L34.7782 25.5967H45.1644L56.4203 62.4344H49.2575L39.2294 29.9456H40.5597L30.6851 62.4344H23.5222ZM30.2758 54.7599V48.2621H49.7179V54.7599H30.2758Z" fill="white"/>
</svg>
