<svg width="193" height="192" viewBox="0 0 193 192" fill="none" xmlns="http://www.w3.org/2000/svg">
<ellipse cx="99.5073" cy="81.5975" rx="11.4021" ry="10.6419" stroke="white" stroke-width="7"/>
<path d="M78.9839 119.604V119.604C78.9839 110.369 86.471 102.881 95.7069 102.881H100.268C109.504 102.881 116.991 110.369 116.991 119.604V119.604" stroke="white" stroke-width="7"/>
<path d="M97.9872 0.262695V48.1514C125.275 48.1514 147.396 70.2725 147.396 97.5603C147.396 124.848 125.275 146.969 97.9872 146.969C70.6994 146.969 48.5782 124.848 48.5782 97.5603H0.682129" stroke="white" stroke-width="7"/>
<path d="M22.7334 97.5603C22.7334 139.122 56.4256 172.814 97.987 172.814C139.548 172.814 173.241 139.122 173.241 97.5603C173.241 55.9988 139.548 22.3066 97.987 22.3066" stroke="white" stroke-width="7"/>
<circle cx="47.0579" cy="43.5906" r="30.4055" fill="#FCFF35"/>
<path d="M32.7204 39.8009L44.624 51.6436L60.1921 33.7125" stroke="#1B113C" stroke-width="7"/>
<path d="M98.7471 146.969V191.057" stroke="white" stroke-width="7"/>
<path d="M148.917 96.8003L193.004 96.8003" stroke="white" stroke-width="7"/>
</svg>
