<svg width="188" height="186" viewBox="0 0 188 186" fill="none" xmlns="http://www.w3.org/2000/svg">
<circle cx="95.5031" cy="77.4387" r="11.4021" stroke="white" stroke-width="7"/>
<path d="M74.9792 117.726V117.726C74.9792 108.49 82.4664 101.003 91.7023 101.003H96.2631C105.499 101.003 112.986 108.49 112.986 117.726V117.726" stroke="white" stroke-width="7"/>
<path d="M50.655 100.243V49.3135H137.311V135.969H85.6214" stroke="white" stroke-width="7"/>
<path d="M73.1878 50.8751V32.1387L65.8579 15.8677M94.2002 52.3543V15.8677M114.724 50.8751V32.1387L120.588 15.8677" stroke="white" stroke-width="7"/>
<path d="M114.982 132.888L114.982 151.624L122.108 167.895M94.5532 134.449L94.5532 167.895" stroke="white" stroke-width="7"/>
<path d="M135.749 71.8463L154.486 71.8463L170.757 64.5164M134.27 92.8586L170.757 92.8586M135.749 113.382L154.486 113.382L170.757 119.246" stroke="white" stroke-width="7"/>
<path d="M52.2164 71.8463L33.48 71.8463L17.209 64.5164M53.6956 92.8586L17.209 92.8586" stroke="white" stroke-width="7"/>
<ellipse cx="65.858" cy="10.5463" rx="7.60138" ry="6.84124" stroke="white" stroke-width="7"/>
<ellipse cx="123.628" cy="173.976" rx="7.60138" ry="7.60138" transform="rotate(180 123.628 173.976)" stroke="white" stroke-width="7"/>
<circle cx="176.838" cy="64.5162" r="7.60138" transform="rotate(90 176.838 64.5162)" stroke="white" stroke-width="7"/>
<circle cx="7.60138" cy="7.60138" r="7.60138" transform="matrix(4.37114e-08 1 1 -4.37114e-08 3.52637 56.9148)" stroke="white" stroke-width="7"/>
<ellipse cx="94.743" cy="10.5463" rx="7.60138" ry="6.84124" stroke="white" stroke-width="7"/>
<ellipse cx="94.7431" cy="173.976" rx="7.60138" ry="7.60138" transform="rotate(180 94.7431 173.976)" stroke="white" stroke-width="7"/>
<circle cx="176.838" cy="93.4017" r="7.60138" transform="rotate(90 176.838 93.4017)" stroke="white" stroke-width="7"/>
<circle cx="7.60138" cy="7.60138" r="7.60138" transform="matrix(4.37114e-08 1 1 -4.37114e-08 3.52637 85.8003)" stroke="white" stroke-width="7"/>
<ellipse cx="123.628" cy="10.5463" rx="7.60138" ry="6.84124" stroke="white" stroke-width="7"/>
<circle cx="176.838" cy="122.287" r="7.60138" transform="rotate(90 176.838 122.287)" stroke="white" stroke-width="7"/>
<ellipse cx="41.5335" cy="145.851" rx="33.4461" ry="32.6859" fill="#FCFF35"/>
<circle cx="33.9317" cy="145.091" r="12.1622" stroke="#1B113C" stroke-width="7"/>
<circle cx="49.1349" cy="145.091" r="12.1622" fill="#1B113C" stroke="#1B113C" stroke-width="7"/>
</svg>
