<svg width="166" height="173" viewBox="0 0 166 173" fill="none" xmlns="http://www.w3.org/2000/svg">
<path d="M115.863 147.05C122.16 147.05 127.265 141.605 127.265 134.888C127.265 128.171 122.16 122.726 115.863 122.726C109.566 122.726 104.461 128.171 104.461 134.888C104.461 141.605 109.566 147.05 115.863 147.05Z" fill="white"/>
<path d="M163.894 131.585C160.078 121.614 153.493 113.012 144.955 106.843C136.417 100.674 126.302 97.2105 115.863 96.8813C105.425 97.2105 95.3096 100.674 86.7718 106.843C78.234 113.012 71.6488 121.614 67.8322 131.585L66.4543 134.888L67.8322 138.192C71.6488 148.162 78.234 156.765 86.7718 162.934C95.3096 169.102 105.425 172.566 115.863 172.895C126.302 172.566 136.417 169.102 144.955 162.934C153.493 156.765 160.078 148.162 163.894 138.192L165.272 134.888L163.894 131.585ZM115.863 160.226C110.977 160.226 106.201 158.74 102.138 155.956C98.0756 153.172 94.9092 149.215 93.0393 144.585C91.1695 139.955 90.6803 134.86 91.6335 129.945C92.5867 125.03 94.9396 120.515 98.3946 116.972C101.85 113.428 106.252 111.015 111.044 110.037C115.836 109.06 120.803 109.561 125.317 111.479C129.831 113.397 133.69 116.644 136.404 120.811C139.119 124.978 140.568 129.877 140.568 134.888C140.56 141.606 137.955 148.046 133.324 152.797C128.692 157.547 122.413 160.219 115.863 160.226Z" fill="#FCFF35"/>
<path d="M127.265 78.8492V4.14429H4.12305V165.293H59.8048" stroke="white" stroke-width="7"/>
<path d="M26.9272 36.0701H104.461" stroke="white" stroke-width="7"/>
<path d="M26.9272 66.4756H104.461" stroke="white" stroke-width="7"/>
<path d="M26.9272 92.3203H74.0558" stroke="white" stroke-width="7"/>
</svg>
