<svg width="248" height="247" viewBox="0 0 248 247" fill="none" xmlns="http://www.w3.org/2000/svg">
<path d="M124.318 60.3545C159.313 60.3545 187.682 88.7232 187.683 123.718C187.683 158.712 159.313 187.082 124.318 187.082C89.3238 187.082 60.9551 158.712 60.9551 123.718C60.9552 88.7233 89.3238 60.3546 124.318 60.3545ZM125.442 122.54C122.497 122.54 119.954 123.182 117.812 124.464C115.685 125.746 114.041 127.539 112.882 129.844C111.736 132.149 111.163 134.829 111.163 137.884C111.163 140.938 111.736 143.618 112.882 145.923C114.041 148.228 115.685 150.022 117.812 151.304C119.954 152.585 122.497 153.227 125.442 153.227C128.825 153.227 131.662 152.387 133.953 150.71C136.258 149.033 137.881 146.762 138.822 143.898L133.217 142.343C132.671 144.115 131.75 145.501 130.455 146.496C129.159 147.492 127.488 147.989 125.442 147.989C123.574 147.989 122.012 147.573 120.758 146.741C119.517 145.909 118.582 144.736 117.955 143.223C117.328 141.709 117.015 139.929 117.015 137.884C117.015 135.838 117.328 134.058 117.955 132.544C118.582 131.03 119.517 129.857 120.758 129.025C122.012 128.193 123.574 127.777 125.442 127.777C127.488 127.777 129.159 128.275 130.455 129.271C131.751 130.252 132.671 131.637 133.217 133.424L138.822 131.869C137.881 129.005 136.258 126.734 133.953 125.057C131.662 123.379 128.825 122.54 125.442 122.54ZM93.8535 123.154L84.8516 152.612H90.5801L92.4453 146.476H103.538L105.432 152.612H111.16L102.159 123.154H93.8535ZM139.645 123.154V128.351H148.932V152.612H154.496V128.351H163.784V123.154H139.645ZM101.934 141.279H94.0244L97.9482 128.367L101.934 141.279ZM112.459 87.1494L103.457 116.607H109.186L111.051 110.471H122.144L124.037 116.607H129.766L120.765 87.1494H112.459ZM132.615 87.1494V116.607H138.18V87.1494H132.615ZM120.539 105.274H112.63L116.554 92.3623L120.539 105.274Z" fill="url(#paint0_linear_4197_404)"/>
<path d="M124.317 11.8369L127.488 21.5943H137.747L129.447 27.6247L132.617 37.3821L124.317 31.3517L116.017 37.3821L119.188 27.6247L110.887 21.5943H121.147L124.317 11.8369Z" fill="url(#paint1_linear_4197_404)" stroke="white" stroke-width="2"/>
<path d="M124.317 207.359L127.488 217.117H137.747L129.447 223.147L132.617 232.904L124.317 226.874L116.017 232.904L119.188 223.147L110.887 217.117H121.147L124.317 207.359Z" fill="url(#paint2_linear_4197_404)" stroke="white" stroke-width="2"/>
<path d="M173.2 24.9348L176.37 34.6922H186.63L178.33 40.7226L181.5 50.48L173.2 44.4496L164.9 50.48L168.07 40.7226L159.77 34.6922H170.03L173.2 24.9348Z" fill="url(#paint3_linear_4197_404)" stroke="white" stroke-width="2"/>
<path d="M76.2529 194.284L78.8562 204.208L89.0987 204.799L80.4651 210.341L83.0684 220.265L75.1292 213.767L66.4956 219.309L70.2226 209.75L62.2834 203.252L72.5259 203.843L76.2529 194.284Z" fill="url(#paint4_linear_4197_404)" stroke="white" stroke-width="2"/>
<path d="M222.488 70.7165L214.081 76.5965L217.075 86.4093L208.885 80.2305L200.478 86.1104L203.823 76.4117L195.633 70.2329L205.891 70.4176L209.236 60.7189L212.23 70.5318L222.488 70.7165Z" fill="url(#paint5_linear_4197_404)" stroke="white" stroke-width="2"/>
<path d="M53.3046 168.981L44.6848 174.545L47.3127 184.463L39.3575 177.984L30.7377 183.548L34.4409 173.98L26.4856 167.502L36.7295 168.067L40.4327 158.499L43.0606 168.416L53.3046 168.981Z" fill="url(#paint6_linear_4197_404)" stroke="white" stroke-width="2"/>
<path d="M217.278 184.025L208.979 177.992L200.678 184.021L203.85 174.264L195.552 168.232L205.811 168.234L208.984 158.478L212.152 168.236L222.411 168.238L214.11 174.267L217.278 184.025Z" fill="url(#paint7_linear_4197_404)" stroke="white" stroke-width="2"/>
<path d="M47.4813 86.591L39.434 80.2272L30.8948 85.9141L34.4604 76.2941L26.4131 69.9303L36.6641 70.3487L40.2297 60.7287L42.9996 70.6072L53.2506 71.0256L44.7114 76.7125L47.4813 86.591Z" fill="url(#paint8_linear_4197_404)" stroke="white" stroke-width="2"/>
<path d="M181.198 220.016L173.057 213.773L164.604 219.588L168.025 209.915L159.883 203.673L170.139 203.937L173.56 194.265L176.478 204.101L186.734 204.366L178.281 210.18L181.198 220.016Z" fill="url(#paint9_linear_4197_404)" stroke="white" stroke-width="2"/>
<path d="M83.7724 50.4519L75.453 44.448L67.1722 50.505L70.3114 40.7375L61.992 34.7337L72.2515 34.7009L75.3906 24.9334L78.5922 34.6806L88.8516 34.6478L80.5708 40.7047L83.7724 50.4519Z" fill="url(#paint10_linear_4197_404)" stroke="white" stroke-width="2"/>
<path d="M235.483 119.28L227.217 125.357L230.442 135.096L222.108 129.113L213.842 135.19L216.958 125.415L208.624 119.431L218.883 119.373L221.998 109.598L225.224 119.338L235.483 119.28Z" fill="url(#paint11_linear_4197_404)" stroke="white" stroke-width="2"/>
<path d="M40.3367 120.637L31.5068 125.861L33.7466 135.873L26.0497 129.09L17.2198 134.314L21.2927 124.897L13.5957 118.114L23.8099 119.078L27.8828 109.661L30.1226 119.673L40.3367 120.637Z" fill="url(#paint12_linear_4197_404)" stroke="white" stroke-width="2"/>
<circle cx="123.957" cy="123.356" r="122.106" stroke="white" stroke-width="2"/>
<defs>
<linearGradient id="paint0_linear_4197_404" x1="124.319" y1="60.3545" x2="124.319" y2="187.082" gradientUnits="userSpaceOnUse">
<stop stop-color="#FCFF35"/>
<stop offset="1" stop-color="#C3CDFF"/>
</linearGradient>
<linearGradient id="paint1_linear_4197_404" x1="124.317" y1="11.8369" x2="124.317" y2="40.079" gradientUnits="userSpaceOnUse">
<stop stop-color="#C3CDFF"/>
<stop offset="1" stop-color="#FCFF35"/>
</linearGradient>
<linearGradient id="paint2_linear_4197_404" x1="124.317" y1="207.359" x2="124.317" y2="235.601" gradientUnits="userSpaceOnUse">
<stop stop-color="#C3CDFF"/>
<stop offset="1" stop-color="#FCFF35"/>
</linearGradient>
<linearGradient id="paint3_linear_4197_404" x1="173.2" y1="24.9348" x2="173.2" y2="53.1769" gradientUnits="userSpaceOnUse">
<stop stop-color="#C3CDFF"/>
<stop offset="1" stop-color="#FCFF35"/>
</linearGradient>
<linearGradient id="paint4_linear_4197_404" x1="76.2529" y1="194.284" x2="74.6267" y2="222.479" gradientUnits="userSpaceOnUse">
<stop stop-color="#C3CDFF"/>
<stop offset="1" stop-color="#FCFF35"/>
</linearGradient>
<linearGradient id="paint5_linear_4197_404" x1="222.488" y1="70.7165" x2="195.476" y2="78.9587" gradientUnits="userSpaceOnUse">
<stop stop-color="#C3CDFF"/>
<stop offset="1" stop-color="#FCFF35"/>
</linearGradient>
<linearGradient id="paint6_linear_4197_404" x1="53.3046" y1="168.981" x2="26.0047" y2="176.216" gradientUnits="userSpaceOnUse">
<stop stop-color="#C3CDFF"/>
<stop offset="1" stop-color="#FCFF35"/>
</linearGradient>
<linearGradient id="paint7_linear_4197_404" x1="217.278" y1="184.025" x2="200.683" y2="161.173" gradientUnits="userSpaceOnUse">
<stop stop-color="#C3CDFF"/>
<stop offset="1" stop-color="#FCFF35"/>
</linearGradient>
<linearGradient id="paint8_linear_4197_404" x1="47.4813" y1="86.591" x2="31.8265" y2="63.0848" gradientUnits="userSpaceOnUse">
<stop stop-color="#C3CDFF"/>
<stop offset="1" stop-color="#FCFF35"/>
</linearGradient>
<linearGradient id="paint9_linear_4197_404" x1="181.198" y1="220.016" x2="165.194" y2="196.747" gradientUnits="userSpaceOnUse">
<stop stop-color="#C3CDFF"/>
<stop offset="1" stop-color="#FCFF35"/>
</linearGradient>
<linearGradient id="paint10_linear_4197_404" x1="83.7724" y1="50.4519" x2="67.0991" y2="27.6568" gradientUnits="userSpaceOnUse">
<stop stop-color="#C3CDFF"/>
<stop offset="1" stop-color="#FCFF35"/>
</linearGradient>
<linearGradient id="paint11_linear_4197_404" x1="235.483" y1="119.28" x2="208.673" y2="128.158" gradientUnits="userSpaceOnUse">
<stop stop-color="#C3CDFF"/>
<stop offset="1" stop-color="#FCFF35"/>
</linearGradient>
<linearGradient id="paint12_linear_4197_404" x1="40.3367" y1="120.637" x2="12.7759" y2="126.802" gradientUnits="userSpaceOnUse">
<stop stop-color="#C3CDFF"/>
<stop offset="1" stop-color="#FCFF35"/>
</linearGradient>
</defs>
</svg>
