<svg width="269" height="287" viewBox="0 0 269 287" fill="none" xmlns="http://www.w3.org/2000/svg">
<path d="M153.452 187.676C156.371 187.609 161.031 187.531 165.909 187.5M165.909 187.5C171.559 187.464 177.501 187.491 181.374 187.676C188.591 188.019 189.536 181.807 189.106 178.658V157.616H205C202.096 146.594 195.367 121.114 191.684 107.372C187.08 90.1951 176.716 63.9999 140.136 64C103.622 64.0001 86.4394 87.6186 86.0098 109.949C85.5803 132.279 99.3264 134.856 103.622 163.628C107.059 186.645 105.054 202.133 103.622 207H169.346L165.909 187.5Z" stroke="#1B113C" stroke-width="2"/>
<mask id="mask0_4241_7836" style="mask-type:alpha" maskUnits="userSpaceOnUse" x="86" y="64" width="119" height="143">
<path d="M189.106 157.616H205C202.096 146.594 195.367 121.114 191.684 107.372C187.08 90.1951 176.716 63.9999 140.136 64C103.622 64.0001 86.4394 87.6186 86.0098 109.949C85.5803 132.279 99.3264 134.856 103.622 163.628C107.059 186.645 105.054 202.133 103.622 207H169.346L165.909 187.5C171.559 187.464 177.501 187.491 181.374 187.676C188.591 188.019 189.536 181.807 189.106 178.658V157.616Z" fill="#D9D9D9"/>
</mask>
<g mask="url(#mask0_4241_7836)">
<path d="M176.76 165.737C176.242 165.706 175.757 165.469 175.426 165.075C175.252 164.856 175.12 164.64 175.03 164.406C174.94 164.172 174.894 163.898 174.909 163.65C174.941 163.111 175.177 162.646 175.572 162.295C176.056 161.867 176.732 161.699 177.367 161.862C177.491 161.87 177.591 161.938 177.732 162.009C177.854 162.058 177.933 162.125 178.053 162.215C178.153 162.284 178.251 162.373 178.329 162.461C178.68 162.856 178.858 163.366 178.827 163.885C178.812 164.133 178.754 164.4 178.637 164.622C178.519 164.844 178.361 165.063 178.163 165.239C178.054 165.315 177.946 165.392 177.859 165.449C177.73 165.525 177.643 165.582 177.516 165.616C177.367 165.67 177.261 165.705 177.135 165.718C176.99 165.709 176.884 165.745 176.739 165.736L176.76 165.737Z" fill="#1B113C"/>
<path d="M169.965 162.127C169.716 162.112 169.449 162.055 169.227 161.937C169.005 161.82 168.786 161.661 168.61 161.464C168.435 161.266 168.323 161.051 168.233 160.817C168.144 160.562 168.098 160.289 168.113 160.04C168.121 159.915 168.128 159.791 168.177 159.669C168.186 159.524 168.254 159.424 168.324 159.303C168.373 159.181 168.441 159.082 168.53 158.983C168.621 158.863 168.709 158.786 168.776 158.706C168.974 158.531 169.21 158.399 169.445 158.31C169.807 158.165 170.203 158.147 170.592 158.253C170.714 158.302 170.815 158.35 170.937 158.399C171.078 158.47 171.158 158.537 171.278 158.607C171.377 158.696 171.455 158.784 171.554 158.873C171.906 159.248 172.082 159.778 172.052 160.276C172.036 160.545 171.979 160.792 171.861 161.034C171.744 161.256 171.585 161.475 171.388 161.63C171.278 161.728 171.17 161.804 171.083 161.861C170.955 161.916 170.868 161.973 170.72 162.027C170.593 162.061 170.487 162.096 170.361 162.109C170.213 162.142 170.11 162.136 169.965 162.127Z" fill="#1B113C"/>
<path d="M109.105 200.4C108.536 199.492 108.776 198.258 109.705 197.69C110.635 197.1 111.847 197.36 112.437 198.27C113.005 199.198 112.766 200.412 111.836 201.001C111.469 201.228 111.068 201.329 110.653 201.304C110.052 201.268 109.467 200.963 109.105 200.4ZM115.921 196.377C115.418 195.39 115.821 194.228 116.787 193.724C117.774 193.222 118.936 193.624 119.44 194.591C119.922 195.577 119.519 196.739 118.554 197.222C118.23 197.41 117.874 197.451 117.543 197.432C116.879 197.392 116.216 196.998 115.901 196.355L115.921 196.377ZM123.076 192.936C122.594 191.951 123.017 190.79 123.982 190.307C124.969 189.804 126.13 190.228 126.613 191.193C127.095 192.179 126.67 193.36 125.705 193.843C125.404 194.012 125.068 194.055 124.716 194.033C124.032 193.992 123.37 193.578 123.055 192.935L123.076 192.936ZM130.099 189.259C129.531 188.33 129.813 187.099 130.761 186.552C131.69 185.984 132.9 186.265 133.467 187.214C134.015 188.141 133.734 189.352 132.806 189.921C132.44 190.128 132.038 190.228 131.665 190.206C131.043 190.169 130.439 189.841 130.099 189.259ZM136.783 184.999C136.15 184.108 136.37 182.873 137.259 182.261C138.15 181.628 139.387 181.827 139.998 182.737C140.631 183.628 140.432 184.865 139.522 185.476C139.152 185.745 138.708 185.864 138.272 185.838C137.692 185.803 137.126 185.519 136.783 184.999ZM143.219 180.371C142.564 179.5 142.742 178.262 143.572 177.604C144.443 176.949 145.682 177.107 146.337 177.978C147.013 178.851 146.835 180.089 145.984 180.745C145.613 181.035 145.126 181.172 144.67 181.145C144.111 181.111 143.584 180.872 143.218 180.392L143.219 180.371ZM149.461 175.503C148.784 174.651 148.921 173.41 149.752 172.732C150.605 172.034 151.845 172.171 152.543 173.024C153.22 173.876 153.083 175.116 152.231 175.794C151.837 176.124 151.35 176.261 150.873 176.232C150.334 176.2 149.829 175.962 149.46 175.523L149.461 175.503ZM155.608 170.483C154.931 169.631 155.047 168.389 155.9 167.691C156.731 167.013 157.992 167.151 158.67 167.982C159.368 168.836 159.231 170.076 158.378 170.774C157.985 171.083 157.497 171.241 157.02 171.212C156.481 171.18 155.976 170.942 155.607 170.503L155.608 170.483ZM161.774 165.485C161.119 164.613 161.297 163.375 162.169 162.72C163.039 162.086 164.277 162.264 164.933 163.115C165.567 163.985 165.41 165.224 164.538 165.879C164.147 166.168 163.681 166.306 163.225 166.279C162.665 166.245 162.14 165.985 161.774 165.485Z" fill="#1B113C"/>
<path d="M163.17 158.536C163.046 158.528 162.922 158.521 162.779 158.47C162.655 158.463 162.555 158.395 162.434 158.325C162.312 158.276 162.212 158.208 162.114 158.118C161.994 158.028 161.916 157.94 161.816 157.872C161.642 157.653 161.53 157.439 161.44 157.204C161.35 156.97 161.304 156.697 161.319 156.448C161.35 155.93 161.587 155.445 161.983 155.094C162.092 155.017 162.2 154.94 162.308 154.884C162.416 154.808 162.524 154.752 162.65 154.718C162.779 154.663 162.885 154.628 163.01 154.615C163.682 154.509 164.353 154.778 164.761 155.26C165.091 155.655 165.288 156.187 165.258 156.684C165.243 156.933 165.165 157.199 165.047 157.421C164.93 157.642 164.792 157.863 164.594 158.038C164.2 158.368 163.668 158.565 163.17 158.536Z" fill="#1B113C"/>
<path d="M103.468 195.526C102.637 194.811 102.587 193.559 103.322 192.75C104.038 191.919 105.289 191.87 106.098 192.605C106.929 193.32 106.979 194.572 106.244 195.381C105.82 195.855 105.225 196.069 104.665 196.035C104.23 196.009 103.803 195.838 103.468 195.526ZM109.013 190.137C108.379 189.267 108.557 188.029 109.428 187.374C110.299 186.74 111.536 186.918 112.191 187.79C112.824 188.681 112.646 189.918 111.776 190.553C111.384 190.841 110.919 190.959 110.484 190.933C109.904 190.898 109.378 190.638 109.013 190.137ZM115.353 185.711C114.806 184.784 115.107 183.574 116.036 183.006C116.963 182.458 118.174 182.739 118.741 183.688C119.289 184.616 119.008 185.827 118.079 186.395C117.713 186.602 117.334 186.683 116.94 186.66C116.318 186.622 115.714 186.295 115.353 185.711ZM121.961 181.676C121.393 180.747 121.633 179.513 122.562 178.945C123.492 178.356 124.704 178.616 125.293 179.546C125.863 180.454 125.622 181.688 124.694 182.256C124.326 182.484 123.924 182.605 123.509 182.58C122.908 182.544 122.324 182.218 121.961 181.676ZM128.457 177.426C127.867 176.517 128.108 175.283 129.017 174.692C129.926 174.102 131.16 174.342 131.75 175.252C132.341 176.161 132.122 177.375 131.213 177.966C130.844 178.214 130.4 178.333 129.986 178.308C129.385 178.272 128.82 177.968 128.457 177.426ZM134.915 173.132C134.304 172.222 134.544 170.988 135.454 170.376C136.364 169.786 137.578 170.004 138.189 170.915C138.779 171.824 138.56 173.059 137.649 173.671C137.282 173.898 136.859 174.018 136.423 173.992C135.843 173.958 135.257 173.673 134.915 173.132ZM141.33 168.836C140.74 167.926 140.98 166.692 141.89 166.102C142.819 165.513 144.034 165.731 144.623 166.661C145.234 167.572 144.995 168.785 144.065 169.374C143.717 169.624 143.273 169.743 142.879 169.719C142.278 169.683 141.693 169.377 141.33 168.836ZM147.828 164.565C147.239 163.635 147.52 162.403 148.449 161.835C149.378 161.266 150.588 161.547 151.157 162.476C151.746 163.406 151.465 164.616 150.537 165.185C150.19 165.414 149.768 165.513 149.374 165.49C148.773 165.454 148.169 165.126 147.828 164.565ZM154.436 160.529C153.911 159.562 154.274 158.377 155.221 157.851C156.188 157.327 157.394 157.69 157.899 158.636C158.423 159.604 158.04 160.787 157.114 161.314C156.77 161.502 156.413 161.563 156.06 161.542C155.418 161.504 154.774 161.132 154.437 160.509L154.436 160.529Z" fill="#1B113C"/>
<path d="M130.441 165.519C129.902 165.487 129.438 165.251 129.087 164.855C128.757 164.461 128.56 163.929 128.59 163.432C128.62 162.934 128.858 162.428 129.254 162.078C130.023 161.395 131.35 161.475 132.032 162.244C132.382 162.64 132.559 163.17 132.529 163.668C132.521 163.792 132.514 163.917 132.465 164.039C132.456 164.184 132.388 164.284 132.318 164.404C132.269 164.526 132.18 164.625 132.112 164.725C132.021 164.844 131.933 164.922 131.844 165.021C131.471 165.352 130.939 165.549 130.441 165.519Z" fill="#1B113C"/>
<path d="M98.528 190.841C97.5591 190.345 97.1727 189.157 97.6677 188.188C98.1615 187.24 99.3302 186.832 100.299 187.327C101.268 187.822 101.654 189.01 101.161 189.958C100.805 190.686 100.052 191.098 99.2851 191.052C99.0363 191.037 98.7706 190.959 98.528 190.841ZM102.831 183.962C102.043 183.228 101.994 181.956 102.749 181.169C103.503 180.382 104.755 180.333 105.541 181.087C106.35 181.822 106.379 183.072 105.624 183.88C105.201 184.333 104.628 184.528 104.068 184.494C103.633 184.468 103.187 184.275 102.831 183.962ZM108.665 178.258C107.988 177.406 108.146 176.167 108.998 175.49C109.85 174.813 111.089 174.97 111.766 175.822C112.443 176.674 112.285 177.913 111.433 178.59C111.04 178.899 110.552 179.057 110.096 179.03C109.536 178.997 109.032 178.737 108.664 178.278L108.665 178.258ZM115.14 173.32C114.507 172.429 114.727 171.194 115.617 170.581C116.508 169.948 117.743 170.168 118.376 171.059C118.988 171.949 118.768 173.184 117.877 173.817C117.509 174.065 117.065 174.184 116.63 174.158C116.049 174.123 115.484 173.84 115.14 173.32ZM121.864 168.751C121.295 167.822 121.576 166.611 122.505 166.043C123.433 165.474 124.644 165.755 125.212 166.684C125.782 167.592 125.521 168.824 124.592 169.393C124.226 169.6 123.825 169.7 123.431 169.677C122.809 169.639 122.224 169.334 121.864 168.751Z" fill="#1B113C"/>
<path d="M136.073 151.75C135.534 151.718 135.069 151.482 134.718 151.087C134.368 150.691 134.19 150.181 134.221 149.663C134.252 149.145 134.49 148.659 134.884 148.329C135.654 147.627 136.981 147.706 137.662 148.496C138.014 148.871 138.19 149.402 138.16 149.899C138.13 150.397 137.912 150.904 137.496 151.253C137.101 151.604 136.591 151.781 136.093 151.752L136.073 151.75Z" fill="#1B113C"/>
<path d="M93.8953 186.9C92.8285 186.648 92.1627 185.61 92.3712 184.561C92.6224 183.494 93.6609 182.828 94.7095 183.037C95.7774 183.267 96.4421 184.327 96.2336 185.375C96.0093 186.34 95.1586 186.996 94.1843 186.938C94.1843 186.938 93.9977 186.927 93.894 186.92L93.8953 186.9ZM96.3346 179.181C95.4108 178.627 95.0878 177.421 95.6218 176.496C96.1778 175.552 97.383 175.229 98.3079 175.763C99.2524 176.319 99.5754 177.524 99.0207 178.448C98.6273 179.111 97.9183 179.484 97.1928 179.441C96.9026 179.423 96.6173 179.323 96.3138 179.18L96.3346 179.181ZM100.818 172.418C100.008 171.704 99.9372 170.451 100.651 169.641C101.367 168.81 102.618 168.76 103.428 169.474C104.261 170.169 104.331 171.422 103.595 172.252C103.192 172.727 102.596 172.941 102.016 172.906C101.581 172.88 101.154 172.709 100.818 172.418ZM106.412 166.553C105.692 165.72 105.788 164.477 106.62 163.778C107.454 163.058 108.696 163.153 109.416 163.987C110.115 164.82 110.02 166.062 109.187 166.761C108.792 167.112 108.283 167.269 107.806 167.24C107.267 167.208 106.782 166.971 106.433 166.555L106.412 166.553ZM112.73 161.46C112.118 160.571 112.358 159.337 113.268 158.726C114.157 158.134 115.392 158.354 116.003 159.264C116.594 160.173 116.375 161.388 115.465 161.999C115.096 162.247 114.673 162.368 114.258 162.343C113.678 162.308 113.093 162.002 112.73 161.46ZM119.565 157.106C119.041 156.138 119.425 154.934 120.35 154.427C121.318 153.903 122.503 154.265 123.028 155.212C123.553 156.18 123.19 157.365 122.244 157.891C121.899 158.078 121.542 158.14 121.19 158.119C120.547 158.08 119.904 157.709 119.567 157.085L119.565 157.106ZM126.797 153.42C126.357 152.437 126.822 151.279 127.826 150.839C128.83 150.4 129.988 150.865 130.406 151.868C130.845 152.872 130.381 154.03 129.378 154.449C129.078 154.597 128.785 154.621 128.474 154.603C127.748 154.559 127.088 154.124 126.797 153.42Z" fill="#1B113C"/>
<path d="M116.265 148.336C116.14 148.329 116.016 148.321 115.894 148.272C115.749 148.264 115.649 148.195 115.528 148.126C115.406 148.077 115.308 147.987 115.208 147.919C115.088 147.829 115.01 147.741 114.931 147.674C114.756 147.476 114.624 147.239 114.534 147.005C114.445 146.771 114.398 146.497 114.413 146.249C114.446 145.71 114.682 145.245 115.077 144.894C115.65 144.367 116.53 144.253 117.238 144.587C117.459 144.725 117.68 144.863 117.834 145.06C118.185 145.455 118.362 145.965 118.331 146.484C118.3 147.002 118.084 147.488 117.668 147.838C117.273 148.168 116.741 148.365 116.244 148.335L116.265 148.336Z" fill="#1B113C"/>
<path d="M87.8184 181.396C87.8208 180.314 88.7267 179.432 89.8071 179.456C90.8888 179.458 91.7706 180.364 91.7474 181.444C91.745 182.526 90.8391 183.408 89.7574 183.406L89.6538 183.399C88.6173 183.337 87.7964 182.456 87.8184 181.396ZM90.4053 175.726C89.363 175.414 88.7423 174.315 89.0545 173.273C89.3459 172.229 90.4649 171.61 91.5059 171.943C92.5495 172.234 93.1701 173.332 92.8372 174.374C92.5947 175.295 91.7502 175.848 90.8381 175.793C90.693 175.785 90.5479 175.776 90.4053 175.726ZM92.9635 168.452C92.0178 167.916 91.6729 166.73 92.1666 165.782C92.6824 164.814 93.8888 164.471 94.8358 164.985C95.7815 165.52 96.1472 166.708 95.6327 167.655C95.2575 168.36 94.5278 168.733 93.8023 168.689C93.5328 168.673 93.2256 168.592 92.9635 168.452ZM96.9186 161.823C96.0633 161.168 95.9086 159.931 96.5852 159.057C97.2398 158.201 98.4765 158.046 99.3513 158.723C100.207 159.378 100.361 160.615 99.6847 161.489C99.278 162.027 98.6595 162.281 98.0168 162.242C97.623 162.219 97.2366 162.071 96.9186 161.823ZM101.951 155.966C101.23 155.153 101.306 153.889 102.119 153.168C102.932 152.446 104.175 152.521 104.896 153.334C105.638 154.148 105.562 155.413 104.729 156.133C104.333 156.484 103.802 156.66 103.326 156.631C102.807 156.6 102.343 156.364 101.971 155.967L101.951 155.966ZM107.943 151.103C107.374 150.175 107.634 148.963 108.543 148.372C109.472 147.804 110.705 148.065 111.274 148.973C111.843 149.902 111.582 151.134 110.674 151.704C110.306 151.932 109.905 152.032 109.49 152.008C108.889 151.972 108.284 151.665 107.943 151.103Z" fill="#1B113C"/>
<path d="M121.469 137.205C120.93 137.172 120.465 136.937 120.115 136.541C119.784 136.147 119.588 135.615 119.617 135.117C119.632 134.868 119.69 134.601 119.828 134.381C119.947 134.138 120.085 133.918 120.281 133.763C120.39 133.686 120.5 133.589 120.585 133.552C120.714 133.477 120.801 133.42 120.949 133.387C121.075 133.353 121.182 133.318 121.307 133.304C121.959 133.198 122.629 133.467 123.037 133.949C123.388 134.345 123.564 134.875 123.534 135.373C123.504 135.87 123.266 136.376 122.87 136.727C122.673 136.902 122.458 137.014 122.224 137.104C121.989 137.194 121.716 137.24 121.467 137.225L121.469 137.205Z" fill="#1B113C"/>
<path d="M83.6713 177.693C83.5481 176.625 84.3565 175.633 85.4224 175.552C86.5116 175.43 87.4826 176.237 87.585 177.304C87.7069 178.393 86.8997 179.364 85.8118 179.466C85.8118 179.466 85.6045 179.453 85.5009 179.447C84.5473 179.39 83.7592 178.656 83.6725 177.673L83.6713 177.693ZM85.4452 171.704C84.3709 171.577 83.5757 170.614 83.7038 169.519C83.8099 168.443 84.7937 167.649 85.8679 167.776C86.9434 167.882 87.7374 168.866 87.6105 169.94C87.4849 170.994 86.5646 171.771 85.5281 171.709L85.4244 171.703L85.4452 171.704ZM86.6539 164.037C85.6324 163.726 85.0336 162.608 85.3665 161.567C85.6787 160.524 86.7964 159.926 87.8375 160.259C88.8578 160.59 89.4565 161.708 89.1249 162.728C88.8629 163.628 88.0183 164.181 87.127 164.127C86.9611 164.118 86.816 164.109 86.6539 164.037ZM89.2756 156.746C88.3067 156.25 87.9203 155.062 88.4153 154.093C88.909 153.145 90.0972 152.759 91.0661 153.254C92.0143 153.747 92.4008 154.936 91.907 155.884C91.5513 156.612 90.7997 157.003 90.0534 156.959C89.7839 156.942 89.5169 156.885 89.2756 156.746ZM93.093 149.984C92.2402 149.288 92.127 148.053 92.823 147.2C93.4984 146.346 94.7534 146.234 95.6062 146.93C96.4395 147.605 96.5515 148.86 95.8762 149.714C95.4512 150.208 94.8534 150.464 94.2315 150.427C93.8169 150.402 93.4305 150.254 93.093 149.984ZM98.3847 144.309C97.7504 143.439 97.9079 142.2 98.8001 141.546C99.6703 140.912 100.908 141.09 101.543 141.939C102.197 142.832 102.019 144.069 101.149 144.704C100.778 144.994 100.312 145.132 99.8557 145.105C99.296 145.071 98.75 144.81 98.3847 144.309ZM104.841 140.036C104.381 139.03 104.824 137.892 105.829 137.432C106.814 136.971 107.974 137.394 108.434 138.4C108.895 139.384 108.45 140.564 107.446 141.004C107.145 141.152 106.831 141.195 106.499 141.176C105.815 141.135 105.153 140.72 104.82 140.035L104.841 140.036ZM112.046 137.139C111.777 136.083 112.382 135.016 113.46 134.727C114.518 134.437 115.583 135.063 115.872 136.141C116.142 137.177 115.516 138.263 114.458 138.553C114.268 138.604 114.037 138.632 113.851 138.62C113.021 138.571 112.287 137.986 112.066 137.161L112.046 137.139Z" fill="#1B113C"/>
<path d="M87.23 187.042C86.7118 187.011 86.2254 186.794 85.8759 186.378C85.5447 186.005 85.3477 185.473 85.3788 184.954C85.4099 184.436 85.647 183.951 86.0413 183.621C86.5467 183.173 87.2212 183.026 87.8576 183.168C87.982 183.175 88.0819 183.244 88.2025 183.314C88.3244 183.362 88.4231 183.452 88.5438 183.521C88.6425 183.61 88.7204 183.698 88.8191 183.787C88.897 183.875 88.9944 183.985 89.0297 184.091C89.1064 184.2 89.1624 184.307 89.1964 184.434C89.2511 184.562 89.2863 184.668 89.2984 184.815C89.3324 184.942 89.3249 185.066 89.3174 185.19C89.2851 185.729 89.0492 186.194 88.6537 186.545C88.5439 186.642 88.456 186.72 88.3498 186.755C88.2205 186.831 88.1131 186.887 87.985 186.941C87.8581 186.975 87.752 187.011 87.6264 187.024C87.4788 187.057 87.3751 187.051 87.23 187.042Z" fill="#1B113C"/>
<path d="M97.1315 133.999C97.0072 133.992 96.8828 133.984 96.7609 133.935C96.6158 133.926 96.5159 133.858 96.3952 133.788C96.2733 133.739 96.1734 133.671 96.0747 133.582C95.9541 133.512 95.8774 133.404 95.7982 133.336C95.4474 132.941 95.2712 132.41 95.3011 131.913C95.3309 131.415 95.5693 130.909 95.9648 130.558C96.7131 129.875 98.0605 129.956 98.7426 130.725C99.0726 131.119 99.2695 131.651 99.2397 132.149C99.2099 132.646 98.9715 133.152 98.576 133.503C98.4673 133.58 98.3782 133.678 98.2721 133.714C98.1427 133.789 98.0354 133.845 97.9085 133.879C97.7804 133.934 97.6742 133.969 97.5486 133.982C97.4035 133.974 97.2974 134.009 97.1523 134L97.1315 133.999Z" fill="#1B113C"/>
<path d="M79.7004 173.837C79.515 172.765 80.2223 171.725 81.2944 171.54C82.3666 171.355 83.4047 172.083 83.5706 173.133C83.7559 174.205 83.0487 175.244 81.9765 175.43C81.829 175.463 81.6826 175.475 81.5168 175.465C80.6254 175.411 79.853 174.762 79.7004 173.837ZM78.9013 165.654C78.8818 164.592 79.7487 163.666 80.8316 163.648C81.9145 163.629 82.8196 164.495 82.8586 165.579C82.8768 166.662 82.0112 167.567 80.9283 167.586C80.9283 167.586 80.8246 167.579 80.7624 167.576C79.7467 167.515 78.9233 166.675 78.9025 165.633L78.9013 165.654ZM81.0898 159.689C80.0168 159.542 79.2643 158.56 79.4131 157.467C79.5607 156.393 80.542 155.641 81.6357 155.79C82.7086 155.937 83.4599 156.939 83.3123 158.012C83.1685 159.023 82.2506 159.759 81.2556 159.699C81.2556 159.699 81.1312 159.692 81.0898 159.689ZM82.4718 151.908C81.4295 151.595 80.8308 150.478 81.1625 149.457C81.4746 148.415 82.5924 147.816 83.6334 148.149C84.655 148.46 85.2537 149.578 84.9208 150.619C84.66 151.498 83.8155 152.051 82.9241 151.997C82.779 151.988 82.6339 151.98 82.4718 151.908ZM85.0413 144.447C84.0943 143.932 83.7286 142.745 84.2236 141.776C84.7174 140.828 85.9251 140.464 86.8733 140.957C87.8215 141.451 88.2066 142.66 87.6921 143.607C87.317 144.313 86.5653 144.705 85.8191 144.66C85.5703 144.645 85.2838 144.565 85.0218 144.425L85.0413 144.447ZM89.2708 137.751C88.5278 136.958 88.5609 135.712 89.3545 134.969C90.1285 134.204 91.3955 134.238 92.1384 135.032C92.8814 135.825 92.8483 137.071 92.0548 137.814C91.6568 138.207 91.1054 138.382 90.5871 138.351C90.1103 138.322 89.624 138.106 89.272 137.731L89.2708 137.751Z" fill="#1B113C"/>
<path d="M117.065 127.349C116.998 128.468 116.053 129.306 114.934 129.239C113.814 129.172 112.976 128.227 113.043 127.108C113.111 125.988 114.055 125.15 115.175 125.217C116.294 125.284 117.132 126.229 117.065 127.349Z" fill="#1B113C"/>
<path d="M108.645 119.273C108.578 120.392 107.633 121.23 106.514 121.163C105.394 121.096 104.556 120.151 104.624 119.031C104.691 117.912 105.636 117.074 106.755 117.141C107.874 117.208 108.712 118.153 108.645 119.273Z" fill="#1B113C"/>
<path d="M93.693 116.399C93.6258 117.519 92.681 118.357 91.5616 118.289C90.4422 118.222 89.6043 117.277 89.6714 116.158C89.7385 115.038 90.6834 114.2 91.8028 114.268C92.9222 114.335 93.7601 115.28 93.693 116.399Z" fill="#1B113C"/>
<path d="M118.13 104.029C118.063 105.148 117.118 105.986 115.999 105.919C114.88 105.852 114.042 104.907 114.109 103.788C114.176 102.668 115.121 101.83 116.24 101.897C117.36 101.965 118.198 102.909 118.13 104.029Z" fill="#1B113C"/>
<path d="M124.987 115.966C124.92 117.086 123.975 117.924 122.856 117.857C121.736 117.79 120.898 116.845 120.965 115.725C121.032 114.606 121.977 113.768 123.097 113.835C124.216 113.902 125.054 114.847 124.987 115.966Z" fill="#1B113C"/>
<path d="M98.6265 110.1C98.5594 111.219 97.6146 112.057 96.4952 111.99C95.3758 111.923 94.5379 110.978 94.605 109.859C94.6721 108.739 95.6169 107.901 96.7363 107.968C97.8557 108.035 98.6937 108.98 98.6265 110.1Z" fill="#1B113C"/>
<path d="M134.443 79.0001C134.376 80.1196 133.431 80.9576 132.312 80.8904C131.192 80.8233 130.354 79.8784 130.421 78.759C130.489 77.6395 131.433 76.8015 132.553 76.8686C133.672 76.9358 134.51 77.8807 134.443 79.0001Z" fill="#1B113C"/>
<path d="M109.071 90.3151C109.004 91.4345 108.059 92.2725 106.94 92.2054C105.82 92.1383 104.982 91.1934 105.049 90.0739C105.116 88.9544 106.061 88.1164 107.181 88.1836C108.3 88.2507 109.138 89.1956 109.071 90.3151Z" fill="#1B113C"/>
<path d="M105.378 108.214C105.31 109.334 104.366 110.172 103.246 110.105C102.127 110.038 101.289 109.093 101.356 107.973C101.423 106.854 102.368 106.016 103.487 106.083C104.607 106.15 105.445 107.095 105.378 108.214Z" fill="#1B113C"/>
<path d="M122.349 82.2282C122.282 83.3476 121.337 84.1856 120.218 84.1185C119.098 84.0513 118.261 83.1065 118.328 81.987C118.395 80.8675 119.34 80.0295 120.459 80.0967C121.578 80.1638 122.416 81.1087 122.349 82.2282Z" fill="#1B113C"/>
<path d="M130.791 95.8624C130.723 96.9819 129.779 97.8199 128.659 97.7528C127.54 97.6856 126.702 96.7407 126.769 95.6213C126.836 94.5018 127.781 93.6638 128.9 93.7309C130.02 93.7981 130.858 94.743 130.791 95.8624Z" fill="#1B113C"/>
<path d="M97.6275 121.898C97.5604 123.018 96.6155 123.856 95.4961 123.788C94.3767 123.721 93.5388 122.776 93.606 121.657C93.6731 120.537 94.6179 119.699 95.7373 119.767C96.8567 119.834 97.6946 120.779 97.6275 121.898Z" fill="#1B113C"/>
<path d="M92.5465 108.091C92.4793 109.21 91.5345 110.048 90.4151 109.981C89.2957 109.914 88.4578 108.969 88.5249 107.85C88.592 106.73 89.5369 105.892 90.6563 105.959C91.7757 106.027 92.6136 106.971 92.5465 108.091Z" fill="#1B113C"/>
<path d="M97.7935 96.5675C97.7264 97.687 96.7816 98.525 95.6622 98.4578C94.5428 98.3907 93.7048 97.4458 93.772 96.3263C93.8391 95.2069 94.784 94.3689 95.9034 94.436C97.0228 94.5032 97.8607 95.448 97.7935 96.5675Z" fill="#1B113C"/>
<path d="M88.3658 128.209C88.2987 129.329 87.3538 130.167 86.2344 130.099C85.115 130.032 84.2771 129.087 84.3442 127.968C84.4114 126.848 85.3562 126.01 86.4756 126.078C87.595 126.145 88.4329 127.09 88.3658 128.209Z" fill="#1B113C"/>
<path d="M142.597 69.2951C142.53 70.4145 141.585 71.2525 140.466 71.1854C139.346 71.1182 138.509 70.1733 138.576 69.0539C138.643 67.9344 139.588 67.0964 140.707 67.1636C141.826 67.2307 142.664 68.1756 142.597 69.2951Z" fill="#1B113C"/>
<path d="M138.648 141.439C138.581 142.559 137.636 143.397 136.517 143.329C135.397 143.262 134.559 142.317 134.626 141.198C134.694 140.078 135.638 139.24 136.758 139.308C137.877 139.375 138.715 140.32 138.648 141.439Z" fill="#1B113C"/>
<path d="M139.898 130.634C139.831 131.753 138.886 132.591 137.767 132.524C136.647 132.457 135.809 131.512 135.876 130.393C135.944 129.273 136.888 128.435 138.008 128.502C139.127 128.57 139.965 129.514 139.898 130.634Z" fill="#1B113C"/>
<path d="M187.133 132.529C187.066 133.649 186.121 134.487 185.002 134.42C183.883 134.353 183.045 133.408 183.112 132.288C183.179 131.169 184.124 130.331 185.243 130.398C186.363 130.465 187.2 131.41 187.133 132.529Z" fill="#1B113C"/>
<path d="M152.308 142.613C153.418 142.679 154.372 141.833 154.439 140.722C154.506 139.612 153.659 138.657 152.549 138.591C151.438 138.524 150.484 139.371 150.417 140.481C150.351 141.592 151.197 142.546 152.308 142.613Z" fill="#1B113C"/>
<path d="M126.106 141.042C127.216 141.108 128.17 140.262 128.237 139.151C128.303 138.041 127.457 137.087 126.347 137.02C125.236 136.953 124.282 137.8 124.215 138.91C124.149 140.021 124.995 140.975 126.106 141.042Z" fill="#1B113C"/>
<path d="M165.274 119.276C165.207 120.395 164.262 121.233 163.143 121.166C162.023 121.099 161.185 120.154 161.252 119.035C161.32 117.915 162.264 117.077 163.384 117.145C164.503 117.212 165.341 118.157 165.274 119.276Z" fill="#1B113C"/>
<path d="M130.171 128.032C130.104 129.151 129.159 129.989 128.04 129.922C126.921 129.855 126.083 128.91 126.15 127.791C126.217 126.671 127.162 125.833 128.281 125.9C129.401 125.968 130.239 126.912 130.171 128.032Z" fill="#1B113C"/>
<path d="M180.758 141.032C180.691 142.151 179.746 142.989 178.627 142.922C177.508 142.855 176.67 141.91 176.737 140.791C176.804 139.671 177.749 138.833 178.868 138.9C179.988 138.968 180.826 139.912 180.758 141.032Z" fill="#1B113C"/>
<path d="M172.002 150.348C171.934 151.467 170.99 152.305 169.87 152.238C168.751 152.171 167.913 151.226 167.98 150.107C168.047 148.987 168.992 148.149 170.111 148.216C171.231 148.283 172.069 149.228 172.002 150.348Z" fill="#1B113C"/>
<path d="M161.532 148.721C161.465 149.84 160.52 150.678 159.4 150.611C158.281 150.544 157.443 149.599 157.51 148.48C157.577 147.36 158.522 146.522 159.642 146.589C160.761 146.656 161.599 147.601 161.532 148.721Z" fill="#1B113C"/>
<path d="M132.788 118.41C132.721 119.53 131.776 120.368 130.656 120.301C129.537 120.233 128.699 119.289 128.766 118.169C128.833 117.05 129.778 116.212 130.897 116.279C132.017 116.346 132.855 117.291 132.788 118.41Z" fill="#1B113C"/>
<path d="M146.654 149.806C146.587 150.925 145.642 151.763 144.523 151.696C143.403 151.629 142.565 150.684 142.632 149.565C142.699 148.445 143.644 147.607 144.764 147.674C145.883 147.741 146.721 148.686 146.654 149.806Z" fill="#1B113C"/>
<path d="M147.668 122.506C147.6 123.626 146.656 124.464 145.536 124.397C144.417 124.33 143.579 123.385 143.646 122.265C143.713 121.146 144.658 120.308 145.777 120.375C146.897 120.442 147.735 121.387 147.668 122.506Z" fill="#1B113C"/>
<path d="M168.082 137.318C168.014 138.437 167.07 139.275 165.95 139.208C164.831 139.141 163.993 138.196 164.06 137.077C164.127 135.957 165.072 135.119 166.191 135.187C167.311 135.254 168.149 136.199 168.082 137.318Z" fill="#1B113C"/>
<path d="M147.204 134.38C147.137 135.499 146.192 136.337 145.072 136.27C143.953 136.203 143.115 135.258 143.182 134.138C143.249 133.019 144.194 132.181 145.314 132.248C146.433 132.315 147.271 133.26 147.204 134.38Z" fill="#1B113C"/>
<path d="M152.274 153.202C153.385 153.269 154.339 152.422 154.406 151.312C154.472 150.201 153.626 149.247 152.516 149.18C151.405 149.114 150.451 149.96 150.384 151.07C150.318 152.181 151.164 153.135 152.274 153.202Z" fill="#1B113C"/>
<path d="M164.818 109.512C165.929 109.578 166.883 108.732 166.95 107.621C167.016 106.511 166.17 105.556 165.06 105.49C163.949 105.423 162.995 106.269 162.928 107.38C162.862 108.491 163.708 109.445 164.818 109.512Z" fill="#1B113C"/>
<path d="M206.139 112.926C206.072 114.045 205.127 114.883 204.008 114.816C202.888 114.749 202.051 113.804 202.118 112.685C202.185 111.565 203.13 110.727 204.249 110.794C205.368 110.862 206.206 111.806 206.139 112.926Z" fill="#1B113C"/>
<path d="M148.253 112.702C148.186 113.821 147.242 114.659 146.122 114.592C145.003 114.525 144.165 113.58 144.232 112.461C144.299 111.341 145.244 110.503 146.363 110.57C147.483 110.637 148.321 111.582 148.253 112.702Z" fill="#1B113C"/>
</g>
<path d="M79.5 43H211.529C236.09 43 256 62.9102 256 87.4706V123.672C256 138.765 243.765 151 228.672 151V151" stroke="#1B113C" stroke-width="2"/>
<path d="M189.5 261L79.4705 261C54.9101 261 35 241.089 35 216.529L35 189.387C35 169.291 51.2911 152.999 71.3873 152.999V152.999" stroke="#1B113C" stroke-width="2"/>
<path d="M81 81H0V0H81V81ZM30.001 25L21 54.459H26.7285L28.5938 48.3213H39.6855L41.5801 54.459H47.3086L38.3066 25H30.001ZM50.1582 25V54.459H55.7227V25H50.1582ZM38.082 43.125H30.1729L34.0967 30.2148L38.082 43.125Z" fill="url(#paint0_linear_4241_7836)"/>
<mask id="path-57-inside-1_4241_7836" fill="white">
<path d="M269 287H188V206H269V287ZM247 250C242.582 250 239 253.582 239 258C239 262.418 242.582 266 247 266C251.418 266 255 262.418 255 258C255 253.582 251.418 250 247 250ZM247 225C242.582 225 239 228.582 239 233C239 237.418 242.582 241 247 241C251.418 241 255 237.418 255 233C255 228.582 251.418 225 247 225Z"/>
</mask>
<path d="M269 287H188V206H269V287ZM247 250C242.582 250 239 253.582 239 258C239 262.418 242.582 266 247 266C251.418 266 255 262.418 255 258C255 253.582 251.418 250 247 250ZM247 225C242.582 225 239 228.582 239 233C239 237.418 242.582 241 247 241C251.418 241 255 237.418 255 233C255 228.582 251.418 225 247 225Z" fill="url(#paint1_linear_4241_7836)"/>
<path d="M269 287V289H271V287H269ZM188 287H186V289H188V287ZM188 206V204H186V206H188ZM269 206H271V204H269V206ZM269 287V285H188V287V289H269V287ZM188 287H190V206H188H186V287H188ZM188 206V208H269V206V204H188V206ZM269 206H267V287H269H271V206H269ZM247 250V248C241.477 248 237 252.477 237 258H239H241C241 254.686 243.686 252 247 252V250ZM239 258H237C237 263.523 241.477 268 247 268V266V264C243.686 264 241 261.314 241 258H239ZM247 266V268C252.523 268 257 263.523 257 258H255H253C253 261.314 250.314 264 247 264V266ZM255 258H257C257 252.477 252.523 248 247 248V250V252C250.314 252 253 254.686 253 258H255ZM247 225V223C241.477 223 237 227.477 237 233H239H241C241 229.686 243.686 227 247 227V225ZM239 233H237C237 238.523 241.477 243 247 243V241V239C243.686 239 241 236.314 241 233H239ZM247 241V243C252.523 243 257 238.523 257 233H255H253C253 236.314 250.314 239 247 239V241ZM255 233H257C257 227.477 252.523 223 247 223V225V227C250.314 227 253 229.686 253 233H255Z" fill="#1B113C" mask="url(#path-57-inside-1_4241_7836)"/>
<path d="M201 234H210.25L230.138 258H238" stroke="#1B113C" stroke-width="2"/>
<path d="M201 258H210.25L230.138 234H238" stroke="#1B113C" stroke-width="2"/>
<rect x="1" y="1" width="79" height="79" stroke="#1B113C" stroke-width="2"/>
<defs>
<linearGradient id="paint0_linear_4241_7836" x1="40.5" y1="0" x2="40.5" y2="81" gradientUnits="userSpaceOnUse">
<stop stop-color="#C3CDFF"/>
<stop offset="1" stop-color="#FCFF35"/>
</linearGradient>
<linearGradient id="paint1_linear_4241_7836" x1="228.5" y1="206" x2="228.5" y2="287" gradientUnits="userSpaceOnUse">
<stop stop-color="#C3CDFF"/>
<stop offset="1" stop-color="#FCFF35"/>
</linearGradient>
</defs>
</svg>
