<svg width="267" height="255" viewBox="0 0 267 255" fill="none" xmlns="http://www.w3.org/2000/svg">
<path d="M185.503 230.157C166.144 245.339 141.749 254.391 115.239 254.391C52.3047 254.391 1.28613 203.373 1.28613 140.438C1.28628 102.379 19.9461 68.6785 48.6152 47.9832L185.503 230.157Z" fill="url(#paint0_radial_4197_444)"/>
<path d="M114.26 27.1035C114.884 27.1035 115.507 27.1102 116.128 27.1201L114.696 116.836L114.683 117.72L115.558 117.842C125.489 119.228 132.881 127.722 132.881 137.75V142.397L133.898 142.38L213.771 141.004L219.59 143.913L219.629 143.929C221.983 144.87 224.263 145.786 226.958 147.515C222.662 206.027 173.84 253.133 114.26 253.133C51.8435 253.133 1.24512 202.534 1.24512 140.118L1.25391 138.657C2.03612 76.9142 52.3312 27.1035 114.26 27.1035Z" stroke="white" stroke-width="2"/>
<line x1="184.809" y1="230.468" x2="47.7867" y2="48.5839" stroke="white" stroke-width="2"/>
<path d="M162.631 77.6647C165.327 64.8561 157.576 56.5979 153.364 54.0699L178.215 2.24561C193.66 10.1105 229.603 32.5818 249.821 59.5472C270.038 86.5127 266.669 116.287 262.457 127.804L162.631 77.6647Z" stroke="white" stroke-width="2"/>
<mask id="mask0_4197_444" style="mask-type:alpha" maskUnits="userSpaceOnUse" x="151" y="0" width="116" height="130">
<path d="M162.215 77.945C164.922 65.0888 157.14 56.7999 152.911 54.2625L177.862 2.24561C193.369 10.1398 229.456 32.6945 249.756 59.7602C270.055 86.826 266.672 116.711 262.443 128.27L162.215 77.945Z" fill="#344579" stroke="white" stroke-width="2"/>
</mask>
<g mask="url(#mask0_4197_444)">
<path d="M226.534 102.645C226.156 102.34 225.915 101.896 225.877 101.417C225.863 101.156 225.879 100.919 225.938 100.692C225.996 100.464 226.109 100.231 226.256 100.05C226.572 99.6564 227.004 99.4304 227.496 99.3775C228.097 99.3129 228.703 99.5517 229.098 100.02C229.189 100.093 229.228 100.2 229.298 100.33C229.364 100.434 229.388 100.528 229.43 100.662C229.469 100.768 229.496 100.889 229.508 100.999C229.56 101.49 229.419 101.975 229.114 102.354C228.968 102.535 228.779 102.707 228.57 102.813C228.36 102.918 228.12 102.999 227.874 103.026C227.75 103.025 227.625 103.025 227.528 103.021C227.389 103.009 227.292 103.005 227.176 102.963C227.034 102.923 226.934 102.892 226.831 102.834C226.725 102.749 226.625 102.718 226.519 102.633L226.534 102.645Z" fill="white"/>
<path d="M223.312 96.2074C223.131 96.0611 222.958 95.8724 222.853 95.6627C222.748 95.453 222.666 95.213 222.64 94.9672C222.614 94.7213 222.645 94.4969 222.703 94.2696C222.774 94.0271 222.887 93.7939 223.033 93.6123C223.106 93.5216 223.18 93.4308 223.283 93.3644C223.368 93.2586 223.475 93.2195 223.593 93.1653C223.697 93.0989 223.803 93.0599 223.924 93.033C224.058 92.991 224.167 92.9792 224.261 92.9553C224.507 92.9288 224.759 92.957 224.986 93.0155C225.341 93.1017 225.653 93.3031 225.891 93.5952C225.958 93.6986 226.009 93.7898 226.075 93.8932C226.145 94.0239 226.169 94.118 226.223 94.2365C226.25 94.358 226.261 94.4672 226.288 94.5887C226.353 95.0653 226.2 95.5653 225.907 95.9284C225.749 96.125 225.572 96.2822 225.35 96.4028C225.141 96.5082 224.901 96.5893 224.667 96.6006C224.53 96.6153 224.406 96.6148 224.309 96.6114C224.182 96.5837 224.084 96.5803 223.942 96.5404C223.827 96.4975 223.727 96.4668 223.624 96.4088C223.494 96.3537 223.418 96.2928 223.312 96.2074Z" fill="white"/>
<path d="M156.17 92.374C156.228 91.373 157.08 90.5629 158.097 90.6333C159.125 90.6885 159.908 91.5438 159.864 92.5571C159.794 93.5732 158.954 94.3682 157.925 94.313C157.522 94.2873 157.162 94.1464 156.859 93.9026C156.42 93.5491 156.14 92.999 156.17 92.374ZM163.546 93.004C163.698 91.979 164.635 91.3118 165.645 91.4519C166.67 91.6042 167.337 92.5411 167.197 93.5509C167.03 94.5637 166.093 95.2309 165.095 95.0756C164.746 95.0441 164.453 94.8822 164.211 94.6872C163.727 94.2971 163.435 93.6377 163.543 92.9767L163.546 93.004ZM170.866 94.2617C171.033 93.2489 171.985 92.5939 172.983 92.7492C174.008 92.9015 174.663 93.8534 174.507 94.8511C174.34 95.8639 173.376 96.534 172.378 96.3788C172.056 96.3442 171.778 96.1946 171.521 95.9874C171.022 95.5851 170.742 94.9106 170.85 94.2495L170.866 94.2617ZM178.213 95.2678C178.284 94.2516 179.166 93.4659 180.185 93.5636C181.202 93.6339 181.972 94.5044 181.89 95.5356C181.804 96.5396 180.933 97.3102 179.917 97.2398C179.526 97.199 179.166 97.0582 178.893 96.8388C178.44 96.4731 178.156 95.8956 178.213 95.2678ZM185.618 95.6459C185.619 94.6235 186.456 93.8012 187.466 93.8169C188.489 93.8175 189.323 94.6396 189.295 95.665C189.294 96.6875 188.472 97.522 187.447 97.4941C187.019 97.4986 186.616 97.3485 186.298 97.0926C185.875 96.7512 185.598 96.2284 185.618 95.6459ZM193.033 95.6085C193.006 94.589 193.813 93.7423 194.803 93.6912C195.822 93.6645 196.681 94.4564 196.708 95.4759C196.749 96.5076 195.942 97.3543 194.938 97.3932C194.498 97.4129 194.053 97.2535 193.72 96.9853C193.311 96.6562 193.04 96.188 193.021 95.6236L193.033 95.6085ZM200.431 95.2828C200.377 94.2662 201.154 93.3951 202.155 93.3289C203.184 93.2597 204.055 94.0365 204.124 95.0653C204.178 96.0819 203.401 96.9529 202.385 97.007C201.905 97.0447 201.46 96.8854 201.112 96.605C200.719 96.2881 200.462 95.832 200.419 95.2979L200.431 95.2828ZM207.839 94.7902C207.785 93.7736 208.546 92.8904 209.575 92.8212C210.577 92.755 211.463 93.5439 211.529 94.5454C211.598 95.5742 210.821 96.4452 209.793 96.5144C209.325 96.537 208.868 96.3928 208.52 96.1124C208.126 95.7955 207.87 95.3395 207.827 94.8053L207.839 94.7902ZM215.249 94.325C215.223 93.3054 216.03 92.4588 217.049 92.4321C218.057 92.4205 218.903 93.2275 218.942 94.2319C218.954 95.2392 218.162 96.0981 217.142 96.1248C216.687 96.1323 216.257 95.9851 215.924 95.7169C215.516 95.3878 215.256 94.9045 215.249 94.325Z" fill="white"/>
<path d="M220.082 89.7855C219.991 89.7124 219.9 89.6393 219.819 89.5237C219.728 89.4506 219.689 89.3442 219.635 89.2257C219.568 89.1223 219.529 89.016 219.502 88.8945C219.46 88.7609 219.448 88.6516 219.409 88.5453C219.395 88.2843 219.426 88.0599 219.485 87.8326C219.543 87.6052 219.656 87.372 219.803 87.1905C220.107 86.8123 220.551 86.5711 221.043 86.5183C221.167 86.5187 221.292 86.5192 221.404 86.5347C221.528 86.5352 221.641 86.5507 221.756 86.5936C221.883 86.6214 221.983 86.6521 222.086 86.7101C222.655 86.9943 223.02 87.5629 223.07 88.1517C223.108 88.6312 222.969 89.1435 222.677 89.5065C222.53 89.688 222.326 89.8481 222.117 89.9536C221.907 90.059 221.682 90.1523 221.436 90.1787C220.957 90.2164 220.445 90.0781 220.082 89.7855Z" fill="white"/>
<path d="M154.516 85.6024C154.271 84.6064 154.912 83.6257 155.911 83.4077C156.907 83.1625 157.888 83.8031 158.105 84.802C158.351 85.7981 157.71 86.7788 156.711 86.9968C156.131 87.1282 155.561 86.9684 155.153 86.6393C154.835 86.3833 154.603 86.0214 154.516 85.6024ZM161.665 84.5022C161.654 83.4948 162.461 82.6482 163.48 82.6214C164.488 82.6098 165.334 83.4168 165.361 84.4364C165.36 85.4588 164.553 86.3055 163.546 86.3171C163.091 86.3246 162.673 86.1623 162.355 85.9063C161.932 85.565 161.672 85.0817 161.665 84.5022ZM168.898 84.5672C168.984 83.5633 169.869 82.8049 170.885 82.8752C171.889 82.9607 172.66 83.8312 172.577 84.8624C172.492 85.8664 171.621 86.637 170.605 86.5666C170.214 86.5258 169.881 86.382 169.593 86.1504C169.14 85.7847 168.856 85.2073 168.898 84.5672ZM176.123 85.0752C176.194 84.0591 177.046 83.249 178.062 83.3194C179.091 83.3746 179.873 84.2299 179.818 85.2582C179.76 86.2593 178.907 87.0694 177.891 86.999C177.488 86.9733 177.115 86.8476 176.813 86.6038C176.374 86.2503 176.106 85.685 176.123 85.0752ZM183.38 85.3588C183.423 84.3456 184.275 83.5355 185.288 83.5786C186.301 83.6216 187.111 84.474 187.068 85.4872C187.025 86.5004 186.2 87.3076 185.187 87.2646C184.771 87.254 184.368 87.1039 184.066 86.8601C183.627 86.5066 183.362 85.9686 183.38 85.3588ZM190.63 85.5878C190.658 84.5624 191.51 83.7523 192.536 83.7802C193.549 83.8233 194.356 84.6483 194.328 85.6738C194.285 86.687 193.448 87.5092 192.422 87.4813C192.019 87.4556 191.631 87.3177 191.313 87.0618C190.89 86.7204 190.597 86.1854 190.63 85.5878ZM197.85 85.7924C197.893 84.7792 198.746 83.9691 199.759 84.0121C200.787 84.0674 201.594 84.8925 201.539 85.9208C201.511 86.9462 200.671 87.7412 199.642 87.6859C199.242 87.6876 198.839 87.5375 198.551 87.3059C198.113 86.9524 197.833 86.4022 197.85 85.7924ZM205.118 86.0609C205.174 85.0326 206.056 84.2468 207.073 84.3172C208.089 84.3875 208.859 85.258 208.789 86.2742C208.734 87.3025 207.863 88.0731 206.847 88.0027C206.459 87.9892 206.083 87.8362 205.796 87.6046C205.357 87.2511 205.074 86.6736 205.118 86.0609ZM212.344 86.5689C212.469 85.5469 213.387 84.8402 214.394 84.953C215.416 85.078 216.138 86.0089 216.01 87.0036C215.885 88.0257 214.951 88.7202 213.959 88.6196C213.595 88.5758 213.29 88.4291 213.032 88.2219C212.563 87.844 212.275 87.2119 212.356 86.5538L212.344 86.5689Z" fill="white"/>
<path d="M191.348 77.3592C190.955 77.0422 190.729 76.6106 190.676 76.1189C190.638 75.6394 190.777 75.1271 191.069 74.7641C191.362 74.4011 191.818 74.1448 192.31 74.0919C193.266 73.9891 194.234 74.7693 194.336 75.7253C194.389 76.217 194.236 76.7171 193.943 77.0801C193.87 77.1709 193.797 77.2617 193.694 77.328C193.608 77.4339 193.502 77.473 193.383 77.5272C193.28 77.5936 193.159 77.6205 193.052 77.6595C192.919 77.7015 192.809 77.7133 192.688 77.7401C192.223 77.7901 191.711 77.6517 191.348 77.3592Z" fill="white"/>
<path d="M153.293 79.3513C152.823 78.4485 153.172 77.3332 154.075 76.8631C154.966 76.4082 156.078 76.7307 156.548 77.6334C157.018 78.5362 156.668 79.6515 155.778 80.1065C155.112 80.4682 154.314 80.3743 153.755 79.9233C153.573 79.7771 153.413 79.5732 153.293 79.3513ZM160.302 76.4422C160.1 75.4555 160.753 74.4596 161.754 74.269C162.756 74.0783 163.737 74.719 163.928 75.7209C164.146 76.7198 163.49 77.6884 162.476 77.8941C161.908 78.0105 161.365 77.8477 160.957 77.5186C160.639 77.2626 160.404 76.8734 160.302 76.4422ZM167.843 75.2584C167.789 74.2418 168.581 73.3829 169.598 73.3289C170.614 73.2749 171.473 74.0667 171.527 75.0833C171.581 76.0999 170.789 76.9588 169.772 77.0128C169.305 77.0354 168.848 76.8912 168.515 76.623C168.106 76.2939 167.862 75.8228 167.831 75.2735L167.843 75.2584ZM175.456 75.0062C175.457 73.9838 176.294 73.1615 177.305 73.1772C178.327 73.1778 179.149 74.0151 179.149 75.0375C179.133 76.0478 178.295 76.8701 177.273 76.8695C176.857 76.8589 176.454 76.7088 176.137 76.4528C175.713 76.1115 175.436 75.5887 175.456 75.0062ZM183.059 75.1697C183.129 74.1536 184 73.383 185.016 73.4533C186.032 73.5237 186.803 74.3941 186.732 75.4103C186.674 76.4113 185.806 77.2092 184.79 77.1389C184.399 77.098 184.038 76.9572 183.751 76.7256C183.297 76.3599 183.017 75.8097 183.059 75.1697Z" fill="white"/>
<path d="M203.108 69.9189C202.715 69.6019 202.489 69.1703 202.436 68.6786C202.383 68.1869 202.524 67.702 202.829 67.3238C203.134 66.9456 203.578 66.7045 204.057 66.6667C205.026 66.5488 205.994 67.3289 206.084 68.3002C206.149 68.7767 205.996 69.2768 205.703 69.6398C205.411 70.0029 204.97 70.2713 204.463 70.312C203.971 70.3649 203.486 70.2236 203.123 69.9311L203.108 69.9189Z" fill="white"/>
<path d="M151.899 73.8358C151.222 73.0658 151.278 71.9131 152.006 71.2269C152.776 70.55 153.928 70.6057 154.614 71.3333C155.303 72.0881 155.235 73.256 154.508 73.9421C153.814 74.5556 152.81 74.5945 152.099 74.0216C152.099 74.0216 151.962 73.9119 151.887 73.8509L151.899 73.8358ZM157.944 69.2759C157.541 68.3521 157.948 67.2582 158.857 66.8428C159.793 66.4244 160.887 66.8318 161.302 67.7404C161.72 68.6764 161.313 69.7702 160.389 70.1735C159.73 70.4655 158.987 70.3657 158.457 69.9391C158.246 69.7684 158.083 69.5373 157.929 69.2637L157.944 69.2759ZM165.029 66.5521C164.799 65.5683 165.425 64.5754 166.408 64.3452C167.404 64.1 168.385 64.7406 168.615 65.7244C168.873 66.7053 168.247 67.6983 167.236 67.9313C166.671 68.075 166.101 67.9152 165.678 67.5739C165.36 67.3179 165.128 66.956 165.029 66.5521ZM172.474 65.1161C172.377 64.0903 173.124 63.1949 174.137 63.1135C175.163 63.017 176.059 63.7635 176.155 64.7894C176.236 65.803 175.49 66.6984 174.476 66.7798C173.984 66.8327 173.512 66.6763 173.164 66.3959C172.77 66.079 172.529 65.6351 172.489 65.1283L172.474 65.1161ZM180.051 64.6606C180.067 63.6503 180.919 62.8402 181.945 62.8681C182.943 62.899 183.765 63.7362 183.737 64.7616C183.694 65.7748 182.869 66.582 181.843 66.5541C181.428 66.5435 181.04 66.4056 180.737 66.1618C180.314 65.8205 180.034 65.2704 180.051 64.6606ZM187.622 65.0485C187.748 64.0264 188.694 63.3168 189.673 63.4325C190.695 63.5575 191.402 64.4763 191.289 65.4832C191.164 66.5052 190.245 67.2119 189.238 67.0991C188.874 67.0554 188.568 66.9086 188.311 66.7014C187.842 66.3235 187.553 65.6914 187.635 65.0333L187.622 65.0485ZM195.134 66.1613C195.331 65.1729 196.314 64.5422 197.317 64.7521C198.321 64.962 198.951 65.9442 198.726 66.9355C198.516 67.939 197.534 68.5697 196.543 68.3447C196.233 68.295 195.997 68.1546 195.77 67.9718C195.241 67.5452 194.973 66.8555 195.134 66.1613Z" fill="white"/>
<path d="M189.862 56.574C189.771 56.5009 189.68 56.4277 189.614 56.3243C189.508 56.239 189.469 56.1327 189.415 56.0141C189.348 55.9108 189.321 55.7893 189.282 55.683C189.24 55.5493 189.229 55.4401 189.205 55.3459C189.178 55.1001 189.207 54.8483 189.265 54.621C189.323 54.3937 189.437 54.1604 189.583 53.9789C189.9 53.5856 190.331 53.3596 190.823 53.3067C191.546 53.2152 192.278 53.6062 192.637 54.2446C192.73 54.4694 192.824 54.6943 192.835 54.928C192.888 55.4197 192.746 55.9046 192.442 56.2828C192.137 56.6609 191.708 56.9143 191.201 56.955C190.722 56.9927 190.21 56.8544 189.847 56.5618L189.862 56.574Z" fill="white"/>
<path d="M150.25 66.3452C150.839 65.5221 152.008 65.3411 152.818 65.9447C153.642 66.5332 153.822 67.702 153.219 68.5129C152.63 69.3361 151.462 69.517 150.638 68.9286L150.563 68.8676C149.806 68.2581 149.659 67.1411 150.25 66.3452ZM155.297 63.4262C154.672 62.623 154.795 61.4493 155.598 60.8241C156.386 60.1867 157.575 60.3213 158.188 61.1397C158.825 61.9277 158.703 63.1015 157.884 63.7145C157.199 64.2855 156.256 64.2488 155.59 63.7124C155.485 63.6271 155.379 63.5418 155.297 63.4262ZM161.192 59.2692C160.762 58.3484 161.142 57.2575 162.032 56.8025C162.95 56.3446 164.056 56.7369 164.499 57.6426C164.929 58.5634 164.564 59.6665 163.659 60.1093C162.99 60.4437 162.232 60.3318 161.703 59.9052C161.506 59.7467 161.316 59.5185 161.192 59.2692ZM167.801 56.3618C167.505 55.399 168.057 54.3724 169.048 54.0725C170.01 53.7755 171.037 54.3283 171.337 55.3185C171.634 56.2813 171.081 57.3079 170.091 57.6078C169.489 57.7968 168.88 57.6551 168.411 57.2772C168.124 57.0456 167.909 56.7232 167.801 56.3618ZM174.813 54.6269C174.705 53.6162 175.448 52.6935 176.459 52.5848C177.47 52.4761 178.377 53.2075 178.486 54.2182C178.61 55.2411 177.866 56.1638 176.84 56.2603C176.348 56.3132 175.848 56.1597 175.5 55.8794C175.122 55.5746 174.896 55.143 174.828 54.6391L174.813 54.6269ZM182.017 54.17C182.088 53.1539 182.943 52.3711 183.956 52.4141C184.973 52.4845 185.77 53.352 185.712 54.353C185.642 55.3692 184.774 56.1671 183.773 56.1089C183.37 56.0832 183.009 55.9424 182.707 55.6986C182.268 55.3451 181.973 54.7827 182.017 54.17Z" fill="white"/>
<path d="M199.865 50.9115C199.472 50.5946 199.246 50.163 199.193 49.6713C199.155 49.1918 199.294 48.6795 199.586 48.3165C199.733 48.1349 199.921 47.9627 200.146 47.8694C200.368 47.7488 200.593 47.6556 200.827 47.6443C200.951 47.6447 201.088 47.63 201.172 47.6485C201.312 47.6612 201.409 47.6645 201.539 47.7196C201.654 47.7625 201.754 47.7932 201.857 47.8512C202.412 48.1232 202.777 48.6918 202.826 49.2806C202.879 49.7723 202.725 50.2724 202.433 50.6354C202.14 50.9985 201.684 51.2548 201.193 51.3076C200.947 51.3341 200.722 51.3029 200.495 51.2445C200.268 51.186 200.035 51.0729 199.853 50.9267L199.865 50.9115Z" fill="white"/>
<path d="M149.098 61.2743C149.584 60.3931 150.738 60.0756 151.595 60.5914C152.491 61.0891 152.793 62.231 152.293 63.1C151.795 63.9963 150.653 64.2987 149.769 63.7858C149.769 63.7858 149.618 63.6639 149.542 63.603C148.846 63.0422 148.643 62.0555 149.111 61.2592L149.098 61.2743ZM153.699 57.671C152.949 56.9918 152.865 55.8264 153.556 55.0612C154.221 54.299 155.401 54.2274 156.151 54.9066C156.913 55.5707 156.985 56.7512 156.305 57.5012C155.638 58.2361 154.515 58.3293 153.759 57.7198L153.684 57.6588L153.699 57.671ZM158.778 52.4826C158.168 51.6916 158.318 50.515 159.136 49.9019C159.94 49.2768 161.116 49.4266 161.729 50.2449C162.327 51.051 162.177 52.2277 161.371 52.8256C160.683 53.3692 159.74 53.3325 159.089 52.8084C158.968 52.7109 158.863 52.6255 158.778 52.4826ZM164.73 48.3471C164.26 47.4443 164.61 46.3291 165.513 45.859C166.404 45.404 167.519 45.7538 167.989 46.6566C168.444 47.5472 168.094 48.6624 167.203 49.1174C166.538 49.4791 165.752 49.3702 165.208 48.9313C165.011 48.7729 164.839 48.5842 164.73 48.3471ZM171.307 45.2636C171.035 44.2705 171.618 43.2683 172.611 42.9957C173.589 42.711 174.606 43.3062 174.879 44.2993C175.148 45.2651 174.553 46.2824 173.575 46.5672C172.983 46.7137 172.389 46.5842 171.935 46.2185C171.632 45.9747 171.418 45.6523 171.307 45.2636ZM178.418 43.8082C178.406 42.8008 179.198 41.942 180.233 41.9275C181.24 41.9159 182.087 42.7229 182.111 43.7151C182.125 44.7497 181.318 45.5964 180.311 45.608C179.871 45.6277 179.44 45.4805 179.108 45.2123C178.699 44.8832 178.425 44.3877 178.418 43.8082ZM185.656 44.0523C185.851 43.0366 186.806 42.4089 187.822 42.6036C188.822 42.7862 189.477 43.7381 189.282 44.7539C189.1 45.7544 188.12 46.4124 187.117 46.2025C186.808 46.1529 186.544 46.0154 186.302 45.8204C185.803 45.4181 185.523 44.7436 185.641 44.0401L185.656 44.0523ZM192.719 45.7521C193.087 44.8007 194.126 44.3159 195.105 44.6804C196.068 45.0328 196.541 46.0872 196.176 47.0659C195.821 48.0022 194.754 48.4899 193.791 48.1376C193.618 48.0733 193.427 47.9694 193.291 47.8597C192.686 47.3721 192.443 46.5278 192.722 45.7794L192.719 45.7521Z" fill="white"/>
<path d="M183.054 35.2694C182.963 35.1962 182.872 35.1231 182.806 35.0197C182.7 34.9344 182.661 34.828 182.607 34.7095C182.54 34.6061 182.501 34.4998 182.474 34.3783C182.42 34.2598 182.421 34.1354 182.397 34.0413C182.344 33.5496 182.497 33.0495 182.79 32.6865C183.083 32.3234 183.539 32.0671 184.03 32.0143C184.971 31.8993 185.954 32.6916 186.057 33.6477C186.095 34.1272 185.956 34.6395 185.664 35.0025C185.371 35.3656 184.915 35.6218 184.424 35.6747C184.299 35.6743 184.178 35.7011 184.078 35.6704C183.938 35.6578 183.826 35.6422 183.711 35.5994C183.584 35.5716 183.484 35.5409 183.381 35.4829C183.275 35.3976 183.175 35.3669 183.069 35.2815L183.054 35.2694Z" fill="white"/>
<path d="M148.163 56.1804C148.603 55.2626 149.706 54.8539 150.624 55.2941C151.541 55.7342 151.938 56.8521 151.495 57.7426C151.054 58.6603 149.952 59.069 149.034 58.6289C148.904 58.5738 148.786 58.5036 148.665 58.4061C148.014 57.8819 147.778 56.9678 148.163 56.1804ZM151.992 49.51C152.553 48.6898 153.716 48.4542 154.551 49.0275C155.386 49.6009 155.607 50.7516 155.048 51.5991C154.475 52.4345 153.324 52.6549 152.489 52.0816C152.489 52.0816 152.413 52.0206 152.368 51.984C151.627 51.3868 151.455 50.3 152.004 49.4949L151.992 49.51ZM156.894 46.1505C156.157 45.4561 156.115 44.3 156.822 43.547C157.516 42.8092 158.672 42.7678 159.425 43.4744C160.163 44.1687 160.192 45.34 159.498 46.0778C158.84 46.7703 157.741 46.8331 157.015 46.248C157.015 46.248 156.925 46.1749 156.894 46.1505ZM162.168 40.9689C161.543 40.1657 161.693 38.989 162.499 38.3911C163.302 37.7659 164.479 37.9157 165.092 38.7341C165.702 39.5251 165.552 40.7017 164.733 41.3147C164.058 41.8433 163.115 41.8066 162.464 41.2824C162.358 41.1971 162.252 41.1118 162.168 40.9689ZM168.173 36.6758C167.73 35.7701 168.095 34.667 168.998 34.1969C169.888 33.7419 171.006 34.119 171.461 35.0096C171.916 35.9002 171.554 37.0306 170.648 37.4734C169.98 37.8078 169.194 37.6988 168.65 37.26C168.468 37.1137 168.293 36.8977 168.17 36.6485L168.173 36.6758ZM175.027 33.8663C174.891 32.8585 175.593 31.9265 176.6 31.7905C177.605 31.6272 178.552 32.3405 178.688 33.3483C178.824 34.3561 178.123 35.2881 177.115 35.4241C176.599 35.5072 176.084 35.3415 175.706 35.0368C175.358 34.7564 175.105 34.3277 175.039 33.8512L175.027 33.8663Z" fill="white"/>
<path d="M201.854 41.0118C201.195 41.8286 200.021 41.9549 199.204 41.2967C198.387 40.6385 198.261 39.4639 198.919 38.647C199.577 37.8301 200.752 37.7038 201.569 38.3621C202.386 39.0203 202.512 40.1949 201.854 41.0118Z" fill="white"/>
<path d="M199.815 30.2894C199.157 31.1062 197.983 31.2325 197.166 30.5743C196.349 29.9161 196.223 28.7414 196.881 27.9246C197.539 27.1077 198.714 26.9814 199.531 27.6397C200.347 28.2979 200.474 29.4725 199.815 30.2894Z" fill="white"/>
<path d="M189.978 19.9898C189.319 20.8067 188.145 20.933 187.328 20.2747C186.511 19.6165 186.385 18.4419 187.043 17.625C187.701 16.8082 188.876 16.6819 189.693 17.3401C190.51 17.9984 190.636 19.173 189.978 19.9898Z" fill="white"/>
<path d="M215.313 23.8145C214.654 24.6314 213.48 24.7577 212.663 24.0994C211.846 23.4412 211.72 22.2666 212.378 21.4497C213.036 20.6329 214.211 20.5066 215.028 21.1648C215.845 21.8231 215.971 22.9977 215.313 23.8145Z" fill="white"/>
<path d="M214.064 36.6322C213.406 37.449 212.232 37.5753 211.415 36.9171C210.598 36.2588 210.472 35.0842 211.13 34.2674C211.788 33.4505 212.963 33.3242 213.78 33.9825C214.597 34.6407 214.723 35.8153 214.064 36.6322Z" fill="white"/>
<path d="M197.154 17.8643C196.496 18.6812 195.321 18.8075 194.505 18.1492C193.688 17.491 193.562 16.3164 194.22 15.4995C194.878 14.6827 196.053 14.5564 196.87 15.2146C197.686 15.8729 197.813 17.0475 197.154 17.8643Z" fill="white"/>
<path d="M241.32 13.5848C240.662 14.4016 239.487 14.5279 238.671 13.8697C237.854 13.2115 237.728 12.0368 238.386 11.22C239.044 10.4031 240.219 10.2768 241.036 10.9351C241.852 11.5933 241.979 12.7679 241.32 13.5848Z" fill="white"/>
<path d="M215.846 8.44881C215.187 9.26567 214.013 9.39197 213.196 8.73372C212.379 8.07548 212.253 6.90086 212.911 6.08401C213.57 5.26716 214.744 5.14086 215.561 5.7991C216.378 6.45735 216.504 7.63196 215.846 8.44881Z" fill="white"/>
<path d="M203.323 20.0889C202.665 20.9058 201.49 21.0321 200.674 20.3739C199.857 19.7156 199.731 18.541 200.389 17.7241C201.047 16.9073 202.222 16.781 203.039 17.4392C203.855 18.0975 203.982 19.2721 203.323 20.0889Z" fill="white"/>
<path d="M230.352 9.48616C229.693 10.303 228.519 10.4293 227.702 9.77107C226.885 9.11283 226.759 7.93822 227.417 7.12136C228.075 6.30451 229.25 6.17821 230.067 6.83645C230.884 7.4947 231.01 8.6693 230.352 9.48616Z" fill="white"/>
<path d="M229.392 24.4564C228.733 25.2732 227.559 25.3995 226.742 24.7413C225.925 24.083 225.799 22.9084 226.457 22.0916C227.115 21.2747 228.29 21.1484 229.107 21.8067C229.924 22.4649 230.05 23.6395 229.392 24.4564Z" fill="white"/>
<path d="M189.995 26.3155C189.337 27.1324 188.162 27.2587 187.345 26.6004C186.529 25.9422 186.402 24.7676 187.061 23.9507C187.719 23.1339 188.894 23.0075 189.71 23.6658C190.527 24.324 190.653 25.4986 189.995 26.3155Z" fill="white"/>
<path d="M193.61 13.0362C192.952 13.8531 191.777 13.9794 190.961 13.3211C190.144 12.6629 190.018 11.4883 190.676 10.6714C191.334 9.85456 192.509 9.72826 193.326 10.3865C194.142 11.0447 194.269 12.2194 193.61 13.0362Z" fill="white"/>
<path d="M181.867 17.7945C181.209 18.6114 180.034 18.7377 179.217 18.0794C178.401 17.4212 178.274 16.2466 178.933 15.4297C179.591 14.6129 180.766 14.4866 181.582 15.1448C182.399 15.803 182.525 16.9777 181.867 17.7945Z" fill="white"/>
<path d="M203.858 7.09871C203.2 7.91556 202.026 8.04187 201.209 7.38362C200.392 6.72538 200.266 5.55076 200.924 4.73391C201.582 3.91706 202.757 3.79076 203.574 4.449C204.39 5.10725 204.517 6.28185 203.858 7.09871Z" fill="white"/>
<path d="M169.965 29.5614C170.775 30.2144 171.961 30.0868 172.614 29.2764C173.267 28.4661 173.14 27.2798 172.33 26.6267C171.519 25.9737 170.333 26.1013 169.68 26.9116C169.027 27.722 169.154 28.9083 169.965 29.5614Z" fill="white"/>
<path d="M179.513 26.1024C178.854 26.9192 177.68 27.0455 176.863 26.3873C176.046 25.729 175.92 24.5544 176.578 23.7376C177.237 22.9207 178.411 22.7944 179.228 23.4527C180.045 24.1109 180.171 25.2855 179.513 26.1024Z" fill="white"/>
<path d="M252.799 10.6094C252.141 11.4263 250.966 11.5526 250.149 10.8944C249.332 10.2361 249.206 9.06151 249.864 8.24465C250.523 7.4278 251.697 7.3015 252.514 7.95975C253.331 8.61799 253.457 9.79259 252.799 10.6094Z" fill="white"/>
<path d="M210.663 63.4559C210.005 64.2727 208.83 64.399 208.013 63.7408C207.197 63.0826 207.07 61.9079 207.729 61.0911C208.387 60.2742 209.562 60.1479 210.378 60.8062C211.195 61.4644 211.321 62.639 210.663 63.4559Z" fill="white"/>
<path d="M217.476 55.8983C216.817 56.7151 215.643 56.8414 214.826 56.1832C214.009 55.5249 213.883 54.3503 214.541 53.5335C215.199 52.7166 216.374 52.5903 217.191 53.2486C218.008 53.9068 218.134 55.0814 217.476 55.8983Z" fill="white"/>
<path d="M252.451 82.9603C251.793 83.7771 250.618 83.9034 249.801 83.2452C248.985 82.5869 248.858 81.4123 249.517 80.5955C250.175 79.7786 251.35 79.6523 252.166 80.3106C252.983 80.9688 253.109 82.1434 252.451 82.9603Z" fill="white"/>
<path d="M220.438 71.7589C221.249 72.4119 222.435 72.2843 223.088 71.4739C223.741 70.6636 223.613 69.4773 222.803 68.8242C221.993 68.1712 220.807 68.2988 220.153 69.1092C219.5 69.9195 219.628 71.1058 220.438 71.7589Z" fill="white"/>
<path d="M201.319 56.3511C202.129 57.0042 203.316 56.8766 203.969 56.0662C204.622 55.2559 204.494 54.0695 203.684 53.4165C202.874 52.7635 201.687 52.8911 201.034 53.7014C200.381 54.5118 200.509 55.6981 201.319 56.3511Z" fill="white"/>
<path d="M242.978 61.0035C242.319 61.8204 241.145 61.9467 240.328 61.2884C239.511 60.6302 239.385 59.4555 240.043 58.6387C240.701 57.8218 241.876 57.6955 242.693 58.3538C243.51 59.012 243.636 60.1866 242.978 61.0035Z" fill="white"/>
<path d="M211.474 48.6402C210.815 49.4571 209.641 49.5834 208.824 48.9251C208.007 48.2669 207.881 47.0923 208.539 46.2754C209.197 45.4586 210.372 45.3323 211.189 45.9905C212.006 46.6487 212.132 47.8234 211.474 48.6402Z" fill="white"/>
<path d="M242.98 85.9825C242.322 86.7994 241.148 86.9257 240.331 86.2674C239.514 85.6092 239.388 84.4345 240.046 83.6177C240.704 82.8008 241.879 82.6745 242.696 83.3328C243.513 83.991 243.639 85.1656 242.98 85.9825Z" fill="white"/>
<path d="M231.254 88.3348C230.596 89.1516 229.421 89.2779 228.604 88.6197C227.787 87.9615 227.661 86.7869 228.319 85.97C228.978 85.1531 230.152 85.0268 230.969 85.6851C231.786 86.3433 231.912 87.5179 231.254 88.3348Z" fill="white"/>
<path d="M224.155 81.4163C223.497 82.2332 222.322 82.3595 221.506 81.7012C220.689 81.043 220.563 79.8684 221.221 79.0515C221.879 78.2347 223.054 78.1084 223.871 78.7666C224.687 79.4249 224.814 80.5995 224.155 81.4163Z" fill="white"/>
<path d="M218.686 42.7252C218.027 43.542 216.853 43.6683 216.036 43.0101C215.219 42.3518 215.093 41.1772 215.751 40.3604C216.409 39.5435 217.584 39.4172 218.401 40.0755C219.218 40.7337 219.344 41.9083 218.686 42.7252Z" fill="white"/>
<path d="M212.228 74.1746C211.569 74.9915 210.395 75.1178 209.578 74.4595C208.761 73.8013 208.635 72.6267 209.293 71.8098C209.951 70.993 211.126 70.8667 211.943 71.5249C212.76 72.1832 212.886 73.3578 212.228 74.1746Z" fill="white"/>
<path d="M227.806 53.9168C227.147 54.7337 225.973 54.86 225.156 54.2017C224.339 53.5435 224.213 52.3689 224.871 51.552C225.53 50.7352 226.704 50.6089 227.521 51.2671C228.338 51.9254 228.464 53.1 227.806 53.9168Z" fill="white"/>
<path d="M235.332 76.2772C234.674 77.094 233.499 77.2203 232.682 76.5621C231.866 75.9039 231.739 74.7292 232.398 73.9124C233.056 73.0955 234.23 72.9692 235.047 73.6275C235.864 74.2857 235.99 75.4603 235.332 76.2772Z" fill="white"/>
<path d="M221.013 62.7152C220.354 63.532 219.18 63.6583 218.363 63.0001C217.546 62.3418 217.42 61.1672 218.078 60.3504C218.737 59.5335 219.911 59.4072 220.728 60.0655C221.545 60.7237 221.671 61.8983 221.013 62.7152Z" fill="white"/>
<path d="M214.67 79.8116C215.48 80.4646 216.666 80.3371 217.319 79.5267C217.972 78.7163 217.845 77.53 217.035 76.877C216.224 76.224 215.038 76.3515 214.385 77.1619C213.732 77.9723 213.859 79.1586 214.67 79.8116Z" fill="white"/>
<path d="M247.926 53.3138C248.736 53.9668 249.922 53.8393 250.575 53.0289C251.228 52.2185 251.101 51.0322 250.29 50.3792C249.48 49.7262 248.294 49.8537 247.641 50.6641C246.988 51.4745 247.115 52.6608 247.926 53.3138Z" fill="white"/>
<path d="M172.927 1.05745C172.268 1.8743 171.094 2.0006 170.277 1.34235C169.46 0.684111 169.334 -0.490494 169.992 -1.30735C170.651 -2.1242 171.825 -2.25051 172.642 -1.59227C173.459 -0.934022 173.585 0.240594 172.927 1.05745Z" fill="white"/>
<path d="M233.569 46.7623C232.911 47.5791 231.736 47.7054 230.92 47.0472C230.103 46.3889 229.977 45.2143 230.635 44.3975C231.293 43.5806 232.468 43.4543 233.285 44.1126C234.101 44.7708 234.228 45.9454 233.569 46.7623Z" fill="white"/>
</g>
<path d="M147.075 106.367L161.841 78.0588C161.925 77.8986 161.987 77.7245 162.023 77.5474C164.586 64.944 157.254 57.2243 152.606 54.3062L136.937 80.8669C136.413 81.756 136.659 82.8939 137.453 83.5536C146.358 90.9521 147.614 101.709 147.075 106.367Z" stroke="white" stroke-width="2"/>
<path d="M244.749 156.522L149.025 107.498C148.04 106.994 147.652 105.785 148.159 104.802L161.177 79.5426C161.679 78.5685 162.872 78.1798 163.851 78.671L260.731 127.251C261.746 127.76 262.134 129.011 261.586 130.005L247.412 155.708C246.89 156.654 245.711 157.015 244.749 156.522Z" stroke="white" stroke-width="2"/>
<defs>
<radialGradient id="paint0_radial_4197_444" cx="0" cy="0" r="1" gradientUnits="userSpaceOnUse" gradientTransform="translate(48.1791 51.9136) rotate(53.739) scale(156.992 279.804)">
<stop stop-color="#FCFF35"/>
<stop offset="1" stop-color="#C3CDFF"/>
</radialGradient>
</defs>
</svg>
