<svg width="340" height="231" viewBox="0 0 340 231" fill="none" xmlns="http://www.w3.org/2000/svg">
<path d="M134 205.551H299.009V177M120 205.551H1.08789V1.01978H299.009V59.5002" stroke="white" stroke-width="2"/>
<mask id="mask0_4197_271" style="mask-type:alpha" maskUnits="userSpaceOnUse" x="1" y="1" width="299" height="205">
<rect x="2.08789" y="2.02002" width="295.921" height="202.531" fill="#2B110E" stroke="white" stroke-width="2"/>
</mask>
<g mask="url(#mask0_4197_271)">
<path d="M166.987 224.089C167.038 223.209 167.788 222.496 168.682 222.558C169.586 222.607 170.275 223.359 170.237 224.25C170.175 225.144 169.436 225.843 168.532 225.794C168.177 225.772 167.86 225.648 167.594 225.434C167.208 225.123 166.961 224.639 166.987 224.089ZM173.475 224.643C173.609 223.742 174.433 223.155 175.321 223.278C176.223 223.412 176.81 224.236 176.686 225.124C176.539 226.015 175.715 226.602 174.838 226.465C174.531 226.437 174.272 226.295 174.06 226.124C173.634 225.781 173.377 225.201 173.473 224.619L173.475 224.643ZM179.913 225.749C180.06 224.859 180.898 224.282 181.775 224.419C182.677 224.553 183.253 225.39 183.116 226.268C182.969 227.159 182.121 227.748 181.243 227.611C180.961 227.581 180.716 227.449 180.489 227.267C180.05 226.913 179.804 226.32 179.9 225.739L179.913 225.749ZM186.376 226.634C186.438 225.74 187.214 225.049 188.111 225.135C189.004 225.197 189.682 225.963 189.609 226.87C189.534 227.753 188.768 228.431 187.875 228.369C187.531 228.333 187.213 228.209 186.974 228.016C186.575 227.694 186.326 227.186 186.376 226.634ZM192.889 226.967C192.889 226.068 193.626 225.344 194.514 225.358C195.414 225.359 196.147 226.082 196.123 226.984C196.122 227.883 195.399 228.617 194.497 228.592C194.121 228.596 193.767 228.464 193.487 228.239C193.115 227.939 192.871 227.479 192.889 226.967ZM199.411 226.934C199.387 226.037 200.097 225.293 200.967 225.248C201.864 225.224 202.619 225.921 202.643 226.817C202.68 227.725 201.97 228.469 201.086 228.504C200.699 228.521 200.307 228.381 200.015 228.145C199.656 227.855 199.417 227.444 199.4 226.947L199.411 226.934ZM205.918 226.647C205.87 225.753 206.553 224.987 207.434 224.929C208.339 224.868 209.105 225.551 209.166 226.456C209.214 227.35 208.53 228.116 207.636 228.164C207.214 228.197 206.823 228.057 206.517 227.81C206.171 227.532 205.945 227.131 205.907 226.661L205.918 226.647ZM212.433 226.214C212.386 225.32 213.056 224.543 213.961 224.482C214.841 224.424 215.621 225.118 215.679 225.999C215.74 226.904 215.057 227.67 214.152 227.731C213.741 227.751 213.338 227.624 213.032 227.377C212.686 227.098 212.461 226.697 212.423 226.228L212.433 226.214ZM218.951 225.805C218.928 224.908 219.638 224.164 220.534 224.14C221.42 224.13 222.165 224.84 222.199 225.723C222.209 226.609 221.513 227.365 220.616 227.388C220.216 227.395 219.837 227.265 219.545 227.029C219.185 226.74 218.958 226.315 218.951 225.805Z" fill="white"/>
<path d="M165.533 218.133C165.317 217.257 165.881 216.394 166.76 216.203C167.636 215.987 168.498 216.551 168.69 217.429C168.906 218.305 168.342 219.168 167.463 219.36C166.953 219.475 166.452 219.335 166.093 219.045C165.813 218.82 165.609 218.502 165.533 218.133ZM171.821 217.165C171.811 216.279 172.521 215.535 173.417 215.511C174.303 215.501 175.048 216.211 175.072 217.108C175.071 218.007 174.361 218.752 173.475 218.762C173.075 218.768 172.707 218.626 172.428 218.4C172.055 218.1 171.827 217.675 171.821 217.165ZM178.183 217.223C178.258 216.34 179.037 215.673 179.931 215.734C180.814 215.81 181.491 216.575 181.419 217.482C181.343 218.365 180.578 219.043 179.684 218.981C179.34 218.945 179.047 218.819 178.794 218.615C178.395 218.293 178.146 217.786 178.183 217.223ZM184.538 217.669C184.6 216.776 185.349 216.063 186.243 216.125C187.148 216.174 187.836 216.926 187.787 217.83C187.736 218.711 186.986 219.423 186.093 219.362C185.738 219.339 185.41 219.228 185.144 219.014C184.758 218.703 184.522 218.206 184.538 217.669ZM190.92 217.919C190.958 217.028 191.708 216.315 192.599 216.353C193.49 216.391 194.202 217.141 194.164 218.032C194.127 218.923 193.401 219.633 192.51 219.595C192.144 219.586 191.79 219.454 191.524 219.239C191.138 218.928 190.905 218.455 190.92 217.919ZM197.297 218.12C197.322 217.218 198.071 216.506 198.973 216.53C199.864 216.568 200.574 217.294 200.55 218.196C200.512 219.087 199.775 219.81 198.873 219.786C198.519 219.763 198.178 219.642 197.898 219.417C197.526 219.117 197.268 218.646 197.297 218.12ZM203.648 218.3C203.685 217.409 204.435 216.697 205.326 216.734C206.231 216.783 206.941 217.509 206.892 218.413C206.868 219.315 206.128 220.014 205.224 219.966C204.872 219.967 204.517 219.835 204.265 219.631C203.879 219.32 203.632 218.837 203.648 218.3ZM210.041 218.536C210.089 217.632 210.866 216.941 211.759 217.003C212.653 217.065 213.331 217.83 213.269 218.724C213.22 219.628 212.455 220.306 211.561 220.244C211.219 220.232 210.889 220.098 210.636 219.894C210.25 219.583 210.001 219.075 210.041 218.536ZM216.395 218.983C216.505 218.084 217.314 217.463 218.199 217.562C219.098 217.672 219.733 218.491 219.62 219.366C219.51 220.265 218.689 220.875 217.817 220.787C217.497 220.748 217.228 220.619 217.001 220.437C216.589 220.105 216.335 219.549 216.406 218.97L216.395 218.983Z" fill="white"/>
<path d="M164.456 212.634C164.043 211.84 164.351 210.859 165.145 210.446C165.928 210.046 166.906 210.329 167.32 211.123C167.733 211.917 167.425 212.898 166.642 213.299C166.057 213.617 165.355 213.534 164.863 213.137C164.703 213.009 164.562 212.83 164.456 212.634ZM170.622 210.076C170.444 209.208 171.018 208.332 171.899 208.164C172.78 207.996 173.643 208.56 173.81 209.441C174.002 210.32 173.425 211.172 172.533 211.353C172.034 211.455 171.557 211.312 171.198 211.022C170.918 210.797 170.711 210.455 170.622 210.076ZM177.254 209.034C177.207 208.14 177.903 207.385 178.798 207.337C179.692 207.29 180.447 207.986 180.494 208.88C180.542 209.775 179.845 210.53 178.951 210.578C178.54 210.597 178.138 210.471 177.845 210.235C177.486 209.945 177.271 209.531 177.244 209.048L177.254 209.034ZM183.951 208.813C183.951 207.913 184.688 207.19 185.576 207.204C186.475 207.204 187.199 207.941 187.198 208.84C187.184 209.729 186.448 210.452 185.548 210.451C185.183 210.442 184.828 210.31 184.549 210.085C184.177 209.785 183.933 209.325 183.951 208.813ZM190.637 208.956C190.699 208.063 191.465 207.385 192.359 207.447C193.253 207.509 193.93 208.274 193.868 209.168C193.817 210.048 193.054 210.75 192.16 210.688C191.816 210.652 191.499 210.529 191.246 210.325C190.847 210.003 190.601 209.519 190.637 208.956Z" fill="white"/>
<path d="M208.274 204.338C207.929 204.06 207.73 203.68 207.683 203.248C207.637 202.815 207.761 202.389 208.029 202.056C208.297 201.723 208.688 201.511 209.109 201.478C209.961 201.374 210.812 202.06 210.892 202.915C210.949 203.334 210.814 203.774 210.557 204.093C210.3 204.412 209.912 204.649 209.466 204.684C209.034 204.731 208.607 204.607 208.288 204.349L208.274 204.338Z" fill="white"/>
<path d="M163.23 207.784C162.634 207.107 162.683 206.093 163.323 205.489C164.001 204.894 165.015 204.943 165.618 205.583C166.224 206.247 166.164 207.274 165.524 207.878C164.914 208.417 164.031 208.451 163.405 207.947C163.405 207.947 163.286 207.851 163.219 207.797L163.23 207.784ZM168.547 203.773C168.192 202.961 168.55 201.999 169.35 201.633C170.173 201.265 171.135 201.624 171.5 202.423C171.868 203.246 171.51 204.208 170.697 204.563C170.117 204.82 169.464 204.732 168.998 204.357C168.812 204.207 168.669 204.003 168.533 203.763L168.547 203.773ZM174.778 201.378C174.576 200.512 175.126 199.639 175.992 199.437C176.868 199.221 177.73 199.784 177.933 200.65C178.159 201.512 177.609 202.386 176.719 202.591C176.223 202.717 175.721 202.577 175.349 202.276C175.069 202.051 174.865 201.733 174.778 201.378ZM181.326 200.115C181.241 199.212 181.898 198.425 182.79 198.353C183.692 198.268 184.479 198.925 184.564 199.827C184.636 200.719 183.979 201.506 183.088 201.578C182.655 201.624 182.239 201.487 181.933 201.24C181.587 200.961 181.375 200.571 181.34 200.125L181.326 200.115ZM187.991 199.714C188.005 198.825 188.755 198.113 189.657 198.137C190.534 198.164 191.258 198.901 191.233 199.803C191.195 200.694 190.469 201.404 189.568 201.379C189.202 201.37 188.861 201.249 188.595 201.034C188.222 200.734 187.976 200.25 187.991 199.714ZM194.651 200.055C194.761 199.156 195.593 198.532 196.454 198.634C197.353 198.744 197.975 199.552 197.875 200.437C197.765 201.336 196.957 201.958 196.072 201.859C195.752 201.82 195.483 201.691 195.256 201.509C194.844 201.177 194.59 200.621 194.661 200.042L194.651 200.055ZM201.257 201.034C201.431 200.165 202.295 199.61 203.178 199.794C204.06 199.979 204.615 200.843 204.417 201.715C204.232 202.598 203.368 203.152 202.496 202.954C202.224 202.911 202.017 202.787 201.817 202.626C201.351 202.251 201.116 201.644 201.257 201.034Z" fill="white"/>
<path d="M196.622 192.6C196.542 192.536 196.462 192.472 196.404 192.381C196.31 192.306 196.276 192.212 196.228 192.108C196.17 192.017 196.146 191.91 196.112 191.817C196.075 191.699 196.065 191.603 196.044 191.52C196.02 191.304 196.045 191.083 196.097 190.883C196.148 190.683 196.248 190.478 196.376 190.318C196.655 189.972 197.035 189.773 197.467 189.727C198.103 189.646 198.747 189.99 199.063 190.552C199.145 190.749 199.227 190.947 199.237 191.153C199.283 191.585 199.159 192.012 198.891 192.344C198.623 192.677 198.246 192.9 197.8 192.936C197.378 192.969 196.928 192.847 196.608 192.59L196.622 192.6Z" fill="white"/>
<path d="M161.782 201.196C162.3 200.472 163.328 200.313 164.041 200.844C164.765 201.361 164.924 202.389 164.393 203.103C163.875 203.827 162.847 203.986 162.123 203.468L162.057 203.415C161.392 202.878 161.262 201.896 161.782 201.196ZM166.221 198.628C165.671 197.922 165.779 196.89 166.486 196.34C167.179 195.779 168.224 195.898 168.763 196.617C169.324 197.31 169.216 198.343 168.496 198.882C167.894 199.384 167.064 199.352 166.479 198.88C166.386 198.805 166.293 198.73 166.221 198.628ZM171.406 194.972C171.027 194.162 171.362 193.203 172.145 192.803C172.952 192.4 173.925 192.745 174.315 193.541C174.693 194.351 174.372 195.322 173.576 195.711C172.987 196.005 172.321 195.907 171.855 195.532C171.682 195.392 171.515 195.191 171.406 194.972ZM177.219 192.415C176.958 191.568 177.444 190.665 178.315 190.401C179.162 190.14 180.065 190.626 180.329 191.497C180.59 192.344 180.104 193.247 179.233 193.511C178.704 193.677 178.168 193.552 177.755 193.22C177.503 193.016 177.314 192.733 177.219 192.415ZM183.387 190.889C183.291 190 183.945 189.188 184.834 189.093C185.723 188.997 186.521 189.641 186.617 190.529C186.726 191.429 186.072 192.241 185.169 192.326C184.737 192.372 184.297 192.237 183.991 191.991C183.658 191.723 183.46 191.343 183.4 190.9L183.387 190.889ZM189.723 190.487C189.785 189.593 190.537 188.905 191.429 188.943C192.322 189.005 193.024 189.768 192.973 190.648C192.911 191.542 192.148 192.244 191.267 192.193C190.913 192.17 190.595 192.046 190.329 191.832C189.944 191.521 189.684 191.026 189.723 190.487Z" fill="white"/>
<path d="M205.42 187.62C205.074 187.341 204.875 186.962 204.829 186.529C204.796 186.108 204.917 185.657 205.175 185.338C205.303 185.178 205.469 185.026 205.667 184.944C205.862 184.838 206.06 184.756 206.266 184.746C206.375 184.747 206.495 184.734 206.57 184.75C206.692 184.761 206.778 184.764 206.892 184.813C206.994 184.85 207.082 184.877 207.172 184.928C207.66 185.168 207.981 185.668 208.024 186.186C208.071 186.618 207.936 187.058 207.678 187.377C207.421 187.697 207.02 187.922 206.588 187.969C206.371 187.992 206.174 187.964 205.974 187.913C205.774 187.862 205.569 187.762 205.409 187.633L205.42 187.62Z" fill="white"/>
<path d="M160.768 196.735C161.195 195.96 162.21 195.681 162.963 196.134C163.752 196.572 164.017 197.576 163.577 198.341C163.139 199.129 162.135 199.395 161.357 198.944C161.357 198.944 161.224 198.837 161.158 198.783C160.546 198.29 160.367 197.422 160.778 196.722L160.768 196.735ZM164.814 193.566C164.154 192.968 164.081 191.943 164.689 191.27C165.273 190.6 166.311 190.537 166.971 191.134C167.641 191.718 167.704 192.757 167.107 193.416C166.52 194.063 165.532 194.145 164.867 193.609L164.801 193.555L164.814 193.566ZM169.281 189.002C168.745 188.306 168.877 187.272 169.597 186.732C170.303 186.182 171.338 186.314 171.877 187.034C172.403 187.743 172.271 188.778 171.562 189.304C170.957 189.782 170.127 189.75 169.555 189.289C169.449 189.203 169.356 189.128 169.281 189.002ZM174.517 185.365C174.104 184.571 174.411 183.59 175.205 183.176C175.989 182.776 176.97 183.084 177.383 183.878C177.783 184.661 177.475 185.642 176.692 186.042C176.107 186.36 175.416 186.265 174.937 185.879C174.764 185.739 174.612 185.573 174.517 185.365ZM180.302 182.653C180.062 181.779 180.575 180.898 181.448 180.658C182.308 180.407 183.203 180.931 183.443 181.804C183.68 182.654 183.156 183.549 182.296 183.799C181.775 183.928 181.253 183.814 180.854 183.493C180.587 183.278 180.399 182.995 180.302 182.653ZM186.556 181.373C186.546 180.487 187.242 179.731 188.152 179.718C189.038 179.708 189.783 180.418 189.804 181.291C189.817 182.201 189.107 182.945 188.221 182.956C187.834 182.973 187.455 182.843 187.163 182.608C186.803 182.318 186.562 181.882 186.556 181.373ZM192.922 181.587C193.094 180.694 193.934 180.142 194.827 180.313C195.707 180.474 196.283 181.311 196.112 182.204C195.951 183.084 195.09 183.663 194.207 183.478C193.935 183.435 193.703 183.314 193.49 183.142C193.051 182.789 192.805 182.195 192.909 181.576L192.922 181.587ZM199.135 183.082C199.458 182.246 200.372 181.819 201.233 182.14C202.08 182.45 202.496 183.377 202.175 184.238C201.863 185.061 200.925 185.49 200.077 185.18C199.925 185.124 199.757 185.033 199.638 184.936C199.106 184.507 198.892 183.765 199.137 183.106L199.135 183.082Z" fill="white"/>
<path d="M158.695 204.699C158.362 204.431 158.139 204.053 158.104 203.608C158.06 203.199 158.181 202.749 158.449 202.416C158.717 202.083 159.108 201.871 159.53 201.838C160.082 201.779 160.604 202.002 160.963 202.401C161.043 202.465 161.077 202.559 161.125 202.663C161.183 202.754 161.207 202.861 161.255 202.965C161.278 203.072 161.289 203.168 161.312 203.275C161.323 203.371 161.336 203.491 161.309 203.579C161.308 203.688 161.294 203.787 161.257 203.888C161.232 204 161.205 204.088 161.144 204.192C161.106 204.294 161.042 204.373 160.977 204.453C160.698 204.799 160.319 204.998 159.886 205.044C159.766 205.057 159.67 205.068 159.582 205.041C159.459 205.03 159.361 205.016 159.249 204.991C159.147 204.954 159.059 204.927 158.969 204.876C158.854 204.827 158.788 204.774 158.695 204.699Z" fill="white"/>
<path d="M190.633 173.862C190.553 173.798 190.473 173.733 190.414 173.642C190.321 173.567 190.287 173.474 190.239 173.369C190.181 173.279 190.147 173.185 190.123 173.078C190.075 172.974 190.076 172.865 190.055 172.782C190.008 172.349 190.143 171.909 190.401 171.59C190.658 171.271 191.059 171.045 191.491 170.999C192.319 170.898 193.184 171.595 193.274 172.436C193.307 172.857 193.186 173.308 192.928 173.627C192.671 173.946 192.27 174.172 191.837 174.218C191.728 174.218 191.621 174.242 191.533 174.215C191.411 174.204 191.312 174.19 191.211 174.152C191.099 174.128 191.011 174.101 190.92 174.05C190.827 173.975 190.739 173.948 190.646 173.873L190.633 173.862Z" fill="white"/>
<path d="M159.946 192.254C160.333 191.447 161.303 191.087 162.11 191.474C162.917 191.862 163.266 192.845 162.876 193.628C162.489 194.435 161.519 194.795 160.712 194.408C160.597 194.359 160.493 194.297 160.387 194.212C159.815 193.751 159.607 192.947 159.946 192.254ZM163.313 186.387C163.807 185.666 164.83 185.458 165.564 185.963C166.299 186.467 166.493 187.479 166.002 188.225C165.497 188.959 164.485 189.153 163.751 188.649C163.751 188.649 163.684 188.595 163.644 188.563C162.992 188.038 162.841 187.082 163.324 186.374L163.313 186.387ZM167.626 183.432C166.977 182.821 166.94 181.805 167.562 181.142C168.173 180.493 169.189 180.457 169.852 181.078C170.501 181.689 170.526 182.719 169.915 183.368C169.337 183.977 168.371 184.033 167.732 183.518C167.732 183.518 167.652 183.454 167.626 183.432ZM172.264 178.875C171.714 178.168 171.846 177.133 172.555 176.607C173.261 176.057 174.296 176.189 174.835 176.909C175.372 177.605 175.24 178.64 174.52 179.179C173.926 179.644 173.097 179.611 172.524 179.15C172.431 179.075 172.338 179 172.264 178.875ZM177.545 175.099C177.156 174.302 177.477 173.332 178.271 172.918C179.054 172.518 180.038 172.85 180.438 173.633C180.838 174.416 180.52 175.411 179.723 175.8C179.135 176.094 178.444 175.998 177.965 175.612C177.805 175.484 177.651 175.294 177.543 175.075L177.545 175.099ZM183.574 172.627C183.455 171.741 184.072 170.921 184.958 170.802C185.842 170.658 186.675 171.285 186.794 172.172C186.914 173.058 186.297 173.878 185.411 173.998C184.957 174.071 184.504 173.925 184.171 173.657C183.865 173.41 183.642 173.033 183.585 172.614L183.574 172.627Z" fill="white"/>
<path d="M158.126 200.312C157.966 200.184 157.815 200.018 157.733 199.82C157.64 199.635 157.558 199.438 157.548 199.232C157.536 199.003 157.55 198.794 157.601 198.595C157.653 198.395 157.752 198.189 157.881 198.03C158.009 197.87 158.189 197.729 158.373 197.637C158.558 197.544 158.755 197.462 158.985 197.449C159.201 197.426 159.399 197.453 159.598 197.505C159.91 197.581 160.174 197.771 160.395 198.015C160.474 198.079 160.509 198.173 160.556 198.277C160.628 198.378 160.649 198.461 160.686 198.579C160.71 198.686 160.72 198.782 160.754 198.875C160.801 199.308 160.666 199.748 160.408 200.067C160.151 200.386 159.763 200.622 159.318 200.658C159.208 200.658 159.112 200.668 159.013 200.654C158.891 200.643 158.805 200.64 158.691 200.592C158.579 200.567 158.491 200.54 158.4 200.489C158.307 200.414 158.219 200.387 158.126 200.312Z" fill="white"/>
<path d="M207.169 178.913C206.59 179.631 205.557 179.742 204.838 179.163C204.12 178.584 204.009 177.551 204.588 176.833C205.167 176.114 206.2 176.003 206.918 176.582C207.637 177.161 207.748 178.194 207.169 178.913Z" fill="white"/>
<path d="M205.378 169.482C204.799 170.2 203.766 170.311 203.047 169.732C202.329 169.154 202.218 168.12 202.797 167.402C203.376 166.683 204.409 166.572 205.127 167.151C205.846 167.73 205.957 168.763 205.378 169.482Z" fill="white"/>
<path d="M196.723 160.424C196.144 161.142 195.11 161.253 194.392 160.674C193.674 160.095 193.563 159.062 194.142 158.344C194.721 157.625 195.754 157.514 196.472 158.093C197.191 158.672 197.302 159.705 196.723 160.424Z" fill="white"/>
<path d="M219.008 163.786C218.429 164.505 217.396 164.616 216.677 164.037C215.959 163.458 215.848 162.425 216.427 161.706C217.006 160.988 218.039 160.877 218.757 161.456C219.476 162.035 219.587 163.068 219.008 163.786Z" fill="white"/>
<path d="M217.91 175.06C217.331 175.778 216.298 175.89 215.58 175.311C214.861 174.732 214.75 173.699 215.329 172.98C215.908 172.262 216.941 172.15 217.66 172.729C218.378 173.308 218.489 174.342 217.91 175.06Z" fill="white"/>
<path d="M203.037 158.553C202.458 159.272 201.425 159.383 200.706 158.804C199.988 158.225 199.877 157.192 200.456 156.473C201.035 155.755 202.068 155.644 202.787 156.223C203.505 156.802 203.616 157.835 203.037 158.553Z" fill="white"/>
<path d="M241.883 154.789C241.304 155.507 240.271 155.618 239.552 155.039C238.834 154.46 238.723 153.427 239.302 152.709C239.881 151.99 240.914 151.879 241.632 152.458C242.351 153.037 242.462 154.07 241.883 154.789Z" fill="white"/>
<path d="M219.476 150.272C218.897 150.99 217.863 151.101 217.145 150.522C216.427 149.943 216.316 148.91 216.895 148.192C217.474 147.473 218.507 147.362 219.225 147.941C219.943 148.52 220.055 149.553 219.476 150.272Z" fill="white"/>
<path d="M208.462 160.511C207.883 161.229 206.85 161.341 206.131 160.762C205.413 160.183 205.302 159.149 205.881 158.431C206.46 157.712 207.493 157.601 208.211 158.18C208.93 158.759 209.041 159.792 208.462 160.511Z" fill="white"/>
<path d="M232.233 151.184C231.654 151.902 230.621 152.013 229.903 151.434C229.184 150.855 229.073 149.822 229.652 149.104C230.231 148.385 231.264 148.274 231.983 148.853C232.701 149.432 232.812 150.465 232.233 151.184Z" fill="white"/>
<path d="M231.391 164.351C230.812 165.07 229.778 165.181 229.06 164.602C228.342 164.023 228.231 162.99 228.81 162.271C229.389 161.553 230.422 161.442 231.14 162.021C231.859 162.6 231.97 163.633 231.391 164.351Z" fill="white"/>
<path d="M196.739 165.987C196.16 166.705 195.127 166.816 194.409 166.237C193.69 165.658 193.579 164.625 194.158 163.907C194.737 163.188 195.77 163.077 196.489 163.656C197.207 164.235 197.318 165.268 196.739 165.987Z" fill="white"/>
<path d="M199.919 154.307C199.34 155.025 198.307 155.136 197.588 154.557C196.87 153.978 196.759 152.945 197.338 152.227C197.917 151.508 198.95 151.397 199.668 151.976C200.387 152.555 200.498 153.588 199.919 154.307Z" fill="white"/>
<path d="M189.59 158.492C189.011 159.211 187.978 159.322 187.259 158.743C186.541 158.164 186.43 157.131 187.009 156.412C187.588 155.694 188.621 155.583 189.339 156.162C190.058 156.741 190.169 157.774 189.59 158.492Z" fill="white"/>
<path d="M208.932 149.083C208.353 149.802 207.319 149.913 206.601 149.334C205.883 148.755 205.772 147.722 206.351 147.003C206.93 146.285 207.963 146.174 208.681 146.753C209.4 147.332 209.511 148.365 208.932 149.083Z" fill="white"/>
<path d="M179.121 168.842C179.833 169.416 180.877 169.304 181.451 168.591C182.026 167.878 181.913 166.835 181.201 166.26C180.488 165.686 179.445 165.798 178.87 166.511C178.296 167.224 178.408 168.267 179.121 168.842Z" fill="white"/>
<path d="M187.518 165.799C186.939 166.518 185.906 166.629 185.188 166.05C184.47 165.471 184.358 164.438 184.937 163.719C185.516 163.001 186.55 162.89 187.268 163.469C187.986 164.048 188.097 165.081 187.518 165.799Z" fill="white"/>
<path d="M251.978 152.172C251.399 152.891 250.366 153.002 249.648 152.423C248.929 151.844 248.818 150.811 249.397 150.092C249.976 149.374 251.01 149.263 251.728 149.842C252.446 150.421 252.557 151.454 251.978 152.172Z" fill="white"/>
<path d="M214.917 198.654C214.338 199.372 213.305 199.483 212.586 198.904C211.868 198.325 211.757 197.292 212.336 196.574C212.915 195.855 213.948 195.744 214.666 196.323C215.385 196.902 215.496 197.935 214.917 198.654Z" fill="white"/>
<path d="M220.91 192.006C220.331 192.725 219.298 192.836 218.58 192.257C217.861 191.678 217.75 190.645 218.329 189.926C218.908 189.208 219.941 189.097 220.66 189.676C221.378 190.255 221.489 191.288 220.91 192.006Z" fill="white"/>
<path d="M223.516 205.957C224.229 206.531 225.272 206.419 225.847 205.706C226.421 204.993 226.309 203.95 225.596 203.376C224.883 202.801 223.84 202.914 223.266 203.626C222.691 204.339 222.803 205.382 223.516 205.957Z" fill="white"/>
<path d="M206.7 192.404C207.412 192.978 208.456 192.866 209.03 192.153C209.605 191.441 209.492 190.397 208.78 189.823C208.067 189.248 207.024 189.361 206.449 190.073C205.875 190.786 205.987 191.829 206.7 192.404Z" fill="white"/>
<path d="M243.339 196.497C242.76 197.215 241.727 197.326 241.008 196.747C240.29 196.168 240.179 195.135 240.758 194.417C241.337 193.698 242.37 193.587 243.088 194.166C243.807 194.745 243.918 195.778 243.339 196.497Z" fill="white"/>
<path d="M215.631 185.622C215.052 186.34 214.019 186.452 213.3 185.873C212.582 185.294 212.471 184.261 213.05 183.542C213.629 182.824 214.662 182.712 215.38 183.291C216.099 183.87 216.21 184.904 215.631 185.622Z" fill="white"/>
<path d="M221.974 180.42C221.395 181.139 220.361 181.25 219.643 180.671C218.925 180.092 218.814 179.059 219.393 178.34C219.972 177.622 221.005 177.511 221.723 178.09C222.442 178.669 222.553 179.702 221.974 180.42Z" fill="white"/>
<path d="M216.293 208.082C215.714 208.8 214.681 208.911 213.962 208.332C213.244 207.753 213.133 206.72 213.712 206.002C214.291 205.283 215.324 205.172 216.042 205.751C216.761 206.33 216.872 207.363 216.293 208.082Z" fill="white"/>
<path d="M229.994 190.264C229.415 190.983 228.382 191.094 227.664 190.515C226.945 189.936 226.834 188.903 227.413 188.184C227.992 187.466 229.025 187.355 229.744 187.934C230.462 188.513 230.573 189.546 229.994 190.264Z" fill="white"/>
<path d="M224.02 198.002C223.441 198.72 222.408 198.831 221.69 198.253C220.971 197.674 220.86 196.64 221.439 195.922C222.018 195.203 223.052 195.092 223.77 195.671C224.488 196.25 224.599 197.283 224.02 198.002Z" fill="white"/>
<path d="M247.693 189.733C248.406 190.308 249.449 190.195 250.023 189.483C250.598 188.77 250.486 187.726 249.773 187.152C249.06 186.578 248.017 186.69 247.442 187.403C246.868 188.115 246.98 189.159 247.693 189.733Z" fill="white"/>
<path d="M181.726 143.771C181.147 144.49 180.114 144.601 179.396 144.022C178.678 143.443 178.566 142.41 179.145 141.691C179.724 140.973 180.758 140.862 181.476 141.441C182.194 142.02 182.305 143.053 181.726 143.771Z" fill="white"/>
<path d="M235.065 183.97C234.486 184.689 233.453 184.8 232.735 184.221C232.016 183.642 231.905 182.609 232.484 181.89C233.063 181.172 234.096 181.061 234.815 181.64C235.533 182.219 235.644 183.252 235.065 183.97Z" fill="white"/>
<path d="M16.652 123.437C16.6909 123.862 16.558 124.286 16.2781 124.603C16.1219 124.772 15.9626 124.906 15.7832 125.009C15.6038 125.111 15.3872 125.182 15.183 125.201C14.7406 125.241 14.3337 125.107 13.9994 124.828C13.5908 124.488 13.3709 123.959 13.4249 123.422C13.4156 123.32 13.4588 123.231 13.499 123.107C13.5237 123.002 13.5686 122.929 13.6273 122.821C13.6706 122.731 13.7309 122.64 13.7927 122.565C14.0711 122.231 14.4639 122.024 14.8894 121.985C15.0936 121.966 15.3179 121.98 15.5128 122.048C15.7078 122.116 15.9059 122.218 16.073 122.357C16.1488 122.436 16.2247 122.515 16.2819 122.578C16.3593 122.674 16.4166 122.737 16.4599 122.836C16.5219 122.951 16.5637 123.033 16.59 123.133C16.6009 123.253 16.6427 123.334 16.6536 123.454L16.652 123.437Z" fill="white"/>
<path d="M14.5563 129.411C14.5749 129.615 14.5611 129.84 14.4931 130.034C14.4251 130.229 14.3231 130.427 14.1839 130.595C14.0448 130.762 13.8839 130.879 13.7045 130.981C13.5081 131.085 13.2915 131.156 13.0873 131.175C12.9852 131.184 12.8831 131.194 12.7779 131.169C12.6588 131.18 12.569 131.137 12.4623 131.095C12.3571 131.07 12.2673 131.027 12.176 130.967C12.0677 130.908 11.9934 130.846 11.9207 130.801C11.7535 130.662 11.6173 130.486 11.5152 130.306C11.3526 130.03 11.289 129.709 11.3276 129.38C11.3523 129.275 11.3786 129.186 11.4033 129.081C11.4435 128.957 11.4883 128.885 11.53 128.778C11.5903 128.687 11.6522 128.612 11.7125 128.521C11.9738 128.188 12.3837 127.979 12.7921 127.942C13.0133 127.922 13.2206 127.937 13.4326 128.004C13.6275 128.072 13.8256 128.174 13.9757 128.314C14.0686 128.392 14.1444 128.471 14.2017 128.534C14.262 128.631 14.3193 128.695 14.3812 128.809C14.4246 128.908 14.4664 128.99 14.4927 129.091C14.5376 129.207 14.5454 129.292 14.5563 129.411Z" fill="white"/>
<path d="M53.2189 174.179C52.5508 174.755 51.5174 174.712 50.94 174.027C50.3457 173.343 50.4072 172.325 51.0737 171.732C51.7588 171.155 52.7752 171.2 53.3696 171.883C53.6002 172.154 53.7318 172.468 53.7629 172.808C53.808 173.301 53.6318 173.815 53.2189 174.179ZM49.1033 169.133C48.3624 169.664 47.3676 169.48 46.8382 168.756C46.3073 168.016 46.491 167.021 47.2148 166.491C47.9572 165.978 48.952 166.161 49.4644 166.887C49.6578 167.126 49.7353 167.411 49.7602 167.683C49.8099 168.228 49.5719 168.816 49.0878 169.151L49.1033 169.133ZM45.4191 163.739C44.6767 164.253 43.6804 164.052 43.168 163.327C42.6371 162.586 42.8378 161.589 43.5631 161.077C44.3055 160.563 45.3189 160.762 45.8313 161.488C46.0062 161.712 46.0821 161.979 46.1085 162.269C46.1598 162.83 45.9048 163.42 45.4207 163.756L45.4191 163.739ZM41.5587 158.481C40.8735 159.058 39.837 158.981 39.2751 158.277C38.6978 157.592 38.7763 156.573 39.4784 155.994C40.1651 155.434 41.1846 155.512 41.7619 156.197C41.9755 156.469 42.1072 156.783 42.1351 157.09C42.1818 157.6 41.9901 158.132 41.5587 158.481ZM37.2667 153.571C36.6203 154.196 35.5884 154.17 34.9802 153.522C34.3549 152.876 34.3638 151.846 35.0287 151.236C35.6752 150.611 36.7055 150.619 37.3153 151.284C37.58 151.552 37.7317 151.898 37.7643 152.256C37.8078 152.732 37.6471 153.227 37.2667 153.571ZM32.7057 148.909C32.0778 149.549 31.0491 149.558 30.4114 148.964C29.7707 148.336 29.7455 147.309 30.3734 146.668C30.9997 146.01 32.0285 146.002 32.6676 146.613C32.9493 146.879 33.1212 147.258 33.1554 147.632C33.1973 148.092 33.0675 148.55 32.7227 148.907L32.7057 148.909ZM27.973 144.434C27.3637 145.09 26.3381 145.132 25.6834 144.54C25.0102 143.932 24.968 142.907 25.5758 142.233C26.185 141.577 27.2107 141.535 27.8669 142.144C28.1841 142.424 28.356 142.803 28.3918 143.194C28.4322 143.637 28.3008 144.078 27.99 144.432L27.973 144.434ZM23.129 140.055C22.5197 140.711 21.4956 140.77 20.8224 140.163C20.1677 139.57 20.124 138.528 20.7163 137.873C21.324 137.2 22.3497 137.158 23.0229 137.765C23.3231 138.047 23.512 138.424 23.5477 138.816C23.5881 139.258 23.4568 139.699 23.146 140.053L23.129 140.055ZM18.3004 135.657C17.6726 136.298 16.6438 136.306 16.0031 135.678C15.3794 135.049 15.3712 134.02 15.982 133.381C16.6114 132.757 17.6387 132.732 18.2794 133.36C18.5626 133.643 18.7329 134.005 18.7671 134.379C18.8091 134.839 18.6623 135.298 18.3004 135.657Z" fill="white"/>
<path d="M12.4759 135.383C12.4852 135.485 12.4945 135.587 12.4714 135.709C12.4807 135.812 12.4374 135.901 12.3957 136.008C12.371 136.113 12.3277 136.203 12.2674 136.294C12.2087 136.403 12.1468 136.477 12.1035 136.567C11.9474 136.735 11.7865 136.853 11.6071 136.955C11.4277 137.057 11.2111 137.128 11.0069 137.147C10.5815 137.186 10.1576 137.053 9.82328 136.775C9.74744 136.696 9.6716 136.617 9.61278 136.537C9.53694 136.458 9.47812 136.377 9.43477 136.278C9.37439 136.181 9.33259 136.099 9.30625 135.998C9.1374 135.465 9.27331 134.886 9.61505 134.495C9.89494 134.177 10.3033 133.951 10.7117 133.914C10.9159 133.895 11.1418 133.926 11.3367 133.994C11.5317 134.062 11.7282 134.147 11.8953 134.286C12.2126 134.566 12.4386 134.975 12.4759 135.383Z" fill="white"/>
<path d="M49.9534 179.367C49.4742 180.131 48.4625 180.327 47.7135 179.829C46.9491 179.35 46.7537 178.338 47.2516 177.589C47.7309 176.825 48.7425 176.63 49.4915 177.127C49.9294 177.413 50.1772 177.871 50.2191 178.331C50.2517 178.688 50.1653 179.056 49.9534 179.367ZM44.8838 175.523C44.2544 176.147 43.2256 176.155 42.5848 175.528C41.9611 174.898 41.953 173.869 42.5808 173.229C43.2272 172.604 44.256 172.595 44.8797 173.225C45.163 173.508 45.3163 173.871 45.3489 174.229C45.3924 174.705 45.2456 175.164 44.8838 175.523ZM40.4991 170.914C39.8125 171.474 38.7914 171.379 38.214 170.694C37.6537 170.007 37.7322 168.988 38.4343 168.409C39.121 167.848 40.1405 167.927 40.7179 168.612C40.9315 168.884 41.0445 169.183 41.074 169.506C41.1207 170.016 40.929 170.549 40.4991 170.914ZM36.399 166.038C35.7139 166.615 34.6805 166.572 34.1031 165.887C33.5088 165.204 33.5703 164.186 34.2538 163.592C34.9219 163.016 35.9554 163.059 36.5327 163.744C36.7633 164.014 36.912 164.327 36.943 164.667C36.9881 165.161 36.7949 165.676 36.399 166.038ZM32.1381 161.28C31.4715 161.873 30.4381 161.83 29.8453 161.163C29.2525 160.497 29.2954 159.463 29.962 158.871C30.6285 158.278 31.6434 158.305 32.2362 158.972C32.4838 159.241 32.6355 159.587 32.6666 159.928C32.7117 160.421 32.534 160.918 32.1381 161.28ZM27.8462 156.559C27.1812 157.169 26.1478 157.126 25.538 156.461C24.9452 155.794 24.9726 154.779 25.6376 154.17C26.3042 153.577 27.336 153.603 27.9459 154.268C28.1765 154.538 28.3267 154.868 28.3593 155.225C28.4028 155.702 28.2437 156.214 27.8462 156.559ZM23.5575 151.872C22.8909 152.465 21.8575 152.422 21.2647 151.755C20.6704 151.072 20.6978 150.057 21.3813 149.463C22.0463 148.853 23.0628 148.897 23.6571 149.581C23.9032 149.833 24.0549 150.179 24.0845 150.503C24.1295 150.996 23.9534 151.51 23.5575 151.872ZM19.2795 147.115C18.596 147.709 17.5594 147.633 16.9821 146.947C16.4047 146.262 16.4832 145.243 17.1683 144.666C17.8519 144.071 18.8714 144.15 19.4488 144.835C19.6778 145.088 19.811 145.419 19.8405 145.743C19.8856 146.236 19.694 146.768 19.2795 147.115ZM15.1794 142.239C14.4572 142.786 13.4484 142.638 12.9036 141.932C12.3572 141.21 12.5037 140.185 13.2105 139.657C13.9328 139.11 14.9431 139.275 15.4864 139.964C15.6814 140.22 15.7759 140.503 15.8023 140.793C15.8505 141.32 15.6279 141.89 15.1624 142.241L15.1794 142.239Z" fill="white"/>
<path d="M22.2072 161.141C22.2476 161.583 22.1131 161.99 21.8348 162.324C21.5549 162.642 21.1466 162.868 20.7382 162.905C20.3298 162.942 19.8888 162.811 19.5546 162.533C18.9046 161.991 18.8051 160.902 19.3463 160.252C19.6247 159.918 20.0345 159.709 20.4429 159.672C20.545 159.663 20.6471 159.653 20.7524 159.678C20.8715 159.667 20.9612 159.71 21.068 159.752C21.1732 159.777 21.2645 159.837 21.3542 159.88C21.4626 159.939 21.5368 160.001 21.6281 160.061C21.9438 160.324 22.1699 160.732 22.2072 161.141Z" fill="white"/>
<path d="M46.7524 183.966C46.4697 184.816 45.5509 185.277 44.7015 184.994C43.869 184.71 43.3922 183.81 43.6749 182.961C43.9577 182.111 44.8765 181.65 45.7089 181.934C46.3448 182.134 46.7736 182.695 46.8311 183.324C46.8497 183.529 46.8189 183.755 46.7524 183.966ZM40.625 181.318C40.1256 182.049 39.0969 182.246 38.3634 181.73C37.6299 181.214 37.4346 180.202 37.951 179.469C38.4489 178.72 39.4621 178.541 40.2126 179.056C40.6335 179.344 40.8627 179.786 40.9046 180.245C40.9373 180.603 40.8353 180.99 40.625 181.318ZM35.2629 177.278C34.6536 177.934 33.6264 177.959 32.9702 177.35C32.314 176.74 32.2889 175.713 32.8981 175.057C33.5074 174.401 34.5346 174.376 35.1908 174.985C35.4911 175.266 35.6799 175.644 35.7141 176.018C35.7561 176.478 35.6078 176.92 35.2799 177.276L35.2629 177.278ZM30.4451 172.622C29.7987 173.247 28.7668 173.221 28.1585 172.573C27.5332 171.927 27.5591 170.895 28.2055 170.27C28.8535 169.662 29.8854 169.687 30.5107 170.334C30.7583 170.603 30.9101 170.949 30.9427 171.307C30.9862 171.783 30.8255 172.278 30.4451 172.622ZM25.8963 167.718C25.2112 168.296 24.1917 168.217 23.6144 167.532C23.037 166.847 23.1155 165.827 23.8006 165.25C24.4687 164.674 25.5037 164.734 26.081 165.419C26.2946 165.692 26.4263 166.006 26.4558 166.329C26.5024 166.839 26.3263 167.353 25.8963 167.718Z" fill="white"/>
<path d="M10.3103 158.263C10.3507 158.705 10.2163 159.112 9.93798 159.446C9.65964 159.781 9.26678 159.988 8.84136 160.027C8.41594 160.066 7.99199 159.933 7.67474 159.653C7.00774 159.113 6.90829 158.024 7.46651 157.373C7.72783 157.04 8.13771 156.831 8.54612 156.794C8.95452 156.757 9.39392 156.871 9.72975 157.166C10.064 157.444 10.2715 157.837 10.3088 158.246L10.3103 158.263Z" fill="white"/>
<path d="M44.1203 188.222C44.048 189.12 43.2855 189.79 42.4068 189.751C41.5079 189.678 40.8378 188.916 40.8776 188.037C40.933 187.14 41.7124 186.468 42.5911 186.508C43.4034 186.571 44.0425 187.182 44.1156 187.982C44.1156 187.982 44.1296 188.135 44.1373 188.22L44.1203 188.222ZM37.5403 187.192C37.2034 188.012 36.2629 188.424 35.4444 188.104C34.6073 187.769 34.1954 186.829 34.5154 186.01C34.8507 185.173 35.7912 184.761 36.6112 185.098C37.1992 185.336 37.5908 185.867 37.6452 186.462C37.667 186.7 37.6207 186.945 37.5419 187.209L37.5403 187.192ZM31.484 184.383C31.0032 185.13 29.9931 185.342 29.2457 184.862C28.4812 184.382 28.2859 183.371 28.7667 182.623C29.229 181.86 30.2391 181.648 31.0051 182.144C31.4415 182.413 31.6892 182.871 31.7327 183.348C31.7653 183.705 31.6788 184.073 31.484 184.383ZM26.0214 180.558C25.4323 181.246 24.4097 181.323 23.738 180.732C23.0494 180.143 22.9732 179.12 23.5623 178.432C24.153 177.76 25.1756 177.684 25.8472 178.274C26.1815 178.553 26.3719 178.947 26.4077 179.339C26.4481 179.781 26.3152 180.205 26.0199 180.541L26.0214 180.558ZM21.0969 176.049C20.4489 176.657 19.4155 176.614 18.8057 175.949C18.2144 175.3 18.2403 174.268 18.9053 173.658C19.5718 173.065 20.5867 173.093 21.1965 173.758C21.4442 174.027 21.5944 174.356 21.6254 174.697C21.6689 175.173 21.4928 175.687 21.0969 176.049ZM16.709 171.028C15.9867 171.574 14.9594 171.411 14.4332 170.721C13.8868 169.999 14.0349 168.99 14.7401 168.445C15.4624 167.899 16.4711 168.047 17.0159 168.752C17.211 169.009 17.3054 169.292 17.3319 169.581C17.38 170.109 17.1575 170.678 16.692 171.029L16.709 171.028ZM12.816 165.601C12.0705 166.081 11.071 165.846 10.5896 165.084C10.1081 164.321 10.3429 163.322 11.1069 162.858C11.8694 162.376 12.8689 162.611 13.3333 163.375C13.4912 163.601 13.547 163.836 13.5703 164.091C13.6247 164.687 13.3527 165.278 12.816 165.601Z" fill="white"/>
<path d="M9.98422 174.799C9.99354 174.901 10.0029 175.003 9.97816 175.108C9.98903 175.227 9.94575 175.317 9.90402 175.424C9.87931 175.529 9.81901 175.62 9.77573 175.71C9.71699 175.818 9.65514 175.893 9.6103 175.965C9.47113 176.132 9.29483 176.269 9.11541 176.371C8.936 176.473 8.71944 176.544 8.51524 176.563C8.0728 176.603 7.66587 176.469 7.33159 176.191C6.83173 175.79 6.63034 175.088 6.81419 174.471C6.89919 174.274 6.9842 174.078 7.12492 173.927C7.40325 173.593 7.79612 173.386 8.22155 173.347C8.64697 173.308 9.06936 173.424 9.40518 173.719C9.72244 173.999 9.94848 174.407 9.98577 174.816L9.98422 174.799Z" fill="white"/>
<path d="M40.3955 193.846C39.5153 193.977 38.6858 193.35 38.571 192.468C38.4392 191.588 39.0669 190.758 39.9487 190.644C40.8289 190.512 41.6584 191.139 41.7902 192.02L41.798 192.105C41.8757 192.955 41.2603 193.732 40.3955 193.846ZM35.463 192.443C35.338 193.329 34.5215 193.97 33.6349 193.845C32.75 193.737 32.1076 192.904 32.2496 192.016C32.3575 191.131 33.1741 190.49 34.0622 190.632C34.8419 190.715 35.396 191.334 35.4644 192.082C35.4753 192.202 35.4861 192.321 35.463 192.443ZM29.2295 191.262C28.9111 192.098 27.9892 192.525 27.1568 192.241C26.3058 191.941 25.8769 191.002 26.1782 190.168C26.4966 189.333 27.4169 188.888 28.2509 189.19C28.8713 189.407 29.2645 189.955 29.3189 190.55C29.3391 190.772 29.3114 191.032 29.2295 191.262ZM23.3482 188.865C22.9215 189.642 21.9346 189.921 21.1392 189.479C20.3624 189.052 20.0836 188.065 20.5257 187.27C20.9524 186.493 21.9393 186.214 22.7346 186.656C23.2221 186.921 23.5054 187.392 23.5535 187.92C23.5831 188.243 23.5105 188.576 23.3482 188.865ZM17.9615 185.497C17.3894 186.184 16.3514 186.279 15.6643 185.706C14.9771 185.134 14.8839 184.113 15.456 183.426C16.0266 182.722 17.0646 182.627 17.7533 183.217C18.0876 183.495 18.2966 183.905 18.3324 184.296C18.3712 184.721 18.2368 185.128 17.96 185.48L17.9615 185.497ZM13.2645 181.224C12.5794 181.802 11.5614 181.74 10.9687 181.074C10.3913 180.389 10.4512 179.354 11.1193 178.778C11.8044 178.201 12.8394 178.261 13.4152 178.929C13.6458 179.199 13.7775 179.513 13.8085 179.854C13.8536 180.347 13.679 180.878 13.2645 181.224Z" fill="white"/>
<path d="M37.8975 197.677C37.0437 197.91 36.1369 197.375 35.9385 196.518C35.7046 195.647 36.241 194.758 37.0965 194.542C37.9673 194.308 38.8571 194.845 39.0741 195.717C39.0741 195.717 39.0896 195.887 39.0974 195.972C39.1688 196.755 38.6694 197.487 37.8805 197.679L37.8975 197.677ZM32.8059 196.976C32.8357 197.865 32.1506 198.631 31.2441 198.663C30.3561 198.709 29.5885 198.007 29.5587 197.118C29.512 196.23 30.214 195.462 31.1036 195.433C31.9761 195.404 32.722 196.057 32.7997 196.908L32.8075 196.993L32.8059 196.976ZM26.4197 196.941C26.2932 197.811 25.458 198.436 24.57 198.294C23.6835 198.169 23.0581 197.334 23.2001 196.446C23.3436 195.575 24.1788 194.95 25.0498 195.093C25.8141 195.195 26.3682 195.814 26.435 196.545C26.4474 196.681 26.4583 196.8 26.4197 196.941ZM20.1645 195.711C19.8817 196.56 18.963 197.022 18.1135 196.739C17.2811 196.455 16.8197 195.536 17.1025 194.687C17.3868 193.854 18.3056 193.393 19.138 193.677C19.7739 193.876 20.1856 194.439 20.2416 195.052C20.2618 195.273 20.248 195.497 20.1645 195.711ZM14.192 193.442C13.7313 194.222 12.7413 194.467 11.9614 194.007C11.183 193.563 10.9366 192.556 11.3973 191.776C11.8426 191.015 12.8496 190.768 13.628 191.212C14.0829 191.496 14.3647 191.951 14.4113 192.462C14.4423 192.802 14.3698 193.135 14.192 193.442ZM8.92129 189.84C8.29189 190.464 7.26466 190.489 6.62238 189.844C5.99867 189.215 5.99052 188.186 6.6029 187.564C7.24776 186.922 8.27654 186.914 8.90025 187.543C9.18192 187.809 9.35224 188.171 9.38643 188.545C9.42839 189.005 9.28315 189.481 8.92129 189.84ZM4.64645 185.118C3.8855 185.616 2.90458 185.397 2.40612 184.636C1.90922 183.892 2.10993 182.896 2.87088 182.397C3.61481 181.9 4.62976 182.117 5.1112 182.879C5.26909 183.105 5.34345 183.355 5.36831 183.628C5.41959 184.189 5.16457 184.779 4.648 185.135L4.64645 185.118ZM1.39852 179.615C0.572536 179.965 -0.369762 179.605 -0.738299 178.764C-1.10528 177.939 -0.728182 176.995 0.113263 176.627C0.922228 176.278 1.8831 176.654 2.25008 177.478C2.31512 177.627 2.36624 177.811 2.38023 177.964C2.44238 178.645 2.05744 179.315 1.41398 179.596L1.39852 179.615Z" fill="white"/>
<path d="M45.0607 193.626C45.0995 194.051 44.9837 194.474 44.6883 194.809C44.4254 195.125 44.0171 195.351 43.5917 195.39C43.1663 195.429 42.7423 195.296 42.4251 195.016C41.9979 194.661 41.7951 194.13 41.832 193.595C41.8226 193.493 41.8659 193.403 41.9077 193.296C41.9324 193.191 41.9927 193.1 42.0344 192.993C42.0947 192.902 42.1565 192.827 42.2168 192.736C42.2787 192.662 42.356 192.569 42.438 192.527C42.5169 192.451 42.5973 192.392 42.6963 192.349C42.7937 192.289 42.8757 192.247 42.9932 192.219C43.0922 192.176 43.1943 192.166 43.2964 192.157C43.7389 192.117 44.1458 192.251 44.4801 192.529C44.5729 192.607 44.6472 192.668 44.689 192.75C44.7664 192.846 44.8252 192.927 44.8856 193.024C44.929 193.123 44.9708 193.205 44.9971 193.306C45.042 193.422 45.0498 193.507 45.0607 193.626Z" fill="white"/>
<path d="M35.25 201.386C34.4007 201.669 33.4677 201.223 33.1842 200.373C32.9008 199.524 33.3645 198.59 34.1983 198.325C35.0475 198.041 35.9805 198.488 36.264 199.337C36.3089 199.453 36.3368 199.571 36.3492 199.707C36.416 200.439 35.9832 201.147 35.25 201.386ZM28.6927 203.048C27.8311 203.196 26.9707 202.605 26.8218 201.727C26.6729 200.848 27.2651 200.005 28.1422 199.839C29.0209 199.69 29.8642 200.282 30.0131 201.161C30.0131 201.161 30.0209 201.246 30.0256 201.297C30.1017 202.13 29.5203 202.904 28.6757 203.05L28.6927 203.048ZM23.57 202.006C23.5827 202.897 22.8776 203.631 21.9695 203.645C21.0784 203.658 20.3448 202.953 20.3305 202.045C20.3178 201.154 21.0399 200.419 21.931 200.406C22.7711 200.398 23.483 201.053 23.5576 201.87C23.5576 201.87 23.5669 201.972 23.57 202.006ZM17.0693 201.845C16.9443 202.732 16.1092 203.357 15.2381 203.213C14.3516 203.088 13.7263 202.253 13.8682 201.365C13.9947 200.496 14.8299 199.871 15.7179 200.013C16.4652 200.116 17.0193 200.734 17.0861 201.466C17.097 201.585 17.1079 201.704 17.0693 201.845ZM10.6826 200.678C10.3812 201.512 9.46093 201.957 8.61149 201.674C7.77906 201.389 7.33313 200.452 7.61745 199.62C7.90177 198.787 8.83755 198.325 9.67153 198.626C10.292 198.844 10.7037 199.407 10.7597 200.019C10.7783 200.223 10.749 200.466 10.6671 200.697L10.6826 200.678ZM4.71302 198.066C4.15946 198.769 3.14155 198.896 2.43897 198.343C1.72093 197.808 1.59211 196.773 2.14567 196.07C2.69922 195.368 3.71713 195.241 4.41971 195.794C4.78802 196.069 4.99859 196.496 5.03744 196.921C5.07318 197.313 4.95732 197.735 4.696 198.068L4.71302 198.066Z" fill="white"/>
<path d="M42.3046 197.086C42.3232 197.29 42.3094 197.514 42.2244 197.711C42.1564 197.906 42.0714 198.102 41.9307 198.252C41.7745 198.421 41.6152 198.556 41.4358 198.658C41.2564 198.76 41.0398 198.831 40.8356 198.85C40.6314 198.869 40.4055 198.838 40.2106 198.77C40.0156 198.702 39.8191 198.617 39.6504 198.461C39.4833 198.321 39.3656 198.161 39.2635 197.981C39.1009 197.704 39.0544 197.383 39.0759 197.055C39.0666 196.953 39.1098 196.863 39.1516 196.756C39.1747 196.634 39.2196 196.561 39.2783 196.453C39.3386 196.361 39.4005 196.287 39.4437 196.197C39.7221 195.863 40.132 195.654 40.5404 195.617C40.9488 195.58 41.3882 195.694 41.724 195.989C41.7998 196.068 41.8741 196.13 41.9329 196.21C42.0103 196.306 42.0676 196.37 42.1125 196.486C42.1729 196.583 42.2147 196.665 42.241 196.766C42.2519 196.885 42.2937 196.967 42.3046 197.086Z" fill="white"/>
<path d="M5.09293 203.899C5.00968 202.987 4.20318 202.316 3.29156 202.399C2.37994 202.482 1.70841 203.289 1.79165 204.2C1.8749 205.112 2.68139 205.783 3.59302 205.7C4.50464 205.617 5.17617 204.81 5.09293 203.899Z" fill="white"/>
<path d="M1.60406 157.445C2.52297 157.362 3.32151 158.026 3.40543 158.945C3.48934 159.864 2.82443 160.663 1.90552 160.746C0.986604 160.83 0.188064 160.166 0.104153 159.247C0.0202418 158.328 0.685146 157.529 1.60406 157.445Z" fill="white"/>
<path d="M2.83121 167.696C2.74796 166.784 1.94146 166.113 1.02984 166.196C0.118217 166.279 -0.55331 167.086 -0.470064 167.997C-0.386819 168.909 0.419675 169.58 1.3313 169.497C2.24292 169.414 2.91445 168.607 2.83121 167.696Z" fill="white"/>
<path d="M4.72321 129.211C5.64212 129.127 6.44066 129.792 6.52457 130.711C6.60848 131.629 5.94357 132.428 5.02466 132.512C4.10575 132.596 3.30721 131.931 3.22329 131.012C3.13938 130.093 3.80429 129.295 4.72321 129.211Z" fill="white"/>
<path d="M4.6939 137.93C5.61281 137.846 6.41136 138.511 6.49527 139.43C6.57918 140.348 5.91427 141.147 4.99536 141.231C4.07645 141.315 3.27791 140.65 3.194 139.731C3.11009 138.812 3.77499 138.014 4.6939 137.93Z" fill="white"/>
<path d="M7.41949 149.898C8.3384 149.814 9.13694 150.479 9.22086 151.397C9.30477 152.316 8.63986 153.115 7.72095 153.199C6.80203 153.283 6.00349 152.618 5.91958 151.699C5.83567 150.78 6.50057 149.981 7.41949 149.898Z" fill="white"/>
<path d="M9.48648 144.905C9.40324 143.993 8.59673 143.322 7.68511 143.405C6.77349 143.488 6.10196 144.295 6.18521 145.206C6.26845 146.118 7.07495 146.789 7.98657 146.706C8.89819 146.623 9.56973 145.816 9.48648 144.905Z" fill="white"/>
</g>
<path fill-rule="evenodd" clip-rule="evenodd" d="M298.921 40.3623H1V1H298.921V40.3623ZM19.5234 12.5781C15.6871 12.5781 12.5771 15.6881 12.5771 19.5244C12.5774 23.3606 15.6872 26.4707 19.5234 26.4707C23.3595 26.4705 26.4695 23.3604 26.4697 19.5244C26.4697 15.6882 23.3596 12.5784 19.5234 12.5781ZM39.5898 12.5781C35.7535 12.5782 32.6436 15.6881 32.6436 19.5244C32.6438 23.3606 35.7537 26.4707 39.5898 26.4707C43.4261 26.4707 46.5359 23.3606 46.5361 19.5244C46.5361 15.6881 43.4262 12.5781 39.5898 12.5781ZM59.6582 12.5781C55.8218 12.5781 52.7119 15.6881 52.7119 19.5244C52.7122 23.3606 55.822 26.4707 59.6582 26.4707C63.4942 26.4705 66.6043 23.3604 66.6045 19.5244C66.6045 15.6882 63.4944 12.5784 59.6582 12.5781Z" fill="url(#paint0_linear_4197_271)" stroke="white" stroke-width="2"/>
<rect x="47.625" y="142.49" width="86.7588" height="86.7588" stroke="white" stroke-width="2"/>
<path d="M328.5 147.973H338.825V59.3416H229.882V147.973H284" stroke="white" stroke-width="2"/>
<path d="M298.882 155.13L294.803 144.3M314.935 138.27V138.27C319.994 136.581 325.487 139.157 327.425 144.125L331.415 154.355C335.597 165.08 330.208 177.154 319.432 181.202V181.202C308.906 185.155 297.152 179.966 292.982 169.524L281.03 139.596C279.827 136.586 281.405 133.184 284.48 132.158V132.158C287.363 131.195 290.491 132.692 291.549 135.542L294.803 144.3M314.935 138.27L318.949 148.569M314.935 138.27L304.701 141.285M304.701 141.285L308.915 152.042M304.701 141.285L294.803 144.3" stroke="white" stroke-width="2"/>
<mask id="path-73-inside-1_4197_271" fill="white">
<path d="M121.49 217.9H32.7314V129.142H121.49V217.9ZM76.7363 155.856C71.8724 156.006 67.1589 157.579 63.1807 160.382C59.2023 163.184 56.1329 167.093 54.3545 171.623L53.7129 173.124L54.3545 174.625C56.1329 179.155 59.2023 183.063 63.1807 185.865C67.159 188.668 71.8723 190.242 76.7363 190.392C81.6004 190.242 86.3137 188.668 90.292 185.865C94.2702 183.063 97.3388 179.155 99.1172 174.625L99.7588 173.124L99.1172 171.623C97.3388 167.093 94.2704 163.184 90.292 160.382C86.3137 157.579 81.6003 156.006 76.7363 155.856ZM74.4902 161.833C76.7232 161.389 79.0382 161.617 81.1416 162.488C83.245 163.36 85.0427 164.835 86.3076 166.729C87.5725 168.622 88.248 170.847 88.248 173.124C88.2446 176.176 87.0301 179.102 84.8721 181.26C82.714 183.418 79.7882 184.632 76.7363 184.636C74.4596 184.636 72.2339 183.96 70.3408 182.695C68.4478 181.43 66.9719 179.633 66.1006 177.529C65.2293 175.426 65.0011 173.111 65.4453 170.878C65.8895 168.645 66.986 166.594 68.5957 164.984C70.2056 163.374 72.2572 162.277 74.4902 161.833ZM76.7354 167.368C73.5565 167.368 70.9795 169.945 70.9795 173.124C70.9795 176.303 73.5565 178.88 76.7354 178.88C79.9142 178.88 82.4912 176.303 82.4912 173.124C82.4912 169.945 79.9142 167.368 76.7354 167.368Z"/>
</mask>
<path d="M121.49 217.9H32.7314V129.142H121.49V217.9ZM76.7363 155.856C71.8724 156.006 67.1589 157.579 63.1807 160.382C59.2023 163.184 56.1329 167.093 54.3545 171.623L53.7129 173.124L54.3545 174.625C56.1329 179.155 59.2023 183.063 63.1807 185.865C67.159 188.668 71.8723 190.242 76.7363 190.392C81.6004 190.242 86.3137 188.668 90.292 185.865C94.2702 183.063 97.3388 179.155 99.1172 174.625L99.7588 173.124L99.1172 171.623C97.3388 167.093 94.2704 163.184 90.292 160.382C86.3137 157.579 81.6003 156.006 76.7363 155.856ZM74.4902 161.833C76.7232 161.389 79.0382 161.617 81.1416 162.488C83.245 163.36 85.0427 164.835 86.3076 166.729C87.5725 168.622 88.248 170.847 88.248 173.124C88.2446 176.176 87.0301 179.102 84.8721 181.26C82.714 183.418 79.7882 184.632 76.7363 184.636C74.4596 184.636 72.2339 183.96 70.3408 182.695C68.4478 181.43 66.9719 179.633 66.1006 177.529C65.2293 175.426 65.0011 173.111 65.4453 170.878C65.8895 168.645 66.986 166.594 68.5957 164.984C70.2056 163.374 72.2572 162.277 74.4902 161.833ZM76.7354 167.368C73.5565 167.368 70.9795 169.945 70.9795 173.124C70.9795 176.303 73.5565 178.88 76.7354 178.88C79.9142 178.88 82.4912 176.303 82.4912 173.124C82.4912 169.945 79.9142 167.368 76.7354 167.368Z" fill="url(#paint1_linear_4197_271)"/>
<path d="M121.49 217.9V219.9H123.49V217.9H121.49ZM32.7314 217.9H30.7314V219.9H32.7314V217.9ZM32.7314 129.142V127.142H30.7314V129.142H32.7314ZM121.49 129.142H123.49V127.142H121.49V129.142ZM76.7363 155.856L76.7978 153.857L76.7363 153.855L76.6749 153.857L76.7363 155.856ZM63.1807 160.382L62.0289 158.747L62.0289 158.747L63.1807 160.382ZM54.3545 171.623L56.1935 172.409L56.2053 172.382L56.2162 172.354L54.3545 171.623ZM53.7129 173.124L51.8739 172.338L51.5378 173.124L51.8739 173.91L53.7129 173.124ZM54.3545 174.625L56.2162 173.894L56.2053 173.866L56.1935 173.839L54.3545 174.625ZM63.1807 185.865L62.0289 187.5L62.0289 187.5L63.1807 185.865ZM76.7363 190.392L76.6749 192.391L76.7363 192.393L76.7978 192.391L76.7363 190.392ZM90.292 185.865L91.4438 187.5L91.4438 187.5L90.292 185.865ZM99.1172 174.625L97.2782 173.839L97.2664 173.866L97.2555 173.894L99.1172 174.625ZM99.7588 173.124L101.598 173.91L101.934 173.124L101.598 172.338L99.7588 173.124ZM99.1172 171.623L97.2555 172.354L97.2664 172.382L97.2782 172.409L99.1172 171.623ZM90.292 160.382L91.4438 158.747L91.4438 158.747L90.292 160.382ZM74.4902 161.833L74.1001 159.871L74.1001 159.871L74.4902 161.833ZM81.1416 162.488L81.907 160.641L81.907 160.641L81.1416 162.488ZM86.3076 166.729L87.9706 165.617L87.9706 165.617L86.3076 166.729ZM88.248 173.124L90.248 173.126V173.124H88.248ZM84.8721 181.26L86.2863 182.674L86.2863 182.674L84.8721 181.26ZM76.7363 184.636V186.636H76.7386L76.7363 184.636ZM70.3408 182.695L69.2297 184.358L69.2297 184.358L70.3408 182.695ZM66.1006 177.529L64.2528 178.295L64.2528 178.295L66.1006 177.529ZM65.4453 170.878L63.4837 170.488L63.4837 170.488L65.4453 170.878ZM68.5957 164.984L67.1815 163.57L67.1814 163.57L68.5957 164.984ZM76.7354 167.368V165.368H76.7353L76.7354 167.368ZM70.9795 173.124H68.9795V173.124L70.9795 173.124ZM76.7354 178.88L76.7353 180.88H76.7354V178.88ZM82.4912 173.124L84.4912 173.124V173.124H82.4912ZM121.49 217.9V215.9H32.7314V217.9V219.9H121.49V217.9ZM32.7314 217.9H34.7314V129.142H32.7314H30.7314V217.9H32.7314ZM32.7314 129.142V131.142H121.49V129.142V127.142H32.7314V129.142ZM121.49 129.142H119.49V217.9H121.49H123.49V129.142H121.49ZM76.7363 155.856L76.6749 153.857C71.4197 154.019 66.3272 155.719 62.0289 158.747L63.1807 160.382L64.3324 162.017C67.9907 159.44 72.325 157.993 76.7978 157.856L76.7363 155.856ZM63.1807 160.382L62.0289 158.747C57.7306 161.775 54.4143 165.998 52.4928 170.892L54.3545 171.623L56.2162 172.354C57.8515 168.189 60.674 164.594 64.3325 162.017L63.1807 160.382ZM54.3545 171.623L52.5155 170.837L51.8739 172.338L53.7129 173.124L55.5519 173.91L56.1935 172.409L54.3545 171.623ZM53.7129 173.124L51.8739 173.91L52.5155 175.411L54.3545 174.625L56.1935 173.839L55.5519 172.338L53.7129 173.124ZM54.3545 174.625L52.4928 175.356C54.4144 180.25 57.7308 184.472 62.0289 187.5L63.1807 185.865L64.3325 184.23C60.6739 181.653 57.8514 178.059 56.2162 173.894L54.3545 174.625ZM63.1807 185.865L62.0289 187.5C66.327 190.528 71.4194 192.229 76.6749 192.391L76.7363 190.392L76.7978 188.393C72.3252 188.255 67.991 186.807 64.3325 184.23L63.1807 185.865ZM76.7363 190.392L76.7978 192.391C82.0532 192.229 87.1456 190.528 91.4438 187.5L90.292 185.865L89.1402 184.23C85.4817 186.807 81.1475 188.255 76.6748 188.393L76.7363 190.392ZM90.292 185.865L91.4438 187.5C95.7419 184.472 99.0574 180.25 100.979 175.356L99.1172 174.625L97.2555 173.894C95.6202 178.059 92.7984 181.653 89.1402 184.23L90.292 185.865ZM99.1172 174.625L100.956 175.411L101.598 173.91L99.7588 173.124L97.9198 172.338L97.2782 173.839L99.1172 174.625ZM99.7588 173.124L101.598 172.338L100.956 170.837L99.1172 171.623L97.2782 172.409L97.9198 173.91L99.7588 173.124ZM99.1172 171.623L100.979 170.892C99.0574 165.998 95.7423 161.775 91.4438 158.747L90.292 160.382L89.1402 162.017C92.7985 164.594 95.6201 168.188 97.2555 172.354L99.1172 171.623ZM90.292 160.382L91.4438 158.747C87.1454 155.719 82.0529 154.019 76.7978 153.857L76.7363 155.856L76.6748 157.855C81.1477 157.993 85.482 159.44 89.1402 162.017L90.292 160.382ZM74.4902 161.833L74.8804 163.795C76.7254 163.428 78.6381 163.616 80.3762 164.336L81.1416 162.488L81.907 160.641C79.4382 159.618 76.7211 159.35 74.1001 159.871L74.4902 161.833ZM81.1416 162.488L80.3762 164.336C82.1139 165.056 83.5994 166.275 84.6447 167.84L86.3076 166.729L87.9706 165.617C86.4861 163.396 84.3761 161.663 81.907 160.641L81.1416 162.488ZM86.3076 166.729L84.6447 167.84C85.6899 169.404 86.248 171.243 86.248 173.124H88.248H90.248C90.248 170.451 89.455 167.839 87.9706 165.617L86.3076 166.729ZM88.248 173.124L86.248 173.122C86.2452 175.644 85.2416 178.062 83.4579 179.846L84.8721 181.26L86.2863 182.674C88.8186 180.142 90.244 176.708 90.248 173.126L88.248 173.124ZM84.8721 181.26L83.4579 179.846C81.6742 181.629 79.2561 182.633 76.734 182.636L76.7363 184.636L76.7386 186.636C80.3204 186.632 83.7539 185.206 86.2863 182.674L84.8721 181.26ZM76.7363 184.636V182.636C74.8554 182.636 73.0163 182.078 71.4519 181.032L70.3408 182.695L69.2297 184.358C71.4514 185.843 74.0638 186.636 76.7363 186.636V184.636ZM70.3408 182.695L71.452 181.032C69.8876 179.987 68.6682 178.502 67.9483 176.764L66.1006 177.529L64.2528 178.295C65.2756 180.764 67.008 182.874 69.2297 184.358L70.3408 182.695ZM66.1006 177.529L67.9483 176.764C67.2284 175.026 67.0399 173.113 67.4069 171.268L65.4453 170.878L63.4837 170.488C62.9624 173.109 63.2302 175.826 64.2528 178.295L66.1006 177.529ZM65.4453 170.878L67.4069 171.268C67.7738 169.423 68.6798 167.729 70.01 166.399L68.5957 164.984L67.1814 163.57C65.2922 165.46 64.0051 167.867 63.4837 170.488L65.4453 170.878ZM68.5957 164.984L70.0099 166.399C71.3404 165.068 73.0357 164.162 74.8804 163.795L74.4902 161.833L74.1001 159.871C71.4787 160.393 69.0709 161.681 67.1815 163.57L68.5957 164.984ZM76.7354 167.368L76.7353 165.368C72.452 165.368 68.9795 168.841 68.9795 173.124H70.9795H72.9795C72.9795 171.05 74.6611 169.368 76.7354 169.368L76.7354 167.368ZM70.9795 173.124L68.9795 173.124C68.9795 177.407 72.452 180.88 76.7353 180.88L76.7354 178.88L76.7354 176.88C74.6611 176.88 72.9795 175.198 72.9795 173.124L70.9795 173.124ZM76.7354 178.88V180.88C81.0188 180.88 84.4912 177.407 84.4912 173.124L82.4912 173.124L80.4912 173.124C80.4912 175.198 78.8096 176.88 76.7354 176.88V178.88ZM82.4912 173.124H84.4912C84.4912 168.841 81.0188 165.368 76.7354 165.368V167.368V169.368C78.8096 169.368 80.4912 171.05 80.4912 173.124H82.4912Z" fill="white" mask="url(#path-73-inside-1_4197_271)"/>
<circle cx="277.876" cy="98.5223" r="21.3019" transform="rotate(-12.7088 277.876 98.5223)" stroke="white" stroke-width="2"/>
<path d="M292.227 114.449L311.809 131.213L314.679 127.54L295.633 111.663" stroke="white" stroke-width="2"/>
<defs>
<linearGradient id="paint0_linear_4197_271" x1="1" y1="20.6813" x2="298.921" y2="20.6813" gradientUnits="userSpaceOnUse">
<stop stop-color="#FCFF35"/>
<stop offset="1" stop-color="#C3CDFF"/>
</linearGradient>
<linearGradient id="paint1_linear_4197_271" x1="77.1109" y1="129.141" x2="77.1109" y2="217.9" gradientUnits="userSpaceOnUse">
<stop stop-color="#FCFF35"/>
<stop offset="1" stop-color="#C3CDFF"/>
</linearGradient>
</defs>
</svg>
