<svg width="2560" height="2800" viewBox="0 0 2560 2800" fill="none" xmlns="http://www.w3.org/2000/svg">
<g clip-path="url(#clip0_6_265)">
<rect width="2560" height="1400" fill="#F3F4F6"/>
<ellipse cx="110.5" cy="1292" rx="20.5" ry="21" fill="#D3DBDF" fill-opacity="0.4"/>
<circle cx="110.5" cy="1292.5" r="11.5" fill="#F3F4F6" fill-opacity="0.6"/>
<circle cx="2491.62" cy="351.929" r="20.9294" fill="#D3DBDF" fill-opacity="0.4"/>
<circle cx="2491.62" cy="351.929" r="10.4647" fill="#F3F4F6" fill-opacity="0.6"/>
<circle cx="74.5908" cy="1023.67" r="22.8146" fill="#D3DBDF" fill-opacity="0.4"/>
<circle cx="74.5907" cy="1023.67" r="11.4073" fill="#F3F4F6" fill-opacity="0.6"/>
<circle cx="156.716" cy="992.063" r="22.8146" fill="#D3DBDF" fill-opacity="0.4"/>
<circle cx="156.715" cy="992.063" r="11.4073" fill="#F3F4F6" fill-opacity="0.6"/>
<circle cx="47.8405" cy="1190.83" r="22.8146" fill="#D3DBDF" fill-opacity="0.4"/>
<circle cx="47.8404" cy="1190.83" r="11.4073" fill="#F3F4F6" fill-opacity="0.6"/>
<circle cx="2417.5" cy="415.731" r="22.5" fill="#D3DBDF" fill-opacity="0.4"/>
<circle cx="2417.5" cy="415.731" r="11.5" fill="#F3F4F6" fill-opacity="0.6"/>
<ellipse cx="2504" cy="475.731" rx="23" ry="22.5" fill="#D3DBDF" fill-opacity="0.4"/>
<circle cx="2504.5" cy="475.731" r="11.5" fill="#F3F4F6" fill-opacity="0.6"/>
<circle cx="2447" cy="201" r="23" fill="#D3DBDF" fill-opacity="0.4"/>
<circle cx="2447.5" cy="201.5" r="11.5" fill="#F3F4F6" fill-opacity="0.6"/>
<ellipse cx="2487.5" cy="166" rx="22.5" ry="23" fill="#D3DBDF" fill-opacity="0.4"/>
<circle cx="2487.5" cy="164.5" r="11.5" fill="#F3F4F6" fill-opacity="0.6"/>
<circle cx="114.5" cy="923.5" r="22.5" fill="#D3DBDF" fill-opacity="0.4"/>
<circle cx="114.5" cy="923.5" r="11.5" fill="#F3F4F6" fill-opacity="0.6"/>
<circle cx="69.0817" cy="1348.31" r="22.8146" fill="#D3DBDF" fill-opacity="0.4"/>
<circle cx="69.0816" cy="1348.31" r="11.4073" fill="#F3F4F6" fill-opacity="0.6"/>
<rect y="957" width="120" height="10" fill="#D3DBDF" fill-opacity="0.4"/>
<rect y="1019" width="54" height="9" fill="#D3DBDF" fill-opacity="0.4"/>
<circle cx="74.5908" cy="647.928" r="22.8146" fill="#D3DBDF" fill-opacity="0.4"/>
<circle cx="74.5907" cy="647.928" r="11.4073" fill="#F3F4F6" fill-opacity="0.6"/>
<rect y="643" width="54" height="9" fill="#D3DBDF" fill-opacity="0.4"/>
<rect x="-1" y="988" width="141" height="9" fill="#D3DBDF" fill-opacity="0.4"/>
<rect y="1310" width="75" height="9" fill="#D3DBDF" fill-opacity="0.4"/>
<rect x="64" y="1332" width="22" height="11" transform="rotate(-90 64 1332)" fill="#D3DBDF" fill-opacity="0.4"/>
<rect y="1288" width="94" height="9" fill="#D3DBDF" fill-opacity="0.4"/>
<path d="M2507 157H2560V167H2507V157Z" fill="#D3DBDF" fill-opacity="0.4"/>
<rect x="2467" y="196" width="90" height="10" fill="#D3DBDF" fill-opacity="0.4"/>
<rect x="2437" y="410.231" width="144" height="10" fill="#D3DBDF" fill-opacity="0.4"/>
<rect x="2498" y="430.231" width="83" height="10" fill="#D3DBDF" fill-opacity="0.4"/>
<rect x="2486" y="391.231" width="83" height="9" fill="#D3DBDF" fill-opacity="0.4"/>
<rect x="2486" y="400.231" width="30" height="11" transform="rotate(-90 2486 400.231)" fill="#D3DBDF" fill-opacity="0.4"/>
<rect x="2498" y="458.231" width="28" height="11" transform="rotate(-90 2498 458.231)" fill="#D3DBDF" fill-opacity="0.4"/>
<ellipse cx="2445.5" cy="679.231" rx="22.5" ry="23" fill="#D3DBDF" fill-opacity="0.4"/>
<ellipse cx="2445.5" cy="679.231" rx="11.5" ry="11" fill="#F3F4F6" fill-opacity="0.6"/>
<rect x="2466" y="674.231" width="103" height="10" fill="#D3DBDF" fill-opacity="0.4"/>
<circle cx="2494.5" cy="742.731" r="22.5" fill="#D3DBDF" fill-opacity="0.4"/>
<circle cx="2494.5" cy="742.731" r="11.5" fill="#F3F4F6" fill-opacity="0.6"/>
<rect x="2488" y="697.231" width="83" height="9" fill="#D3DBDF" fill-opacity="0.4"/>
<rect x="2488" y="725.231" width="28" height="11" transform="rotate(-90 2488 725.231)" fill="#D3DBDF" fill-opacity="0.4"/>
<rect x="109" y="965" width="23" height="11" transform="rotate(-90 109 965)" fill="#D3DBDF" fill-opacity="0.4"/>
<circle cx="629.363" cy="116.11" r="11.5" transform="rotate(89.6556 629.363 116.11)" fill="#F3F4F6" fill-opacity="0.6"/>
<rect y="1187" width="27" height="9" fill="#D3DBDF" fill-opacity="0.4"/>
<ellipse cx="108.5" cy="126" rx="20.5" ry="21" fill="#D3DBDF" fill-opacity="0.4"/>
<circle cx="108.5" cy="126.5" r="11.5" fill="#F3F4F6" fill-opacity="0.6"/>
<circle cx="67.0817" cy="182.312" r="22.8146" fill="#D3DBDF" fill-opacity="0.4"/>
<circle cx="67.0816" cy="182.312" r="11.4073" fill="#F3F4F6" fill-opacity="0.6"/>
<rect x="-2" y="144" width="75" height="9" fill="#D3DBDF" fill-opacity="0.4"/>
<rect x="62" y="166" width="22" height="11" transform="rotate(-90 62 166)" fill="#D3DBDF" fill-opacity="0.4"/>
<rect x="-2" y="122" width="94" height="9" fill="#D3DBDF" fill-opacity="0.4"/>
</g>
<g clip-path="url(#clip1_6_265)">
<rect width="2560" height="1400" transform="matrix(-1 0 0 -1 2560 2800)" fill="#F3F4F6"/>
<circle cx="2449" cy="1508" r="21" transform="rotate(-180 2449 1508)" fill="#D3DBDF" fill-opacity="0.4"/>
<circle cx="2449.5" cy="1507.5" r="11.5" transform="rotate(-180 2449.5 1507.5)" fill="#F3F4F6" fill-opacity="0.6"/>
<circle cx="68.3777" cy="2448.07" r="20.9294" transform="rotate(-180 68.3777 2448.07)" fill="#D3DBDF" fill-opacity="0.4"/>
<circle cx="68.3778" cy="2448.07" r="10.4647" transform="rotate(-180 68.3778 2448.07)" fill="#F3F4F6" fill-opacity="0.6"/>
<circle cx="2485.41" cy="1776.33" r="22.8146" transform="rotate(-180 2485.41 1776.33)" fill="#D3DBDF" fill-opacity="0.4"/>
<circle cx="2485.41" cy="1776.33" r="11.4073" transform="rotate(-180 2485.41 1776.33)" fill="#F3F4F6" fill-opacity="0.6"/>
<circle cx="2403.28" cy="1807.94" r="22.8146" transform="rotate(-180 2403.28 1807.94)" fill="#D3DBDF" fill-opacity="0.4"/>
<circle cx="2403.28" cy="1807.94" r="11.4073" transform="rotate(-180 2403.28 1807.94)" fill="#F3F4F6" fill-opacity="0.6"/>
<circle cx="2512.16" cy="1609.17" r="22.8146" transform="rotate(-180 2512.16 1609.17)" fill="#D3DBDF" fill-opacity="0.4"/>
<circle cx="2512.16" cy="1609.17" r="11.4073" transform="rotate(-180 2512.16 1609.17)" fill="#F3F4F6" fill-opacity="0.6"/>
<circle cx="142.5" cy="2384.27" r="22.5" transform="rotate(-180 142.5 2384.27)" fill="#D3DBDF" fill-opacity="0.4"/>
<circle cx="142.5" cy="2384.27" r="11.5" transform="rotate(-180 142.5 2384.27)" fill="#F3F4F6" fill-opacity="0.6"/>
<circle cx="56.5" cy="2324.27" r="22.5" transform="rotate(-180 56.5 2324.27)" fill="#D3DBDF" fill-opacity="0.4"/>
<circle cx="55.5" cy="2324.27" r="11.5" transform="rotate(-180 55.5 2324.27)" fill="#F3F4F6" fill-opacity="0.6"/>
<circle cx="113" cy="2599" r="23" transform="rotate(-180 113 2599)" fill="#D3DBDF" fill-opacity="0.4"/>
<circle cx="112.5" cy="2598.5" r="11.5" transform="rotate(-180 112.5 2598.5)" fill="#F3F4F6" fill-opacity="0.6"/>
<ellipse cx="72" cy="2634" rx="23" ry="23" transform="rotate(-180 72 2634)" fill="#D3DBDF" fill-opacity="0.4"/>
<circle cx="72.5" cy="2635.5" r="11.5" transform="rotate(-180 72.5 2635.5)" fill="#F3F4F6" fill-opacity="0.6"/>
<circle cx="2445.5" cy="1876.5" r="22.5" transform="rotate(-180 2445.5 1876.5)" fill="#D3DBDF" fill-opacity="0.4"/>
<circle cx="2445.5" cy="1876.5" r="11.5" transform="rotate(-180 2445.5 1876.5)" fill="#F3F4F6" fill-opacity="0.6"/>
<circle cx="2490.92" cy="1451.69" r="22.8146" transform="rotate(-180 2490.92 1451.69)" fill="#D3DBDF" fill-opacity="0.4"/>
<circle cx="2490.92" cy="1451.69" r="11.4073" transform="rotate(-180 2490.92 1451.69)" fill="#F3F4F6" fill-opacity="0.6"/>
<rect x="2560" y="1843" width="120" height="10" transform="rotate(-180 2560 1843)" fill="#D3DBDF" fill-opacity="0.4"/>
<rect x="2560" y="1781" width="54" height="9" transform="rotate(-180 2560 1781)" fill="#D3DBDF" fill-opacity="0.4"/>
<circle cx="2485.41" cy="2152.07" r="22.8146" transform="rotate(-180 2485.41 2152.07)" fill="#D3DBDF" fill-opacity="0.4"/>
<circle cx="2485.41" cy="2152.07" r="11.4073" transform="rotate(-180 2485.41 2152.07)" fill="#F3F4F6" fill-opacity="0.6"/>
<rect x="2560" y="2157" width="54" height="9" transform="rotate(-180 2560 2157)" fill="#D3DBDF" fill-opacity="0.4"/>
<rect x="2561" y="1812" width="141" height="9" transform="rotate(-180 2561 1812)" fill="#D3DBDF" fill-opacity="0.4"/>
<rect x="2560" y="1490" width="75" height="9" transform="rotate(-180 2560 1490)" fill="#D3DBDF" fill-opacity="0.4"/>
<rect x="2496" y="1468" width="22" height="11" transform="rotate(90 2496 1468)" fill="#D3DBDF" fill-opacity="0.4"/>
<rect x="2560" y="1512" width="94" height="9" transform="rotate(-180 2560 1512)" fill="#D3DBDF" fill-opacity="0.4"/>
<path d="M53 2643H-5.96046e-07V2633H53V2643Z" fill="#D3DBDF" fill-opacity="0.4"/>
<rect x="93" y="2604" width="90" height="10" transform="rotate(-180 93 2604)" fill="#D3DBDF" fill-opacity="0.4"/>
<rect x="123" y="2389.77" width="144" height="10" transform="rotate(-180 123 2389.77)" fill="#D3DBDF" fill-opacity="0.4"/>
<rect x="62" y="2369.77" width="83" height="10" transform="rotate(-180 62 2369.77)" fill="#D3DBDF" fill-opacity="0.4"/>
<rect x="74" y="2408.77" width="83" height="9" transform="rotate(-180 74 2408.77)" fill="#D3DBDF" fill-opacity="0.4"/>
<rect x="74" y="2399.77" width="30" height="11" transform="rotate(90 74 2399.77)" fill="#D3DBDF" fill-opacity="0.4"/>
<rect x="62" y="2341.77" width="28" height="11" transform="rotate(90 62 2341.77)" fill="#D3DBDF" fill-opacity="0.4"/>
<ellipse cx="114" cy="2120.77" rx="23" ry="23" transform="rotate(-180 114 2120.77)" fill="#D3DBDF" fill-opacity="0.4"/>
<circle cx="115" cy="2120.77" r="11" transform="rotate(-180 115 2120.77)" fill="#F3F4F6" fill-opacity="0.6"/>
<rect x="94" y="2125.77" width="103" height="10" transform="rotate(-180 94 2125.77)" fill="#D3DBDF" fill-opacity="0.4"/>
<circle cx="65.5" cy="2057.27" r="22.5" transform="rotate(-180 65.5 2057.27)" fill="#D3DBDF" fill-opacity="0.4"/>
<circle cx="65.5" cy="2057.27" r="11.5" transform="rotate(-180 65.5 2057.27)" fill="#F3F4F6" fill-opacity="0.6"/>
<rect x="72" y="2102.77" width="83" height="9" transform="rotate(-180 72 2102.77)" fill="#D3DBDF" fill-opacity="0.4"/>
<rect x="72" y="2074.77" width="28" height="11" transform="rotate(90 72 2074.77)" fill="#D3DBDF" fill-opacity="0.4"/>
<rect x="2451" y="1835" width="23" height="11" transform="rotate(90 2451 1835)" fill="#D3DBDF" fill-opacity="0.4"/>
<rect x="2560" y="1613" width="27" height="9" transform="rotate(-180 2560 1613)" fill="#D3DBDF" fill-opacity="0.4"/>
<circle cx="2451" cy="2674" r="21" transform="rotate(-180 2451 2674)" fill="#D3DBDF" fill-opacity="0.4"/>
<circle cx="2451.5" cy="2673.5" r="11.5" transform="rotate(-180 2451.5 2673.5)" fill="#F3F4F6" fill-opacity="0.6"/>
<circle cx="2492.92" cy="2617.69" r="22.8146" transform="rotate(-180 2492.92 2617.69)" fill="#D3DBDF" fill-opacity="0.4"/>
<circle cx="2492.92" cy="2617.69" r="11.4073" transform="rotate(-180 2492.92 2617.69)" fill="#F3F4F6" fill-opacity="0.6"/>
<rect x="2562" y="2656" width="75" height="9" transform="rotate(-180 2562 2656)" fill="#D3DBDF" fill-opacity="0.4"/>
<rect x="2498" y="2634" width="22" height="11" transform="rotate(90 2498 2634)" fill="#D3DBDF" fill-opacity="0.4"/>
<rect x="2562" y="2678" width="94" height="9" transform="rotate(-180 2562 2678)" fill="#D3DBDF" fill-opacity="0.4"/>
</g>
<defs>
<clipPath id="clip0_6_265">
<rect width="2560" height="1400" fill="white"/>
</clipPath>
<clipPath id="clip1_6_265">
<rect width="2560" height="1400" fill="white" transform="matrix(-1 0 0 -1 2560 2800)"/>
</clipPath>
</defs>
</svg>
