<svg width="360" height="360" viewBox="0 0 360 360" fill="none" xmlns="http://www.w3.org/2000/svg">
<circle cx="180" cy="180" r="180" fill="white"/>
<circle cx="180" cy="180" r="180" fill="white"/>
<circle cx="180" cy="180" r="180" fill="#004A5F" fill-opacity="0.2"/>
<circle cx="180" cy="180" r="175.909" fill="#004A5F" fill-opacity="0.2"/>
<circle cx="180" cy="180" r="171.818" fill="#004A5F" fill-opacity="0.2"/>
<circle cx="180" cy="180" r="167.727" fill="white"/>
<path d="M170.881 12.394C163.915 12.7947 156.448 13.5459 152.589 14.222C151.687 14.3973 150.409 14.5976 149.708 14.7228C146.701 15.1735 140.086 16.701 135.801 17.9029C134.072 18.3787 131.716 19.0297 130.539 19.3552C129.361 19.6557 127.732 20.1565 126.905 20.457C126.078 20.7575 124.775 21.2333 124.024 21.4837C122.721 21.9094 117.258 24.0628 113.374 25.6904C112.422 26.0911 110.944 26.7672 110.117 27.1929C109.29 27.5935 108.338 28.0192 107.987 28.1194C107.636 28.2195 107.26 28.3948 107.11 28.495C106.985 28.5951 105.055 29.6218 102.85 30.7486C100.645 31.8754 98.5402 33.0022 98.1894 33.2777C97.8135 33.5281 97.4377 33.7534 97.3625 33.7534C96.8864 33.7534 84.959 41.2655 84.1321 42.0919C83.9567 42.2922 83.5057 42.5927 83.1799 42.7679C82.5034 43.1185 75.1365 48.6524 74.2845 49.4537C74.0089 49.7041 73.0567 50.5304 72.1546 51.2816C71.2526 52.0329 70.4758 52.7089 70.4006 52.7841C70.3254 52.8592 69.3231 53.7606 68.1454 54.7873C65.5395 57.091 65.5645 57.066 62.2319 60.3462C57.0951 65.3543 53.9378 68.7848 49.8284 73.8179C48.9764 74.8446 48.0493 75.9714 47.7486 76.322C47.4479 76.6725 46.9468 77.3486 46.596 77.8244C46.2702 78.3001 45.9194 78.7509 45.8442 78.826C45.719 78.9262 44.7668 80.2533 41.9854 84.1846C41.5845 84.7355 40.6323 86.1127 39.9056 87.2145C39.1539 88.3163 38.3771 89.393 38.2017 89.5933C38.0263 89.7936 37.6755 90.3696 37.4249 90.8453C37.1493 91.3211 36.6983 92.0723 36.4226 92.473C35.3953 93.9003 31.0102 101.963 28.7049 106.596C25.4224 113.231 23.5431 117.989 20.1603 128.03C18.7571 132.187 18.2309 134.015 17.2787 137.921C17.1534 138.397 16.9279 139.248 16.7775 139.799C16.6272 140.35 16.4017 141.427 16.2513 142.178C16.101 142.929 15.8755 144.056 15.7502 144.682C15.5998 145.308 15.3994 146.31 15.2741 146.936C15.1488 147.562 14.9233 148.638 14.7729 149.339C14.2217 152.019 13.6453 157.478 13.044 165.591C12.8936 167.644 12.643 170.849 12.5177 172.702C12.192 177.084 12.192 184.822 12.5177 188.753C13.1191 195.739 13.946 203.927 14.3971 207.408C14.5725 208.61 14.8481 210.137 16.2513 217.549C16.6272 219.527 18.707 227.34 19.6341 230.27C20.1352 231.847 20.5362 233.225 20.5362 233.35C20.5362 234.101 24.7208 244.993 26.8506 249.726C28.4543 253.382 33.09 262.397 33.6913 263.123C33.8668 263.323 34.393 264.174 34.844 265.001C36.1971 267.48 40.1812 273.539 43.0879 277.521C49.7532 286.686 53.9128 291.518 62.1316 299.682C65.0884 302.636 68.5965 305.967 69.8995 307.068C71.2024 308.17 72.5305 309.322 72.8562 309.623C73.182 309.948 73.5077 310.198 73.608 310.198C73.7082 310.198 74.1843 310.574 74.6604 311.025C75.1365 311.476 76.0385 312.227 76.665 312.702C77.2914 313.178 77.9429 313.704 78.1183 313.879C78.2937 314.055 78.5443 314.205 78.6696 314.205C78.7949 314.205 79.0455 314.355 79.2209 314.505C80.2232 315.457 91.9501 323.47 92.351 323.47C92.4262 323.47 92.9524 323.795 93.5287 324.196C96.4855 326.199 108.839 332.635 112.873 334.212C113.951 334.663 114.978 335.114 115.128 335.214C115.254 335.339 116.231 335.715 117.258 336.09C118.286 336.466 119.363 336.866 119.639 336.992C121.343 337.693 126.479 339.496 128.283 340.047C129.186 340.297 131.165 340.898 132.669 341.374C134.197 341.824 136.502 342.45 137.805 342.751C139.108 343.051 140.687 343.452 141.313 343.627C141.94 343.803 143.468 344.128 144.696 344.353C148.43 345.03 149.683 345.28 150.459 345.505C152.138 345.981 158.252 346.657 168.25 347.534C172.736 347.909 189.399 347.709 195.939 347.183C203.23 346.607 207.465 346.106 210.096 345.505C210.648 345.38 212.126 345.105 213.354 344.879C216.887 344.228 218.992 343.803 220.62 343.352C221.447 343.126 222.8 342.801 223.627 342.601C226.96 341.799 238.136 338.219 240.666 337.142C241.092 336.942 241.919 336.616 242.546 336.341C243.172 336.09 244.575 335.489 245.703 334.963C246.831 334.463 248.008 333.962 248.334 333.862C248.66 333.761 249.437 333.411 250.063 333.11C250.689 332.785 252.945 331.658 255.074 330.606C257.204 329.53 259.084 328.578 259.209 328.478C259.359 328.353 260.938 327.426 262.717 326.4C266.175 324.446 266.701 324.121 269.909 322.017C271.036 321.316 272.013 320.715 272.114 320.715C272.214 320.715 272.489 320.49 272.765 320.19C273.016 319.889 273.567 319.488 273.993 319.288C274.394 319.063 275.471 318.362 276.348 317.736C280.032 315.056 284.342 311.826 285.319 310.975C285.87 310.474 286.847 309.673 287.424 309.197C290.456 306.743 296.47 301.159 299.953 297.578C304.588 292.795 307.219 289.816 311.88 284.131C313.408 282.253 313.559 282.078 314.21 281.152C314.561 280.676 314.962 280.1 315.137 279.9C315.538 279.399 318.395 275.443 319.422 273.965C320.876 271.862 324.208 266.603 325.085 265.001C325.386 264.45 325.937 263.548 326.263 262.997C327.616 260.894 331.65 253.031 332.502 250.853C332.753 250.227 333.279 249.05 333.705 248.224C334.131 247.397 334.707 246.045 335.033 245.219C335.334 244.393 335.835 243.141 336.136 242.464C336.762 241.037 339.218 233.851 340.019 231.071C340.32 230.044 340.721 228.792 340.896 228.317C341.197 227.44 343.327 218.977 343.778 216.798C344.004 215.771 344.279 214.094 345.081 209.286C345.231 208.385 345.457 207.258 345.582 206.782C346.033 205.179 346.835 196.891 347.537 186.75C347.862 182.192 347.762 172.377 347.311 167.594C347.186 166.217 346.96 163.562 346.81 161.709C346.459 157.202 346.083 154.147 345.657 152.319C345.131 149.991 344.379 145.884 344.029 143.355C343.903 142.529 343.628 141.251 343.402 140.475C343.177 139.674 342.901 138.647 342.776 138.172C342.651 137.696 342.425 136.794 342.275 136.168C342.124 135.542 341.874 134.641 341.773 134.165C340.27 128.256 336.06 116.487 333.655 111.504C333.179 110.527 331.926 107.948 330.873 105.744C329.17 102.189 328.142 100.286 325.361 95.4778C322.128 89.8938 315.538 80.2783 312.481 76.6976C312.13 76.2719 311.504 75.4956 311.078 74.9447C307.545 70.3624 296.244 58.6185 291.784 54.8875C290.832 54.0611 289.804 53.1597 289.529 52.8592C289.253 52.5587 288.551 51.9327 287.975 51.482C287.399 51.0312 285.895 49.8043 284.592 48.7526C277.852 43.2938 267.353 36.4077 259.084 32.0507C258.182 31.6 256.954 30.9239 256.327 30.5983C254.598 29.6719 246.279 25.7405 246.029 25.7405C245.903 25.7405 244.926 25.3399 243.874 24.8391C239.338 22.7357 232.823 20.3819 227.386 18.8544C226.559 18.6291 225.607 18.3286 225.281 18.2034C224.479 17.8779 217.112 16.0499 214.732 15.5992C210.823 14.823 210.322 14.7478 209.345 14.5976C208.793 14.5475 207.716 14.3472 206.964 14.222C203.155 13.4708 199.672 13.1202 191.679 12.5944C186.542 12.2688 174.991 12.1687 170.881 12.394ZM174.59 179.738C174.64 318.988 174.59 335.89 174.264 336.14C173.838 336.466 168.275 336.316 167.599 335.965C167.248 335.79 167.173 334.938 167.047 330.181C166.897 324.997 166.621 322.518 165.895 319.889C165.744 319.388 165.519 318.587 165.394 318.136C164.767 315.908 162.337 310.524 160.432 307.169C156.899 301.034 148.831 293.497 143.543 291.418C142.892 291.168 141.89 290.717 141.288 290.467C140.111 289.941 138.407 289.39 136.552 288.964C135.926 288.814 134.798 288.539 134.047 288.363C132.318 287.963 126.504 287.963 123.147 288.388C120.691 288.664 119.137 288.889 112.623 289.891C107.962 290.617 104.504 290.942 103.351 290.817C102.8 290.742 101.798 290.617 101.096 290.542C96.5607 289.991 91.4239 287.412 88.0662 284.006C86.1618 282.078 84.6333 279.249 84.1822 276.92C83.631 273.965 83.9818 270.309 85.1595 266.628C85.4101 265.877 85.7859 264.75 85.9613 264.124C86.4374 262.597 86.4374 257.589 85.9613 256.111C85.4351 254.484 83.8565 251.529 82.8542 250.302C82.3781 249.701 81.6264 248.499 81.1503 247.598C80.4487 246.246 80.2983 245.745 80.3234 244.468C80.3484 243.141 80.4737 242.765 81.476 241.212C82.1025 240.236 82.779 239.309 83.0045 239.109C83.5558 238.658 83.8064 237.181 83.4556 236.43C83.3052 236.079 82.754 235.628 82.2278 235.403C79.0455 234.076 75.1615 230.17 75.1615 228.267C75.1615 227.941 75.5123 226.964 75.9383 226.063C79.3211 218.952 78.9953 214.419 74.8107 210.212C73.2572 208.66 69.699 206.532 68.6466 206.532C68.4211 206.532 68.1454 206.431 68.0201 206.306C67.8698 206.206 66.9928 205.906 66.0155 205.655C65.0634 205.405 63.0838 204.679 61.6305 204.053C57.6964 202.35 56.1178 200.672 55.2408 197.267C54.7898 195.489 54.8399 194.713 55.6167 192.234C56.0928 190.631 57.7215 187.952 59.225 186.224C59.6509 185.748 60.7033 184.446 61.5553 183.319C62.4323 182.217 63.3594 181.041 63.6601 180.715C63.9608 180.389 64.6123 179.613 65.1135 178.987C65.6146 178.361 66.1909 177.685 66.4165 177.485C66.6169 177.284 67.1181 176.633 67.5441 176.083C68.1705 175.181 69.3983 173.629 73.4075 168.696C74.6353 167.193 77.6172 163.412 78.4942 162.26C78.9202 161.659 79.7471 160.608 80.3234 159.881C80.8746 159.155 81.7266 158.028 82.2027 157.377C82.6788 156.726 83.3052 155.825 83.631 155.374C83.9317 154.923 84.3827 154.373 84.5832 154.122C85.9112 152.52 88.6926 147.937 89.5696 145.934C90.9478 142.779 91.2485 141.201 91.2485 137.395C91.2485 133.865 91.0981 132.988 89.6698 128.281C89.1186 126.478 88.5924 124.675 88.4671 124.274C86.688 117.864 86.6629 117.689 86.6629 110.402C86.688 106.746 86.7882 103.09 86.9135 102.239C87.0388 101.412 87.2894 99.7096 87.4397 98.4826C87.5901 97.2306 87.8156 95.7282 87.9659 95.1022C88.7427 91.3461 89.5947 88.1159 90.4466 85.5368C90.9979 83.9092 91.4489 82.4819 91.4489 82.3567C91.4489 82.2064 91.7997 81.33 92.2257 80.4035C92.6517 79.452 93.3533 77.8494 93.7793 76.8228C94.7565 74.3688 97.0117 69.9367 98.465 67.5578C100.369 64.5029 101.873 62.2243 102.449 61.5732C102.725 61.2477 102.975 60.8721 102.975 60.7719C102.975 60.5966 105.581 57.066 107.035 55.2881C110.668 50.881 115.203 46.4238 119.889 42.6928C122.62 40.5394 127.432 37.2841 130.163 35.7567C133.019 34.1541 137.054 32.0006 137.179 32.0006C137.229 32.0006 138.106 31.6 139.108 31.0992C141.038 30.1727 143.443 29.2462 147.828 27.8189C149.282 27.3431 150.66 26.8423 150.885 26.7171C151.136 26.5919 151.562 26.4917 151.812 26.4917C152.088 26.4917 152.564 26.3916 152.89 26.2664C153.216 26.1412 154.143 25.9158 154.97 25.7405C155.797 25.5903 157.425 25.2397 158.603 24.9893C160.532 24.5887 161.76 24.4134 167.498 23.7874C168.476 23.6872 170.43 23.5871 171.884 23.6121H174.515L174.59 179.738ZM192.706 24.0127C194.786 25.0394 196.089 27.4934 195.864 29.9473C195.713 31.8253 194.987 33.2276 193.558 34.3794L192.431 35.3059V50.8059V66.2808L191.629 67.2073C191.178 67.7331 190.125 68.7598 189.299 69.536C188.472 70.3123 187.494 71.2638 187.119 71.6394C186.743 72.0401 186.317 72.2905 186.166 72.1903C185.991 72.0901 185.916 65.9553 185.916 53.1096V34.2042L185.264 32.7769C183.585 29.2712 184.838 25.39 188.171 23.8124C189.098 23.3617 191.654 23.4869 192.706 24.0127ZM221.773 30.0725C223.352 30.6234 225.958 32.5014 227.01 33.8786C229.491 37.0838 229.867 41.566 228.012 45.6225C227.436 46.8996 225.081 49.1532 223.352 50.0547C222.224 50.6556 220.345 51.1815 218.741 51.3317L218.115 51.4068L217.989 57.9173C217.839 65.5546 218.215 64.553 214.055 68.5344C212.577 69.9617 208.643 73.7929 205.31 77.0481C199.597 82.6572 191.328 90.62 188.046 93.6749C187.219 94.4511 186.392 95.1022 186.242 95.1022C185.991 95.1022 185.916 94.0505 185.916 90.5949V86.1127L191.128 80.9043C196.114 75.9464 210.572 61.8236 210.973 61.5482C211.6 61.1225 211.725 60.0458 211.725 54.9125V49.5038L210.522 48.2017C208.142 45.6225 207.315 43.9198 207.064 41.0151C206.864 39.0369 207.24 37.184 208.192 35.4311C209.695 32.6266 212.978 30.1977 215.859 29.7219C217.438 29.4715 220.595 29.6468 221.773 30.0725ZM266.501 47.0248C267.779 47.4755 269.683 48.6023 270.485 49.4036C271.212 50.1048 272.464 52.2332 272.915 53.4852C273.667 55.6136 273.467 58.969 272.464 60.797C269.758 65.805 263.243 67.9084 258.482 65.3543C257.254 64.7033 254.749 62.3745 253.646 60.8971L253.12 60.171H244.25C234.402 60.171 234.502 60.196 233.675 58.4181C233.099 57.2412 233.174 56.2897 233.926 55.1128C235.229 53.1346 235.079 53.1597 244.55 53.1096C249.161 53.0595 253.07 52.9844 253.22 52.9343C253.371 52.8842 253.797 52.2081 254.172 51.4319C255.1 49.5539 257.53 47.6508 259.961 46.8746C261.564 46.3737 264.797 46.4489 266.501 47.0248ZM264.446 72.6661C265.749 73.217 266.35 74.1685 266.35 75.746C266.35 76.5724 266.2 77.3236 265.949 77.7242C265.022 79.1014 265.523 79.0764 247.131 79.1014C237.785 79.1014 229.516 79.2016 228.714 79.3018C227.511 79.452 227.11 79.6523 226.083 80.5788C224.554 81.956 217.639 88.6668 211.099 95.0772C208.342 97.7815 205.335 100.661 204.458 101.487C202.679 103.09 197.893 107.647 194.31 111.128C190.251 115.059 186.893 117.914 186.467 117.839C186.091 117.764 186.041 117.238 185.966 113.657L185.891 109.55L188.847 106.621C190.476 105.018 193.157 102.439 194.811 100.861C196.465 99.2839 201.251 94.6515 205.461 90.5699C209.67 86.4883 214.256 82.0311 215.659 80.679C218.541 77.8745 221.497 75.12 223.452 73.4423L224.78 72.3155H244.2C260.136 72.3155 263.769 72.3656 264.446 72.6661ZM286.522 74.1935C289.203 74.6943 290.957 75.5958 292.836 77.4237C294.665 79.2266 295.367 80.8543 295.592 83.8591C295.868 87.6151 294.39 90.5198 291.157 92.6733C289.378 93.8502 287.599 94.351 285.144 94.351C283.139 94.351 281.711 93.9503 280.032 92.9738L278.979 92.3728L277.752 93.2492C274.97 95.2274 276.449 95.0772 259.435 95.1272C251.04 95.1523 243.373 95.2274 242.37 95.3276L240.566 95.4778L234.151 101.738C230.618 105.168 223.452 112.23 218.265 117.388C205.736 129.808 203.306 132.162 201.877 133.239L200.65 134.165H193.684C189.85 134.165 186.542 134.09 186.317 134.015C185.966 133.89 185.916 133.339 185.916 130.534C185.916 127.73 185.966 127.179 186.317 127.054C186.542 126.979 189.324 126.903 192.531 126.903H198.369L205.36 119.992C211.525 113.907 216.16 109.375 231.495 94.4762C233.6 92.3978 235.981 90.1192 236.757 89.418L238.161 88.0909H254.699C265.373 88.0909 271.562 87.9907 272.164 87.8155C272.69 87.6903 273.417 87.2896 273.792 86.9641C274.469 86.4132 274.494 86.288 274.419 84.41C274.369 82.8825 274.469 82.1564 274.92 81.0796C275.471 79.6523 276.699 77.6992 277.376 77.1483C279.055 75.7711 280.608 74.9197 282.437 74.4189C283.59 74.1184 284.517 73.843 284.517 73.843C284.517 73.8179 285.419 73.9932 286.522 74.1935ZM317.819 104.668C318.595 105.394 321.302 110.577 321.126 111.028C321.001 111.328 315.613 111.378 287.198 111.378H253.396L244.275 120.668C234.803 130.334 222.926 142.428 219.242 146.209C212.903 152.695 211.85 153.747 211.374 154.022C210.998 154.247 207.49 154.348 198.67 154.398C188.271 154.473 186.467 154.423 186.191 154.122C185.991 153.872 185.916 152.795 185.966 150.667L186.041 147.562L196.866 147.436L207.716 147.311L212.126 142.929C214.556 140.525 220.896 134.165 226.233 128.806C242.821 112.13 247.657 107.297 249.437 105.669L251.14 104.117H284.166H317.192L317.819 104.668ZM279.957 119.091C282.813 120.092 285.043 122.021 286.572 124.85C288.075 127.655 287.599 132.287 285.469 135.317C284.266 137.02 283.415 137.771 281.385 138.823C280.132 139.474 279.731 139.549 277 139.624C274.494 139.699 273.767 139.624 272.59 139.223C270.084 138.347 267.553 136.068 266.25 133.464L265.599 132.162H261.389H257.204L254.799 134.591C253.471 135.943 251.241 138.347 249.837 139.924C248.434 141.502 246.329 143.806 245.177 145.058C244.024 146.285 242.345 148.163 241.393 149.189C240.466 150.216 238.461 152.369 236.908 153.947C235.379 155.524 232.598 158.454 230.769 160.457C226.584 165.015 221.748 170.198 220.169 171.776L218.992 172.978L202.504 172.927L186.041 172.852L185.966 169.622C185.941 167.844 185.991 166.292 186.091 166.192C186.216 166.066 192.957 165.941 201.101 165.866L215.91 165.766L217.513 164.063C220.27 161.133 223.828 157.377 224.88 156.301C225.431 155.75 226.484 154.598 227.236 153.797C227.987 152.995 230.242 150.566 232.272 148.438C234.302 146.31 236.432 144.006 237.058 143.305C237.66 142.629 238.562 141.652 239.038 141.176C239.94 140.25 240.792 139.348 245.302 134.415C246.755 132.838 249.236 130.209 250.815 128.581L253.721 125.626L259.785 125.476L265.874 125.326L266.4 124.324C267.077 122.997 268.956 120.994 270.284 120.218C273.517 118.34 276.674 117.964 279.957 119.091ZM316.49 120.568C319.573 121.42 321.076 122.221 322.88 123.999C324.985 126.102 325.912 127.805 326.363 130.384C326.739 132.562 326.539 135.417 325.862 137.045C324.659 139.924 321.652 142.954 319.147 143.781C317.393 144.382 314.761 144.932 313.759 144.932C311.88 144.932 308.748 143.881 306.643 142.504L305.966 142.078L299.877 148.213L293.788 154.323L280.558 154.473L267.328 154.598L266.4 155.474C265.448 156.376 263.995 157.528 262.943 158.229C262.592 158.454 261.965 158.93 261.514 159.28C261.063 159.631 259.635 160.708 258.332 161.684C257.029 162.661 255.851 163.537 255.701 163.663C255.425 163.863 253.27 165.415 250.815 167.093C247.432 169.422 246.179 170.323 246.054 170.474C245.979 170.549 244.751 171.45 243.297 172.477C241.844 173.503 240.441 174.555 240.165 174.805C239.188 175.682 236.983 177.034 236.131 177.284C234.577 177.71 232.498 177.009 231.571 175.757C231.145 175.181 231.019 174.655 231.019 173.503C231.019 172.126 231.094 171.926 231.846 171.15C232.748 170.273 234.177 169.472 234.903 169.472C235.53 169.472 236.231 169.046 238.662 167.118C239.915 166.142 241.368 164.99 241.919 164.589C242.471 164.188 243.047 163.763 243.172 163.663C243.974 163.012 249.562 159.005 251.191 157.903C252.619 156.927 253.12 156.551 259.109 152.044C262.066 149.84 264.722 147.887 265.022 147.737C265.423 147.512 268.981 147.436 277.827 147.436H290.08L291.684 146.009C292.561 145.233 295.192 142.754 297.522 140.5L301.757 136.419L301.431 134.516C300.905 131.21 301.481 128.706 303.435 125.952C305.215 123.373 307.269 121.92 310.326 121.044C311.153 120.794 312.055 120.518 312.331 120.393C312.932 120.117 315.213 120.218 316.49 120.568ZM325.135 153.045C325.812 153.371 326.814 153.822 327.34 154.097C328.668 154.698 331.776 157.853 332.477 159.255C335.659 165.866 332.803 173.604 326.087 176.483C324.233 177.284 323.907 177.335 321.352 177.335C318.821 177.335 318.445 177.284 316.516 176.508C314.761 175.807 312.757 174.53 311.504 173.303C311.228 173.053 307.645 172.978 293.563 172.978H275.947L272.464 176.558C270.56 178.536 267.804 181.391 266.35 182.894C264.897 184.396 262.241 187.05 260.412 188.803L257.129 192.008H221.823C194.686 192.008 186.442 191.933 186.216 191.708C186.016 191.507 185.916 190.406 185.916 188.352C185.916 185.798 185.991 185.272 186.317 185.147C186.542 185.072 201.752 184.997 220.119 184.997H253.521L254.598 184.095C255.551 183.294 270.009 168.821 271.061 167.594C271.312 167.318 271.763 166.868 272.089 166.592C272.64 166.117 273.116 166.091 290.506 165.966L308.322 165.841L308.497 163.738C308.597 162.586 308.848 161.184 309.073 160.608C310.151 157.878 312.682 155.024 315.037 153.872C317.493 152.67 318.295 152.495 321.126 152.47C323.532 152.444 324.033 152.52 325.135 153.045ZM323.557 186.9C326.664 187.701 329.345 189.379 331.199 191.708C332.953 193.886 333.505 195.514 333.68 199.145C333.83 201.974 333.204 204.178 331.575 206.582C330.222 208.56 327.766 210.413 325.261 211.289C323.406 211.94 319.522 212.065 317.844 211.565C315.087 210.713 312.105 208.61 310.677 206.481C309.174 204.278 308.723 203.051 308.547 200.472C308.447 199.195 308.272 197.993 308.121 197.818C307.946 197.592 304.287 197.517 291.433 197.517C275.471 197.517 274.97 197.492 274.168 197.016C272.414 195.94 271.838 193.686 272.941 192.083C274.043 190.431 273.191 190.506 293.237 190.506H311.404L312.882 189.429C316.29 186.9 320.099 185.999 323.557 186.9ZM293.212 203.852C296.194 203.977 296.845 204.228 297.672 205.605C298.775 207.383 297.773 209.887 295.743 210.488C294.991 210.713 287.85 210.788 267.002 210.788C244.475 210.788 239.288 210.839 239.288 211.114C239.288 211.565 239.865 212.316 242.42 215.07C243.673 216.397 245.352 218.301 246.179 219.302C247.006 220.279 248.083 221.506 248.56 222.032C249.036 222.582 250.113 223.784 250.94 224.711C252.945 226.964 254.473 228.692 255.751 230.069C256.327 230.695 257.104 231.622 257.505 232.123C257.881 232.624 259.66 234.727 261.414 236.755C263.193 238.783 265.123 241.012 265.674 241.688C266.25 242.364 266.877 243.065 267.052 243.241C267.328 243.541 269.934 243.591 282.462 243.541L297.522 243.466L298.474 242.089C300.504 239.134 302.659 237.832 306.743 237.081C310.101 236.48 314.01 238.032 316.816 241.112C317.944 242.364 319.222 244.693 319.222 245.544C319.222 245.77 319.347 246.296 319.522 246.746C320.199 248.624 318.62 253.582 316.716 255.535C313.935 258.39 311.203 259.517 307.445 259.292C304.989 259.166 303.686 258.691 301.606 257.163C299.802 255.811 299.025 254.834 297.948 252.606C297.472 251.579 296.946 250.653 296.82 250.552C296.67 250.452 291.558 250.352 285.469 250.352C275.346 250.352 274.369 250.377 274.369 250.753C274.369 251.178 275.396 252.481 277.25 254.434C277.802 255.01 278.453 255.736 278.654 256.061C278.879 256.362 279.43 257.038 279.906 257.564C280.383 258.065 281.385 259.216 282.137 260.118C282.888 261.019 283.891 262.171 284.367 262.672C284.843 263.198 285.394 263.874 285.595 264.174C285.82 264.5 286.772 265.602 287.699 266.653C289.303 268.431 289.504 268.581 290.606 268.682C293.788 269.032 296.495 270.935 297.923 273.815C298.624 275.242 298.75 275.768 298.75 277.295C298.75 282.304 294.966 286.16 290.005 286.16C286.447 286.16 283.565 284.307 281.861 280.901C281.184 279.549 281.059 279.023 281.034 277.396C281.009 275.568 281.435 273.64 282.011 272.888C282.713 271.987 282.663 271.586 281.711 270.535C281.184 269.934 280.132 268.757 279.38 267.905C278.629 267.029 277.451 265.677 276.749 264.901C276.073 264.099 275.221 263.123 274.895 262.722C274.193 261.896 271.838 259.241 268.48 255.485C267.252 254.083 265.523 252.155 264.672 251.203C263.82 250.227 262.817 249.1 262.416 248.674C258.407 244.317 257.53 243.366 257.054 242.715C256.728 242.289 256.403 241.914 256.327 241.838C256.252 241.763 255.576 240.987 254.824 240.086C254.072 239.184 252.218 237.031 250.689 235.303C246.029 229.969 245.202 228.993 244.826 228.492C244.626 228.216 244.049 227.565 243.573 227.065C242.295 225.763 239.063 222.182 238.436 221.355C238.161 220.98 237.609 220.404 237.234 220.053C236.833 219.703 236.306 219.102 236.056 218.701C235.78 218.301 235.003 217.349 234.327 216.573C233.625 215.796 232.197 214.194 231.145 212.992L229.24 210.788L207.641 210.738L186.041 210.663L185.966 207.408C185.916 204.879 185.966 204.103 186.242 203.902C186.592 203.652 287.298 203.602 293.212 203.852ZM228.388 222.282C228.664 222.482 229.391 223.208 229.992 223.91C230.593 224.611 231.646 225.813 232.297 226.564C232.974 227.315 235.605 230.37 238.161 233.325C240.717 236.279 243.423 239.384 244.149 240.211C244.876 241.037 246.53 242.89 247.783 244.342C249.061 245.795 250.714 247.648 251.441 248.474C252.168 249.3 253.872 251.279 255.225 252.856C260.788 259.367 261.765 260.518 262.993 261.846C265.599 264.75 265.348 263.298 265.348 274.917V285.158L266.801 285.809C267.578 286.16 268.606 286.636 269.057 286.836C270.309 287.412 272.565 289.841 273.417 291.543C275.271 295.149 275.321 298.404 273.542 302.286C272.264 305.04 269.758 307.319 266.726 308.446C264.571 309.247 260.587 309.247 258.457 308.446C255.325 307.269 252.744 304.94 251.491 302.186C249.612 298.104 249.687 295.55 251.792 291.193C252.569 289.59 254.799 287.437 256.678 286.485C257.655 285.984 258.532 285.459 258.633 285.308C258.733 285.158 258.833 281.252 258.833 276.619V268.206L258.031 267.229C257.58 266.703 256.753 265.752 256.177 265.126C255.601 264.5 254.924 263.724 254.674 263.398C254.423 263.073 253.646 262.171 252.995 261.395C249.311 257.138 247.733 255.26 246.179 253.382C244.926 251.855 241.218 247.623 237.559 243.616C236.507 242.464 235.48 241.262 235.279 240.987C235.079 240.687 234.552 240.111 234.126 239.71C233.274 238.934 230.869 236.154 227.286 231.872C226.108 230.495 224.905 229.243 224.605 229.093C224.254 228.943 217.288 228.842 205.235 228.842C194.861 228.842 186.292 228.767 186.141 228.692C185.79 228.467 185.841 222.482 186.242 222.082C186.718 221.606 227.687 221.781 228.388 222.282ZM323.206 222.032C323.682 222.332 324.008 225.312 323.732 226.814C323.331 228.993 325.762 228.817 296.77 228.817C271.462 228.817 271.086 228.817 270.009 228.317C269.432 228.016 268.53 227.415 268.029 226.964C267.227 226.238 267.102 225.963 267.102 225.061C267.102 224.16 267.252 223.859 267.979 223.158C268.505 222.683 269.307 222.232 269.934 222.107C271.312 221.781 322.73 221.731 323.206 222.032ZM222.149 242.139C225.381 245.519 229.19 249.901 232.723 254.283C233.475 255.235 233.65 255.31 235.48 255.586C239.113 256.136 241.669 257.464 243.748 259.792C246.129 262.497 247.056 264.85 247.056 268.281C247.056 269.583 246.956 270.835 246.806 271.085C246.68 271.311 246.304 272.137 245.979 272.888C245.653 273.64 244.976 274.791 244.475 275.468L243.548 276.644L243.498 299.882L243.423 323.094L241.894 323.845C239.414 325.072 238.336 325.498 237.609 325.548L236.908 325.598L236.783 302.812L236.657 280.025L234.653 279.975C228.564 279.825 223.753 276.069 222.074 270.134C221.698 268.732 221.673 266.328 222.024 265.001C222.525 263.173 223.978 260.518 225.131 259.292C225.757 258.64 226.258 257.989 226.258 257.889C226.258 257.664 224.68 255.811 221.397 252.23C220.245 250.978 218.716 249.275 217.964 248.449C217.213 247.598 216.336 246.821 215.985 246.746C215.634 246.646 208.868 246.621 200.95 246.646C193.007 246.671 186.392 246.621 186.216 246.496C185.891 246.296 185.765 240.561 186.091 240.261C186.166 240.161 193.884 240.086 203.205 240.086H220.144L222.149 242.139ZM200.775 259.191C201.502 259.918 202.454 260.944 202.93 261.495C203.406 262.046 204.408 263.173 205.185 264.024C205.962 264.85 207.265 266.303 208.092 267.254C210.397 269.859 211.8 271.436 212.351 272.037C212.627 272.338 213.805 273.64 214.982 274.917C216.16 276.194 217.513 277.671 217.989 278.197C218.465 278.698 219.493 279.825 220.245 280.676C220.996 281.527 222.45 283.105 223.452 284.207L225.256 286.185V307.795C225.256 324.797 225.181 329.48 224.955 329.655C224.68 329.855 222.5 330.506 219.794 331.157C218.39 331.508 218.465 332.459 218.541 310.023L218.616 289.415L216.185 286.961C214.857 285.634 213.228 283.906 212.552 283.155C211.9 282.404 210.898 281.327 210.347 280.751C209.796 280.175 208.843 279.123 208.217 278.397C207.591 277.671 206.638 276.594 206.087 276.018C205.536 275.443 204.559 274.341 203.932 273.615C199.572 268.506 196.139 264.926 195.513 264.75C195.137 264.675 192.932 264.625 190.602 264.675C187.093 264.725 186.342 264.675 186.166 264.375C185.816 263.799 185.841 258.54 186.216 258.165C186.442 257.939 188.296 257.864 193.007 257.864H199.497L200.775 259.191ZM195.613 275.943C196.139 276.394 196.791 277.045 197.091 277.396C197.392 277.746 197.893 278.297 198.194 278.648C198.495 278.998 199.221 279.825 199.798 280.501C200.349 281.177 201.151 282.078 201.552 282.504C203.556 284.682 205.636 287.061 206.613 288.313L207.716 289.715V311.576V333.436L207.039 333.686C206.388 333.937 204.383 334.187 202.203 334.312L201.326 334.362L201.201 313.579C201.126 300.383 200.975 292.645 200.825 292.37C200.499 291.844 196.966 287.637 193.959 284.207L192.606 282.654H189.9C188.422 282.654 186.918 282.554 186.567 282.404L185.916 282.153V278.948C185.916 276.795 186.016 275.643 186.216 275.443C186.417 275.242 187.745 275.142 190.602 275.142H194.661L195.613 275.943ZM187.996 292.72C188.722 293.296 189.9 294.348 190.627 295.024L191.93 296.276V315.858V335.439L191.253 335.69C190.326 336.04 186.617 336.29 186.216 336.04C185.966 335.865 185.916 331.358 185.916 313.98C185.916 301.96 185.991 292.019 186.066 291.894C186.317 291.493 186.693 291.644 187.996 292.72Z" fill="#0A4A5F"/>
<path d="M216.26 36.5326C214.932 37.2087 214.305 38.1853 214.105 39.8881C213.929 41.2903 214.18 42.0666 215.282 43.2935C216.109 44.22 216.786 44.5205 218.114 44.5205C220.569 44.5205 222.248 42.8178 222.248 40.3388C222.223 39.1619 222.098 38.6861 221.547 37.8848C220.319 36.132 218.164 35.5811 216.26 36.5326Z" fill="#0A4A5F"/>
<path d="M262.216 52.86C260.863 53.3858 260.362 53.7865 259.936 54.5878C259.385 55.6395 259.385 57.5926 259.936 58.4189C261.289 60.4973 264.521 60.5975 266.075 58.6443C266.476 58.1435 266.601 57.6177 266.601 56.5159C266.601 55.1887 266.526 54.9383 265.724 54.0619C265.248 53.5361 264.597 53.0353 264.271 52.9602C263.97 52.9101 263.544 52.7849 263.344 52.7098C263.143 52.6346 262.642 52.7098 262.216 52.86Z" fill="#0A4A5F"/>
<path d="M283.766 80.5036C282.037 81.405 280.984 83.0827 281.235 84.5351C281.661 87.2394 284.292 88.7669 286.798 87.7152C287.825 87.2895 288.176 86.964 288.878 85.8121C289.93 84.0843 289.178 81.8307 287.174 80.7289C285.795 79.9777 284.843 79.9276 283.766 80.5036Z" fill="#0A4A5F"/>
<path d="M274.995 125.276C274.443 125.476 273.967 125.652 273.942 125.652C273.892 125.652 273.591 126.102 273.216 126.678C271.988 128.631 272.414 131.186 274.193 132.513C274.744 132.913 275.27 133.039 276.598 133.039C278.077 133.039 278.402 132.938 279.229 132.312C280.457 131.386 280.983 130.134 280.783 128.707C280.557 127.129 279.981 126.303 278.503 125.552C277.024 124.825 276.423 124.775 274.995 125.276Z" fill="#0A4A5F"/>
<path d="M312.657 127.279C310.702 127.805 309.324 129.032 308.622 130.86C308.071 132.262 308.096 133.289 308.722 134.666C309.374 136.143 309.825 136.594 311.278 137.32C313.784 138.597 317.317 137.696 318.871 135.392C320.048 133.614 320.149 132.462 319.222 130.559C318.37 128.731 317.242 127.805 315.187 127.254C314.436 127.079 313.834 126.928 313.834 126.928C313.834 126.928 313.308 127.104 312.657 127.279Z" fill="#0A4A5F"/>
<path d="M318.72 160.132C315.237 161.91 314.385 166.242 317.041 168.721C317.768 169.422 319.371 170.248 320.474 170.499C322.353 170.924 325.41 169.497 326.212 167.819C326.388 167.419 326.638 166.893 326.763 166.668C327.164 165.866 326.989 164.189 326.362 162.836C325.736 161.559 324.383 160.207 323.681 160.207C323.481 160.207 323.23 160.107 323.105 159.982C322.955 159.857 322.228 159.681 321.476 159.606C320.273 159.456 319.923 159.531 318.72 160.132Z" fill="#0A4A5F"/>
<path d="M319.547 194.187C318.57 194.312 316.615 195.99 315.964 197.292C314.586 199.971 316.114 203.377 319.146 204.529C320.85 205.155 321.627 205.155 323.331 204.529C326.212 203.452 327.716 200.322 326.613 197.693C325.486 194.963 323.055 193.761 319.547 194.187Z" fill="#0A4A5F"/>
<path d="M306.016 244.167C304.763 244.818 304.237 245.469 303.811 246.971C303.535 247.873 303.535 248.248 303.836 249.3C304.463 251.429 306.091 252.605 308.347 252.605C309.875 252.605 311.028 252.03 311.955 250.778C313.158 249.125 312.932 246.771 311.378 244.793C310.927 244.217 309.123 243.591 307.971 243.591C307.47 243.616 306.593 243.866 306.016 244.167Z" fill="#0A4A5F"/>
<path d="M288.276 275.267C287.775 275.743 287.649 276.119 287.649 277.045C287.649 278.723 288.526 279.649 290.105 279.649C292.385 279.649 293.488 277.17 292.009 275.418C291.458 274.742 291.208 274.641 290.13 274.641C289.128 274.641 288.752 274.767 288.276 275.267Z" fill="#0A4A5F"/>
<path d="M260.837 291.819C259.559 292.219 257.955 293.672 257.429 294.899C257.003 295.925 256.978 298.354 257.404 299.081C258.055 300.232 259.434 301.534 260.311 301.835C261.639 302.311 263.794 302.261 264.996 301.71C266.625 300.984 268.103 298.755 268.103 297.052C268.103 296.051 267.277 294.022 266.525 293.221C265.197 291.794 262.766 291.193 260.837 291.819Z" fill="#0A4A5F"/>
<path d="M232.547 262.347C231.72 262.572 229.741 264.275 229.189 265.251C228.713 266.153 228.538 267.73 228.814 268.982C229.29 271.261 231.821 273.139 234.376 273.139C236.005 273.139 237.935 272.213 238.962 270.961C239.889 269.834 239.914 269.734 239.914 267.881C239.914 266.078 239.864 265.903 238.962 264.701C237.509 262.722 234.903 261.771 232.547 262.347Z" fill="#0A4A5F"/>
</svg>
