<svg id="SvgjsSvg1001" width="288" height="288" xmlns="http://www.w3.org/2000/svg" version="1.1" xmlns:xlink="http://www.w3.org/1999/xlink" xmlns:svgjs="http://svgjs.com/svgjs"><circle id="SvgjsCircle1016" r="144" cx="144" cy="144" transform="matrix(0.99,0,0,0.99,1.4399999999999977,1.4399999999999977)" fill="#87ddfd"></circle><defs id="SvgjsDefs1002"></defs><g id="SvgjsG1008" transform="matrix(0.9999999999999999,0,0,0.9999999999999999,2.842170943040401e-14,2.842170943040401e-14)"><svg xmlns="http://www.w3.org/2000/svg" xmlns:svgjs="http://svgjs.com/svgjs" xmlns:xlink="http://www.w3.org/1999/xlink" viewBox="0 0 288 288" width="288" height="288"><svg xmlns="http://www.w3.org/2000/svg" xmlns:svgjs="http://svgjs.com/svgjs" xmlns:xlink="http://www.w3.org/1999/xlink" viewBox="0 0 288 288" width="288" height="288"><circle cx="144" cy="144" r="144" fill="#ffffff" class="colorfff svgShape" transform="matrix(.96 0 0 .96 5.76 5.76)"></circle><svg xmlns="http://www.w3.org/2000/svg" fill="none" viewBox="0 0 336 336" width="288" height="288"><path fill="#0c0f1f" d="M158.881 0.394043C151.915 0.794678 144.448 1.5459 140.589 2.22198C139.687 2.39728 138.409 2.5976 137.708 2.72278C134.701 3.17352 128.086 4.70099 123.801 5.90292C122.072 6.37869 119.716 7.02972 118.539 7.35526C117.361 7.65573 115.732 8.15652 114.905 8.45703C114.078 8.75751 112.775 9.23328 112.024 9.48367C110.721 9.90936 105.258 12.0628 101.374 13.6905C100.422 14.0911 98.9437 14.7672 98.1168 15.1929C97.2899 15.5935 96.3377 16.0192 95.9869 16.1194C95.6361 16.2195 95.2602 16.3948 95.1099 16.495C94.9846 16.5951 93.0552 17.6218 90.8501 18.7486C88.645 19.8754 86.5402 21.0022 86.1894 21.2776C85.8135 21.5281 85.4377 21.7534 85.3625 21.7534C84.8864 21.7534 72.959 29.2655 72.1321 30.0919C71.9567 30.2922 71.5057 30.5927 71.1799 30.7679C70.5034 31.1185 63.1365 36.6524 62.2845 37.4537C62.0089 37.7041 61.0567 38.5304 60.1546 39.2816C59.2526 40.0329 58.4758 40.709 58.4006 40.7841C58.3254 40.8592 57.3231 41.7607 56.1454 42.7873C53.5395 45.091 53.5645 45.0659 50.2319 48.3463C45.0951 53.3543 41.9378 56.7848 37.8284 61.8179C36.9764 62.8446 36.0493 63.9714 35.7486 64.322C35.4479 64.6725 34.9468 65.3486 34.596 65.8244C34.2702 66.3001 33.9194 66.7509 33.8442 66.826C33.719 66.9261 32.7668 68.2533 29.9854 72.1846C29.5845 72.7355 28.6323 74.1127 27.9056 75.2145C27.1539 76.3163 26.3771 77.393 26.2017 77.5933C26.0263 77.7936 25.6755 78.3696 25.4249 78.8453C25.1493 79.3211 24.6982 80.0723 24.4226 80.473C23.3953 81.9003 19.0102 89.9632 16.7049 94.5957C13.4224 101.231 11.5431 105.989 8.16029 116.03C6.75707 120.187 6.23086 122.015 5.27868 125.921C5.15339 126.397 4.92787 127.248 4.77753 127.799C4.62718 128.35 4.40166 129.427 4.25132 130.178C4.10097 130.929 3.87546 132.056 3.75017 132.682C3.59982 133.308 3.39936 134.31 3.27408 134.936C3.14879 135.562 2.92327 136.638 2.77292 137.339C2.22166 140.019 1.64534 145.478 1.04396 153.591C0.893611 155.644 0.643036 158.849 0.517748 160.702C0.192001 165.084 0.192001 172.822 0.517748 176.753C1.11913 183.739 1.94603 191.927 2.39706 195.408C2.57246 196.61 2.8481 198.137 4.25132 205.549C4.62718 207.527 6.70695 215.34 7.63408 218.27C8.13523 219.847 8.53615 221.225 8.53615 221.35C8.53615 222.101 12.7208 232.993 14.8506 237.726C16.4543 241.382 21.09 250.397 21.6913 251.123C21.8668 251.323 22.393 252.174 22.844 253.001C24.1971 255.48 28.1812 261.539 31.0879 265.521C37.7532 274.686 41.9128 279.518 50.1316 287.682C53.0884 290.636 56.5965 293.967 57.8995 295.068C59.2024 296.17 60.5305 297.322 60.8562 297.623C61.182 297.948 61.5077 298.198 61.608 298.198C61.7082 298.198 62.1843 298.574 62.6604 299.025C63.1365 299.476 64.0385 300.227 64.665 300.702C65.2914 301.178 65.9429 301.704 66.1183 301.879C66.2937 302.055 66.5443 302.205 66.6696 302.205C66.7949 302.205 67.0454 302.355 67.2209 302.505C68.2232 303.457 79.9501 311.47 80.351 311.47C80.4262 311.47 80.9524 311.795 81.5287 312.196C84.4855 314.199 96.8388 320.635 100.873 322.212C101.951 322.663 102.978 323.114 103.128 323.214C103.254 323.339 104.231 323.715 105.258 324.09C106.286 324.466 107.363 324.866 107.639 324.992C109.343 325.693 114.479 327.496 116.283 328.047C117.186 328.297 119.165 328.898 120.669 329.374C122.197 329.824 124.502 330.45 125.805 330.751C127.108 331.051 128.687 331.452 129.313 331.627C129.94 331.803 131.468 332.128 132.696 332.353C136.43 333.03 137.683 333.28 138.459 333.505C140.138 333.981 146.252 334.657 156.25 335.534C160.736 335.909 177.399 335.709 183.939 335.183C191.23 334.607 195.465 334.106 198.096 333.505C198.648 333.38 200.126 333.105 201.354 332.879C204.887 332.228 206.992 331.803 208.62 331.352C209.447 331.126 210.8 330.801 211.627 330.601C214.96 329.799 226.136 326.219 228.666 325.142C229.092 324.942 229.919 324.616 230.546 324.341C231.172 324.09 232.575 323.489 233.703 322.963C234.831 322.463 236.008 321.962 236.334 321.862C236.66 321.761 237.437 321.411 238.063 321.11C238.689 320.785 240.945 319.658 243.074 318.606C245.204 317.53 247.084 316.578 247.209 316.478C247.359 316.353 248.938 315.426 250.717 314.4C254.175 312.446 254.701 312.121 257.909 310.017C259.036 309.316 260.013 308.715 260.114 308.715C260.214 308.715 260.489 308.49 260.765 308.19C261.016 307.889 261.567 307.488 261.993 307.288C262.394 307.063 263.471 306.362 264.348 305.736C268.032 303.056 272.342 299.826 273.319 298.975C273.87 298.474 274.847 297.673 275.424 297.197C278.456 294.743 284.47 289.159 287.953 285.578C292.588 280.795 295.219 277.816 299.88 272.132C301.408 270.253 301.559 270.078 302.21 269.152C302.561 268.676 302.962 268.1 303.137 267.9C303.538 267.399 306.395 263.443 307.422 261.965C308.876 259.862 312.208 254.603 313.085 253.001C313.386 252.45 313.937 251.548 314.263 250.997C315.616 248.894 319.65 241.031 320.502 238.853C320.753 238.227 321.279 237.05 321.705 236.224C322.131 235.397 322.707 234.045 323.033 233.219C323.334 232.393 323.835 231.141 324.136 230.464C324.762 229.037 327.218 221.851 328.019 219.071C328.32 218.044 328.721 216.792 328.896 216.317C329.197 215.44 331.327 206.977 331.778 204.798C332.004 203.771 332.279 202.094 333.081 197.286C333.231 196.385 333.457 195.258 333.582 194.782C334.033 193.179 334.835 184.891 335.537 174.75C335.862 170.192 335.762 160.377 335.311 155.594C335.186 154.217 334.96 151.562 334.81 149.709C334.459 145.202 334.083 142.147 333.657 140.319C333.131 137.991 332.379 133.884 332.029 131.355C331.903 130.529 331.628 129.251 331.402 128.475C331.177 127.674 330.901 126.647 330.776 126.172C330.651 125.696 330.425 124.794 330.275 124.168C330.124 123.542 329.874 122.641 329.773 122.165C328.27 116.256 324.06 104.487 321.655 99.5036C321.179 98.527 319.926 95.9479 318.873 93.7443C317.17 90.1886 316.142 88.2855 313.361 83.4778C310.128 77.8938 303.538 68.2783 300.481 64.6976C300.13 64.2719 299.504 63.4956 299.078 62.9447C295.545 58.3624 284.244 46.6185 279.784 42.8875C278.832 42.0611 277.804 41.1597 277.529 40.8592C277.253 40.5587 276.551 39.9327 275.975 39.482C275.399 39.0312 273.895 37.8043 272.592 36.7526C265.852 31.2938 255.353 24.4077 247.084 20.0507C246.182 19.6 244.954 18.9239 244.327 18.5984C242.598 17.6718 234.279 13.7405 234.029 13.7405C233.903 13.7405 232.926 13.3399 231.874 12.8391C227.338 10.7357 220.823 8.3819 215.386 6.85443C214.559 6.62909 213.607 6.32858 213.281 6.2034C212.479 5.87787 205.112 4.04993 202.732 3.59921C198.823 2.82297 198.322 2.74783 197.345 2.5976C196.793 2.54752 195.716 2.3472 194.964 2.22198C191.155 1.47076 187.672 1.12021 179.679 0.59436C174.542 0.268829 162.991 0.168671 158.881 0.394043ZM162.59 167.738C162.64 306.988 162.59 323.89 162.264 324.14C161.838 324.466 156.275 324.316 155.599 323.965C155.248 323.79 155.173 322.938 155.047 318.181C154.897 312.997 154.621 310.518 153.895 307.889C153.744 307.388 153.519 306.587 153.394 306.136C152.767 303.908 150.337 298.524 148.432 295.169C144.899 289.034 136.831 281.497 131.543 279.418C130.892 279.168 129.89 278.717 129.288 278.467C128.111 277.941 126.407 277.39 124.552 276.964C123.926 276.814 122.798 276.539 122.047 276.363C120.318 275.963 114.504 275.963 111.147 276.388C108.691 276.664 107.137 276.889 100.623 277.891C95.9618 278.617 92.5039 278.942 91.3512 278.817C90.8 278.742 89.7977 278.617 89.0961 278.542C84.5607 277.991 79.4239 275.412 76.0662 272.006C74.1618 270.078 72.6333 267.249 72.1822 264.92C71.631 261.965 71.9818 258.309 73.1595 254.628C73.4101 253.877 73.7859 252.75 73.9613 252.124C74.4374 250.597 74.4374 245.589 73.9613 244.111C73.4351 242.484 71.8565 239.529 70.8542 238.302C70.3781 237.701 69.6264 236.499 69.1503 235.598C68.4487 234.246 68.2983 233.745 68.3234 232.468C68.3484 231.141 68.4737 230.765 69.476 229.212C70.1025 228.236 70.779 227.309 71.0045 227.109C71.5558 226.658 71.8064 225.181 71.4556 224.43C71.3052 224.079 70.754 223.628 70.2278 223.403C67.0454 222.076 63.1615 218.17 63.1615 216.267C63.1615 215.941 63.5123 214.964 63.9383 214.063C67.3211 206.952 66.9953 202.419 62.8107 198.212C61.2572 196.66 57.699 194.532 56.6466 194.532C56.4211 194.532 56.1454 194.431 56.0201 194.306C55.8698 194.206 54.9928 193.906 54.0155 193.655C53.0634 193.405 51.0838 192.679 49.6305 192.053C45.6964 190.35 44.1178 188.672 43.2408 185.267C42.7898 183.489 42.8399 182.713 43.6167 180.234C44.0928 178.631 45.7215 175.952 47.225 174.224C47.6509 173.748 48.7034 172.446 49.5553 171.319C50.4323 170.217 51.3594 169.041 51.6601 168.715C51.9608 168.389 52.6123 167.613 53.1135 166.987C53.6146 166.361 54.1909 165.685 54.4165 165.485C54.6169 165.284 55.1181 164.633 55.5441 164.083C56.1705 163.181 57.3983 161.629 61.4075 156.696C62.6353 155.193 65.6172 151.412 66.4942 150.26C66.9202 149.659 67.7471 148.608 68.3234 147.881C68.8746 147.155 69.7266 146.028 70.2027 145.377C70.6788 144.726 71.3052 143.825 71.631 143.374C71.9317 142.923 72.3827 142.373 72.5832 142.122C73.9112 140.52 76.6926 135.937 77.5696 133.934C78.9478 130.779 79.2485 129.201 79.2485 125.395C79.2485 121.865 79.0981 120.988 77.6698 116.281C77.1186 114.478 76.5924 112.675 76.4671 112.274C74.688 105.864 74.6629 105.689 74.6629 98.4018C74.688 94.7459 74.7882 91.0901 74.9135 90.2387C75.0388 89.4124 75.2894 87.7096 75.4397 86.4826C75.5901 85.2306 75.8156 83.7282 75.9659 83.1022C76.7427 79.3462 77.5947 76.1159 78.4466 73.5368C78.9979 71.9092 79.4489 70.4819 79.4489 70.3567C79.4489 70.2064 79.7997 69.33 80.2257 68.4035C80.6517 67.452 81.3533 65.8494 81.7793 64.8228C82.7565 62.3688 85.0117 57.9367 86.465 55.5579C88.3694 52.5029 89.8728 50.2243 90.4492 49.5732C90.7248 49.2477 90.9754 48.8721 90.9754 48.7719C90.9754 48.5966 93.5814 45.0659 95.0347 43.2881C98.668 38.881 103.203 34.4238 107.889 30.6928C110.62 28.5394 115.432 25.2841 118.163 23.7567C121.019 22.1541 125.054 20.0006 125.179 20.0006C125.229 20.0006 126.106 19.6 127.108 19.0992C129.038 18.1727 131.443 17.2462 135.828 15.8189C137.282 15.3431 138.66 14.8423 138.885 14.7171C139.136 14.5919 139.562 14.4917 139.812 14.4917C140.088 14.4917 140.564 14.3916 140.89 14.2664C141.216 14.1412 142.143 13.9158 142.97 13.7405C143.797 13.5903 145.425 13.2397 146.603 12.9893C148.532 12.5887 149.76 12.4134 155.498 11.7874C156.476 11.6872 158.43 11.5871 159.884 11.6121H162.515L162.59 167.738ZM180.706 12.0128C182.786 13.0394 184.089 15.4933 183.864 17.9473C183.713 19.8253 182.987 21.2276 181.558 22.3794L180.431 23.3059V38.8059V54.2808L179.629 55.2073C179.178 55.7331 178.125 56.7598 177.299 57.536C176.472 58.3123 175.494 59.2638 175.119 59.6394C174.743 60.0401 174.317 60.2905 174.166 60.1903C173.991 60.0901 173.916 53.9553 173.916 41.1096V22.2042L173.264 20.7769C171.585 17.2712 172.838 13.39 176.171 11.8124C177.098 11.3617 179.654 11.4869 180.706 12.0128ZM209.773 18.0725C211.352 18.6234 213.958 20.5014 215.01 21.8786C217.491 25.0838 217.867 29.566 216.012 33.6225C215.436 34.8996 213.081 37.1532 211.352 38.0547C210.224 38.6556 208.345 39.1815 206.741 39.3317L206.115 39.4069L205.989 45.9173C205.839 53.5546 206.215 52.553 202.055 56.5344C200.577 57.9617 196.643 61.7929 193.31 65.0481C187.597 70.6572 179.328 78.62 176.046 81.6749C175.219 82.4511 174.392 83.1022 174.242 83.1022C173.991 83.1022 173.916 82.0505 173.916 78.5949V74.1127L179.128 68.9043C184.114 63.9464 198.572 49.8236 198.973 49.5482C199.6 49.1225 199.725 48.0457 199.725 42.9125V37.5038L198.522 36.2017C196.142 33.6225 195.315 31.9198 195.064 29.0151C194.864 27.0369 195.24 25.184 196.192 23.4311C197.695 20.6266 200.978 18.1977 203.859 17.7219C205.438 17.4715 208.595 17.6468 209.773 18.0725ZM254.501 35.0248C255.779 35.4755 257.683 36.6023 258.485 37.4036C259.212 38.1048 260.464 40.2332 260.915 41.4852C261.667 43.6136 261.467 46.969 260.464 48.797C257.758 53.805 251.243 55.9084 246.482 53.3543C245.255 52.7032 242.749 50.3745 241.646 48.8971L241.12 48.171H232.25C222.402 48.171 222.502 48.196 221.675 46.4181C221.099 45.2412 221.174 44.2897 221.926 43.1128C223.229 41.1346 223.079 41.1597 232.55 41.1096C237.161 41.0595 241.07 40.9844 241.22 40.9343C241.371 40.8842 241.797 40.2081 242.172 39.4319C243.1 37.5539 245.53 35.6508 247.961 34.8745C249.564 34.3737 252.797 34.4489 254.501 35.0248ZM252.446 60.6661C253.749 61.2169 254.35 62.1685 254.35 63.746C254.35 64.5724 254.2 65.3236 253.949 65.7242C253.022 67.1014 253.523 67.0764 235.131 67.1014C225.785 67.1014 217.516 67.2016 216.714 67.3018C215.511 67.452 215.11 67.6523 214.083 68.5788C212.554 69.956 205.639 76.6668 199.099 83.0771C196.342 85.7815 193.335 88.6611 192.458 89.4875C190.679 91.0901 185.893 95.6474 182.31 99.128C178.251 103.059 174.893 105.914 174.467 105.839C174.091 105.764 174.041 105.238 173.966 101.657L173.891 97.5504L176.847 94.6207C178.476 93.0182 181.157 90.439 182.811 88.8615C184.465 87.2839 189.251 82.6515 193.461 78.5699C197.67 74.4883 202.256 70.0312 203.659 68.679C206.541 65.8745 209.497 63.12 211.452 61.4423L212.78 60.3155H232.2C248.136 60.3155 251.769 60.3656 252.446 60.6661ZM274.522 62.1935C277.203 62.6943 278.957 63.5958 280.836 65.4237C282.665 67.2266 283.367 68.8542 283.592 71.8591C283.868 75.6151 282.39 78.5198 279.157 80.6733C277.378 81.8502 275.599 82.351 273.144 82.351C271.139 82.351 269.711 81.9503 268.032 80.9738L266.979 80.3728L265.752 81.2492C262.97 83.2274 264.449 83.0771 247.435 83.1272C239.04 83.1523 231.373 83.2274 230.37 83.3276L228.566 83.4778L222.151 89.7379C218.618 93.1684 211.452 100.23 206.265 105.388C193.736 117.808 191.306 120.162 189.877 121.239L188.65 122.165H181.684C177.85 122.165 174.542 122.09 174.317 122.015C173.966 121.89 173.916 121.339 173.916 118.534C173.916 115.73 173.966 115.179 174.317 115.054C174.542 114.979 177.324 114.903 180.531 114.903H186.369L193.36 107.992C199.525 101.907 204.16 97.3752 219.495 82.4762C221.6 80.3978 223.981 78.1192 224.757 77.418L226.161 76.0909H242.699C253.373 76.0909 259.562 75.9908 260.164 75.8155C260.69 75.6902 261.417 75.2896 261.792 74.9641C262.469 74.4132 262.494 74.288 262.419 72.41C262.369 70.8825 262.469 70.1563 262.92 69.0796C263.471 67.6523 264.699 65.6992 265.376 65.1483C267.055 63.7711 268.608 62.9197 270.437 62.4189C271.59 62.1184 272.517 61.843 272.517 61.843C272.517 61.8179 273.419 61.9932 274.522 62.1935ZM305.819 92.6676C306.595 93.3938 309.302 98.5771 309.126 99.0278C309.001 99.3283 303.613 99.3784 275.198 99.3784H241.396L232.275 108.668C222.803 118.334 210.926 130.428 207.242 134.209C200.903 140.695 199.85 141.747 199.374 142.022C198.998 142.247 195.49 142.348 186.67 142.398C176.271 142.473 174.467 142.423 174.191 142.122C173.991 141.872 173.916 140.795 173.966 138.667L174.041 135.562L184.866 135.436L195.716 135.311L200.126 130.929C202.556 128.525 208.896 122.165 214.233 116.806C230.821 100.13 235.657 95.2968 237.437 93.6692L239.14 92.1167H272.166H305.192L305.819 92.6676ZM267.957 107.091C270.813 108.092 273.043 110.021 274.572 112.85C276.075 115.655 275.599 120.287 273.469 123.317C272.267 125.02 271.415 125.771 269.385 126.823C268.132 127.474 267.731 127.549 265 127.624C262.494 127.699 261.767 127.624 260.59 127.223C258.084 126.347 255.553 124.068 254.25 121.464L253.599 120.162H249.389H245.204L242.799 122.591C241.471 123.943 239.241 126.347 237.837 127.924C236.434 129.502 234.329 131.806 233.177 133.058C232.024 134.285 230.345 136.163 229.393 137.189C228.466 138.216 226.461 140.369 224.908 141.947C223.379 143.524 220.598 146.454 218.769 148.457C214.584 153.015 209.748 158.198 208.169 159.776L206.992 160.978L190.504 160.927L174.041 160.852L173.966 157.622C173.941 155.844 173.991 154.292 174.091 154.192C174.216 154.066 180.957 153.941 189.101 153.866L203.91 153.766L205.513 152.063C208.27 149.133 211.828 145.377 212.88 144.301C213.431 143.75 214.484 142.598 215.236 141.797C215.987 140.995 218.242 138.566 220.272 136.438C222.302 134.31 224.432 132.006 225.058 131.305C225.66 130.629 226.562 129.652 227.038 129.176C227.94 128.25 228.792 127.348 233.302 122.415C234.755 120.838 237.236 118.209 238.815 116.581L241.721 113.626L247.785 113.476L253.874 113.326L254.4 112.324C255.077 110.997 256.956 108.994 258.284 108.218C261.517 106.34 264.674 105.964 267.957 107.091ZM304.49 108.568C307.573 109.42 309.076 110.221 310.88 111.999C312.985 114.102 313.912 115.805 314.363 118.384C314.739 120.562 314.539 123.417 313.862 125.045C312.659 127.924 309.652 130.954 307.147 131.781C305.393 132.382 302.762 132.932 301.759 132.932C299.88 132.932 296.748 131.881 294.643 130.504L293.966 130.078L287.877 136.213L281.788 142.323L268.558 142.473L255.328 142.598L254.4 143.474C253.448 144.376 251.995 145.528 250.943 146.229C250.592 146.454 249.965 146.93 249.514 147.281C249.063 147.631 247.635 148.708 246.332 149.684C245.029 150.661 243.851 151.537 243.701 151.663C243.425 151.863 241.27 153.415 238.815 155.093C235.432 157.422 234.179 158.323 234.054 158.474C233.979 158.549 232.751 159.45 231.297 160.477C229.844 161.503 228.441 162.555 228.165 162.805C227.188 163.682 224.983 165.034 224.131 165.284C222.577 165.71 220.498 165.009 219.571 163.757C219.145 163.181 219.019 162.655 219.019 161.503C219.019 160.126 219.094 159.926 219.846 159.15C220.748 158.273 222.177 157.472 222.903 157.472C223.53 157.472 224.231 157.046 226.662 155.118C227.915 154.142 229.368 152.99 229.919 152.589C230.471 152.188 231.047 151.763 231.172 151.663C231.974 151.012 237.562 147.005 239.191 145.903C240.619 144.927 241.12 144.551 247.109 140.044C250.066 137.84 252.722 135.887 253.022 135.737C253.423 135.512 256.981 135.436 265.827 135.436H278.08L279.684 134.009C280.561 133.233 283.192 130.754 285.522 128.5L289.757 124.419L289.431 122.516C288.905 119.21 289.481 116.706 291.435 113.952C293.215 111.373 295.269 109.92 298.326 109.044C299.153 108.794 300.055 108.518 300.331 108.393C300.932 108.117 303.213 108.218 304.49 108.568ZM313.135 141.045C313.812 141.371 314.814 141.822 315.34 142.097C316.668 142.698 319.776 145.853 320.477 147.255C323.659 153.866 320.803 161.604 314.087 164.483C312.233 165.284 311.908 165.335 309.352 165.335C306.821 165.335 306.445 165.284 304.516 164.508C302.762 163.807 300.757 162.53 299.504 161.303C299.228 161.053 295.645 160.978 281.563 160.978H263.947L260.464 164.558C258.56 166.536 255.804 169.391 254.35 170.894C252.897 172.396 250.241 175.05 248.412 176.803L245.129 180.008H209.823C182.686 180.008 174.442 179.933 174.216 179.708C174.016 179.507 173.916 178.406 173.916 176.352C173.916 173.798 173.991 173.272 174.317 173.147C174.542 173.072 189.752 172.997 208.119 172.997H241.521L242.598 172.095C243.551 171.294 258.009 156.821 259.061 155.594C259.312 155.318 259.763 154.868 260.089 154.592C260.64 154.117 261.116 154.091 278.506 153.966L296.322 153.841L296.497 151.738C296.597 150.586 296.848 149.184 297.073 148.608C298.151 145.878 300.682 143.024 303.037 141.872C305.493 140.67 306.295 140.495 309.126 140.47C311.532 140.444 312.033 140.52 313.135 141.045ZM311.557 174.9C314.664 175.701 317.345 177.379 319.199 179.708C320.953 181.886 321.505 183.514 321.68 187.145C321.83 189.974 321.204 192.178 319.575 194.582C318.222 196.56 315.766 198.413 313.261 199.289C311.406 199.94 307.522 200.065 305.844 199.565C303.087 198.713 300.105 196.61 298.677 194.481C297.174 192.278 296.723 191.051 296.547 188.472C296.447 187.195 296.272 185.993 296.121 185.818C295.946 185.592 292.287 185.517 279.433 185.517C263.471 185.517 262.97 185.492 262.168 185.016C260.414 183.94 259.838 181.686 260.94 180.083C262.043 178.431 261.191 178.506 281.237 178.506H299.404L300.882 177.429C304.29 174.9 308.099 173.999 311.557 174.9ZM281.212 191.852C284.194 191.977 284.845 192.228 285.672 193.605C286.775 195.383 285.772 197.887 283.743 198.488C282.991 198.713 275.85 198.788 255.002 198.788C232.475 198.788 227.288 198.839 227.288 199.114C227.288 199.565 227.865 200.316 230.42 203.07C231.673 204.397 233.352 206.301 234.179 207.302C235.006 208.279 236.083 209.506 236.56 210.032C237.036 210.582 238.113 211.784 238.94 212.711C240.945 214.964 242.473 216.692 243.751 218.069C244.327 218.695 245.104 219.622 245.505 220.123C245.881 220.624 247.66 222.727 249.414 224.755C251.193 226.783 253.123 229.012 253.674 229.688C254.25 230.364 254.877 231.065 255.052 231.241C255.328 231.541 257.934 231.591 270.462 231.541L285.522 231.466L286.474 230.089C288.504 227.134 290.659 225.832 294.743 225.081C298.101 224.48 302.01 226.032 304.816 229.112C305.944 230.364 307.222 232.693 307.222 233.544C307.222 233.77 307.347 234.296 307.522 234.746C308.199 236.624 306.62 241.582 304.716 243.535C301.935 246.39 299.203 247.517 295.445 247.292C292.989 247.166 291.686 246.691 289.606 245.163C287.802 243.811 287.025 242.834 285.948 240.606C285.472 239.579 284.946 238.653 284.82 238.552C284.67 238.452 279.558 238.352 273.469 238.352C263.346 238.352 262.369 238.377 262.369 238.753C262.369 239.178 263.396 240.481 265.25 242.434C265.802 243.01 266.453 243.736 266.654 244.061C266.879 244.362 267.43 245.038 267.906 245.564C268.383 246.065 269.385 247.216 270.137 248.118C270.888 249.019 271.891 250.171 272.367 250.672C272.843 251.198 273.394 251.874 273.595 252.174C273.82 252.5 274.772 253.602 275.699 254.653C277.303 256.431 277.504 256.581 278.606 256.682C281.788 257.032 284.495 258.935 285.923 261.815C286.624 263.242 286.75 263.768 286.75 265.295C286.75 270.304 282.966 274.16 278.005 274.16C274.447 274.16 271.565 272.307 269.861 268.901C269.184 267.549 269.059 267.023 269.034 265.396C269.009 263.568 269.435 261.64 270.011 260.888C270.713 259.987 270.663 259.586 269.711 258.535C269.184 257.934 268.132 256.757 267.38 255.905C266.629 255.029 265.451 253.677 264.749 252.901C264.073 252.099 263.221 251.123 262.895 250.722C262.193 249.896 259.838 247.241 256.48 243.485C255.252 242.083 253.523 240.155 252.672 239.203C251.82 238.227 250.817 237.1 250.416 236.674C246.407 232.317 245.53 231.366 245.054 230.715C244.728 230.289 244.403 229.914 244.327 229.838C244.252 229.763 243.576 228.987 242.824 228.086C242.072 227.184 240.218 225.031 238.689 223.303C234.029 217.969 233.202 216.993 232.826 216.492C232.626 216.216 232.049 215.565 231.573 215.065C230.295 213.763 227.063 210.182 226.436 209.355C226.161 208.98 225.609 208.404 225.234 208.053C224.833 207.703 224.306 207.102 224.056 206.701C223.78 206.301 223.003 205.349 222.327 204.573C221.625 203.796 220.197 202.194 219.145 200.992L217.24 198.788L195.641 198.738L174.041 198.663L173.966 195.408C173.916 192.879 173.966 192.103 174.242 191.902C174.592 191.652 275.298 191.602 281.212 191.852ZM216.388 210.282C216.664 210.482 217.391 211.208 217.992 211.91C218.593 212.611 219.646 213.813 220.297 214.564C220.974 215.315 223.605 218.37 226.161 221.325C228.717 224.279 231.423 227.384 232.149 228.211C232.876 229.037 234.53 230.89 235.783 232.342C237.061 233.795 238.714 235.648 239.441 236.474C240.168 237.3 241.872 239.279 243.225 240.856C248.788 247.367 249.765 248.518 250.993 249.846C253.599 252.75 253.348 251.298 253.348 262.917V273.158L254.801 273.809C255.578 274.16 256.606 274.636 257.057 274.836C258.309 275.412 260.565 277.841 261.417 279.543C263.271 283.149 263.321 286.404 261.542 290.286C260.264 293.04 257.758 295.319 254.726 296.446C252.571 297.247 248.587 297.247 246.457 296.446C243.325 295.269 240.744 292.94 239.491 290.186C237.612 286.104 237.687 283.55 239.792 279.193C240.569 277.59 242.799 275.437 244.678 274.485C245.655 273.984 246.532 273.459 246.633 273.308C246.733 273.158 246.833 269.252 246.833 264.619V256.206L246.031 255.229C245.58 254.703 244.753 253.752 244.177 253.126C243.601 252.5 242.924 251.724 242.674 251.398C242.423 251.073 241.646 250.171 240.995 249.395C237.311 245.138 235.733 243.26 234.179 241.382C232.926 239.855 229.218 235.623 225.559 231.616C224.507 230.464 223.48 229.262 223.279 228.987C223.079 228.687 222.552 228.111 222.126 227.71C221.274 226.934 218.869 224.154 215.286 219.872C214.108 218.495 212.905 217.243 212.605 217.093C212.254 216.943 205.288 216.842 193.235 216.842C182.861 216.842 174.292 216.767 174.141 216.692C173.79 216.467 173.841 210.482 174.242 210.082C174.718 209.606 215.687 209.781 216.388 210.282ZM311.206 210.032C311.682 210.332 312.008 213.312 311.732 214.814C311.331 216.993 313.762 216.817 284.77 216.817C259.462 216.817 259.086 216.817 258.009 216.317C257.432 216.016 256.53 215.415 256.029 214.964C255.227 214.238 255.102 213.963 255.102 213.061C255.102 212.16 255.252 211.859 255.979 211.158C256.505 210.683 257.307 210.232 257.934 210.107C259.312 209.781 310.73 209.731 311.206 210.032ZM210.149 230.139C213.381 233.519 217.19 237.901 220.723 242.283C221.475 243.235 221.65 243.31 223.48 243.586C227.113 244.136 229.669 245.464 231.749 247.792C234.129 250.497 235.056 252.85 235.056 256.281C235.056 257.583 234.956 258.835 234.806 259.085C234.68 259.311 234.304 260.137 233.979 260.888C233.653 261.64 232.976 262.791 232.475 263.468L231.548 264.644L231.498 287.882L231.423 311.094L229.894 311.845C227.414 313.072 226.336 313.498 225.609 313.548L224.908 313.598L224.783 290.812L224.657 268.025L222.653 267.975C216.564 267.825 211.753 264.069 210.074 258.134C209.698 256.732 209.673 254.328 210.024 253.001C210.525 251.173 211.978 248.518 213.131 247.292C213.757 246.64 214.258 245.989 214.258 245.889C214.258 245.664 212.68 243.811 209.397 240.23C208.245 238.978 206.716 237.275 205.964 236.449C205.213 235.598 204.336 234.821 203.985 234.746C203.634 234.646 196.868 234.621 188.95 234.646C181.007 234.671 174.392 234.621 174.216 234.496C173.891 234.296 173.765 228.561 174.091 228.261C174.166 228.161 181.884 228.086 191.205 228.086H208.144L210.149 230.139ZM188.775 247.191C189.502 247.918 190.454 248.944 190.93 249.495C191.406 250.046 192.408 251.173 193.185 252.024C193.962 252.85 195.265 254.303 196.092 255.254C198.397 257.859 199.8 259.436 200.351 260.037C200.627 260.338 201.805 261.64 202.982 262.917C204.16 264.194 205.513 265.671 205.989 266.197C206.465 266.698 207.493 267.825 208.245 268.676C208.996 269.527 210.45 271.105 211.452 272.207L213.256 274.185V295.795C213.256 312.797 213.181 317.48 212.955 317.655C212.68 317.855 210.5 318.506 207.794 319.157C206.39 319.508 206.465 320.459 206.541 298.023L206.616 277.415L204.185 274.961C202.857 273.634 201.228 271.906 200.552 271.155C199.9 270.404 198.898 269.327 198.347 268.751C197.796 268.175 196.843 267.123 196.217 266.397C195.59 265.671 194.638 264.594 194.087 264.018C193.536 263.443 192.559 262.341 191.932 261.615C187.572 256.506 184.139 252.926 183.513 252.75C183.137 252.675 180.932 252.625 178.602 252.675C175.093 252.725 174.342 252.675 174.166 252.375C173.816 251.799 173.841 246.54 174.216 246.165C174.442 245.939 176.296 245.864 181.007 245.864H187.497L188.775 247.191ZM183.613 263.943C184.139 264.394 184.791 265.045 185.091 265.396C185.392 265.746 185.893 266.297 186.194 266.648C186.495 266.998 187.221 267.825 187.798 268.501C188.349 269.177 189.151 270.078 189.552 270.504C191.556 272.682 193.636 275.061 194.613 276.313L195.716 277.715V299.576V321.436L195.039 321.686C194.388 321.937 192.383 322.187 190.203 322.312L189.326 322.362L189.201 301.579C189.126 288.383 188.975 280.645 188.825 280.37C188.499 279.844 184.966 275.637 181.959 272.207L180.606 270.654H177.9C176.422 270.654 174.918 270.554 174.567 270.404L173.916 270.153V266.948C173.916 264.795 174.016 263.643 174.216 263.443C174.417 263.242 175.745 263.142 178.602 263.142H182.661L183.613 263.943ZM175.996 280.72C176.722 281.296 177.9 282.348 178.627 283.024L179.93 284.276V303.858V323.439L179.253 323.69C178.326 324.04 174.617 324.29 174.216 324.04C173.966 323.865 173.916 319.358 173.916 301.98C173.916 289.96 173.991 280.019 174.066 279.894C174.317 279.493 174.693 279.644 175.996 280.72Z" class="color0A4A5F svgShape color100d11 color1f1f25"></path><path fill="#0c0f1f" d="M204.26 24.5326C202.932 25.2087 202.305 26.1853 202.105 27.8881 201.929 29.2903 202.18 30.0666 203.282 31.2935 204.109 32.22 204.786 32.5205 206.114 32.5205 208.569 32.5205 210.248 30.8178 210.248 28.3388 210.223 27.1619 210.098 26.6861 209.547 25.8848 208.319 24.132 206.164 23.5811 204.26 24.5326zM250.216 40.86C248.863 41.3858 248.362 41.7865 247.936 42.5878 247.385 43.6395 247.385 45.5926 247.936 46.4189 249.289 48.4973 252.521 48.5975 254.075 46.6443 254.476 46.1435 254.601 45.6177 254.601 44.5159 254.601 43.1887 254.526 42.9383 253.724 42.0619 253.248 41.5361 252.597 41.0353 252.271 40.9602 251.97 40.9101 251.544 40.7849 251.344 40.7098 251.143 40.6346 250.642 40.7098 250.216 40.86zM271.766 68.5036C270.037 69.405 268.984 71.0827 269.235 72.5351 269.661 75.2394 272.292 76.7669 274.798 75.7152 275.825 75.2895 276.176 74.964 276.878 73.8121 277.93 72.0843 277.178 69.8307 275.174 68.7289 273.795 67.9777 272.843 67.9276 271.766 68.5036zM262.995 113.276C262.443 113.476 261.967 113.652 261.942 113.652 261.892 113.652 261.591 114.102 261.216 114.678 259.988 116.631 260.414 119.186 262.193 120.513 262.744 120.913 263.27 121.039 264.598 121.039 266.077 121.039 266.402 120.938 267.229 120.312 268.457 119.386 268.983 118.134 268.783 116.707 268.557 115.129 267.981 114.303 266.503 113.552 265.024 112.825 264.423 112.775 262.995 113.276zM300.657 115.279C298.702 115.805 297.324 117.032 296.622 118.86 296.071 120.262 296.096 121.289 296.722 122.666 297.374 124.143 297.825 124.594 299.278 125.32 301.784 126.597 305.317 125.696 306.871 123.392 308.048 121.614 308.149 120.462 307.222 118.559 306.37 116.731 305.242 115.805 303.187 115.254 302.436 115.079 301.834 114.928 301.834 114.928 301.834 114.928 301.308 115.104 300.657 115.279zM306.72 148.132C303.237 149.91 302.385 154.242 305.041 156.721 305.768 157.422 307.371 158.248 308.474 158.499 310.353 158.924 313.41 157.497 314.212 155.819 314.388 155.419 314.638 154.893 314.763 154.668 315.164 153.866 314.989 152.189 314.362 150.836 313.736 149.559 312.383 148.207 311.681 148.207 311.481 148.207 311.23 148.107 311.105 147.982 310.955 147.857 310.228 147.681 309.476 147.606 308.273 147.456 307.923 147.531 306.72 148.132zM307.547 182.187C306.57 182.312 304.615 183.99 303.964 185.292 302.586 187.971 304.114 191.377 307.146 192.529 308.85 193.155 309.627 193.155 311.331 192.529 314.212 191.452 315.716 188.322 314.613 185.693 313.486 182.963 311.055 181.761 307.547 182.187zM294.016 232.167C292.763 232.818 292.237 233.469 291.811 234.971 291.535 235.873 291.535 236.248 291.836 237.3 292.463 239.429 294.091 240.605 296.347 240.605 297.875 240.605 299.028 240.03 299.955 238.778 301.158 237.125 300.932 234.771 299.378 232.793 298.927 232.217 297.123 231.591 295.971 231.591 295.47 231.616 294.593 231.866 294.016 232.167zM276.276 263.267C275.775 263.743 275.649 264.119 275.649 265.045 275.649 266.723 276.526 267.649 278.105 267.649 280.385 267.649 281.488 265.17 280.009 263.418 279.458 262.742 279.208 262.641 278.13 262.641 277.128 262.641 276.752 262.767 276.276 263.267zM248.837 279.819C247.559 280.219 245.955 281.672 245.429 282.899 245.003 283.925 244.978 286.354 245.404 287.081 246.055 288.232 247.434 289.534 248.311 289.835 249.639 290.311 251.794 290.261 252.996 289.71 254.625 288.984 256.103 286.755 256.103 285.052 256.103 284.051 255.277 282.022 254.525 281.221 253.197 279.794 250.766 279.193 248.837 279.819zM220.547 250.347C219.72 250.572 217.741 252.275 217.189 253.251 216.713 254.153 216.538 255.73 216.814 256.982 217.29 259.261 219.821 261.139 222.376 261.139 224.005 261.139 225.935 260.213 226.962 258.961 227.889 257.834 227.914 257.734 227.914 255.881 227.914 254.078 227.864 253.903 226.962 252.701 225.509 250.722 222.903 249.771 220.547 250.347z" class="color0A4A5F svgShape color100d11 color1f1f25"></path></svg></svg></svg></g></svg>