<svg width="679" height="170" viewBox="0 0 679 170" fill="none" xmlns="http://www.w3.org/2000/svg">
<path d="M188.489 102.108C188.44 104.397 188.376 106.526 188.296 108.51H188.681C191.009 104.813 193.932 101.916 197.432 99.8519C200.932 97.7874 205.138 96.7471 210.068 96.7471C217.582 96.7471 223.442 98.8757 227.633 103.149C231.823 107.406 233.926 113.295 233.926 120.785V167.549H217.469V123.49C217.469 119.361 216.329 116.128 214.033 113.808C211.737 111.487 208.478 110.319 204.255 110.319C201.927 110.319 199.808 110.735 197.897 111.551C196.003 112.367 194.349 113.535 192.968 115.04C191.587 116.544 190.512 118.337 189.725 120.401C188.938 122.466 188.553 124.706 188.553 127.123V167.565H172.096V71.4126H188.553V97.2432C188.553 98.1875 188.537 99.8039 188.489 102.092V102.108Z" fill="#1B113C"/>
<path d="M291.728 157.706H291.471C288.966 161.499 286.092 164.38 282.849 166.364C279.606 168.349 275.528 169.341 270.599 169.341C262.988 169.341 257.096 167.165 252.905 162.812C248.715 158.458 246.611 152.537 246.611 145.047V98.539H263.068V142.726C263.068 146.855 264.192 150.04 266.44 152.281C268.688 154.521 271.883 155.642 276.025 155.642C280.698 155.642 284.407 154.073 287.168 150.92C289.93 147.784 291.311 143.799 291.311 138.965V98.5229H307.639V167.501H291.696V157.69L291.728 157.706Z" fill="#1B113C"/>
<path d="M337.344 98.555V109.022H337.73C339.977 105.149 342.803 102.14 346.223 99.9794C349.627 97.8189 353.721 96.7466 358.474 96.7466C362.873 96.7466 366.662 97.8189 369.809 99.9794C372.956 102.14 375.316 105.357 376.873 109.662H377.13C379.892 105.181 383.135 101.916 386.844 99.8514C390.553 97.7869 394.583 96.7466 398.902 96.7466C405.983 96.7466 411.49 98.8751 415.423 103.148C419.357 107.405 421.316 113.295 421.316 120.785V167.549H404.859V122.977C404.859 119.008 403.815 115.92 401.744 113.679C399.673 111.438 396.943 110.318 393.587 110.318C389.525 110.318 386.17 111.822 383.537 114.831C380.903 117.84 379.587 121.809 379.587 126.722V167.549H363.13V122.977C363.13 119.008 362.182 115.92 360.272 113.679C358.377 111.438 355.696 110.318 352.244 110.318C350.349 110.318 348.535 110.734 346.801 111.55C345.067 112.367 343.542 113.487 342.193 114.911C340.86 116.336 339.801 118.048 339.014 120.081C338.227 122.113 337.842 124.322 337.842 126.738V167.565H321.385V98.5871H337.328L337.344 98.555Z" fill="#1B113C"/>
<path d="M477.912 164.236C477.526 162.812 477.237 160.939 477.061 158.619H476.804C474.556 161.628 471.746 164.156 468.375 166.173C465.003 168.189 460.555 169.214 455.032 169.214C451.66 169.214 448.53 168.782 445.64 167.917C442.75 167.053 440.261 165.757 438.19 164.044C436.119 162.316 434.481 160.187 433.261 157.643C432.056 155.098 431.446 152.153 431.446 148.792C431.446 144.919 432.153 141.703 433.582 139.174C435.011 136.645 436.969 134.581 439.474 133.044C441.979 131.492 444.965 130.308 448.417 129.491C451.869 128.675 455.674 128.003 459.817 127.491C465.517 126.803 469.803 125.826 472.645 124.578C475.487 123.33 476.916 121.153 476.916 118.048C476.916 114.944 475.873 112.623 473.801 110.815C471.73 109.006 468.615 108.094 464.473 108.094C459.801 108.094 456.333 109.086 454.037 111.071C451.741 113.055 450.521 115.76 450.344 119.217H434.786C434.866 116.288 435.54 113.471 436.793 110.751C438.045 108.046 439.908 105.645 442.364 103.581C444.821 101.516 447.871 99.8518 451.5 98.6034C455.129 97.3551 459.399 96.731 464.328 96.731C468.31 96.731 471.827 97.035 474.893 97.6272C477.96 98.2353 480.625 99.2596 482.857 100.732C489.424 104.701 492.699 111.247 492.699 120.369V156.666C492.699 159.515 492.94 161.708 493.405 163.26C493.887 164.812 494.513 165.837 495.284 166.365V167.533H479.341C478.73 166.765 478.233 165.661 477.847 164.236H477.912ZM467.347 156.618C469.514 155.722 471.329 154.554 472.79 153.129C474.251 151.705 475.375 150.073 476.162 148.216C476.932 146.36 477.334 144.455 477.334 142.471V132.26C475.696 133.3 473.657 134.181 471.249 134.901C468.824 135.637 466.368 136.261 463.863 136.773C458.773 137.718 454.84 138.95 452.078 140.454C449.316 141.959 447.936 144.615 447.936 148.392C447.936 150.201 448.257 151.721 448.915 152.985C449.557 154.234 450.424 155.226 451.5 155.962C452.576 156.698 453.86 157.211 455.321 157.515C456.798 157.819 458.308 157.963 459.865 157.963C462.723 157.963 465.228 157.515 467.379 156.602L467.347 156.618Z" fill="#1B113C"/>
<path d="M523.075 98.5552V167.533H506.618V98.5552H523.075Z" fill="#1B113C"/>
<path d="M550.804 167.213C547.095 165.532 543.932 163.1 541.347 159.915C538.762 156.73 536.739 152.873 535.326 148.36C533.913 143.847 533.19 138.773 533.19 133.188C533.19 127.602 533.929 122.673 535.39 118.208C536.867 113.727 538.938 109.902 541.62 106.717C544.301 103.532 547.48 101.084 551.141 99.3551C554.801 97.6267 558.848 96.7785 563.263 96.7785C568.096 96.7785 572.286 97.8348 575.834 99.9473C579.383 102.06 582.273 104.925 584.521 108.542H584.778C584.601 106.653 584.473 104.428 584.392 101.884C584.312 99.3391 584.264 96.7785 584.264 94.2018V71.46H600.721V167.565H584.778V157.482H584.521C582.369 161.531 579.463 164.588 575.834 166.652C572.206 168.717 568.015 169.757 563.263 169.757C558.51 169.757 554.529 168.925 550.82 167.245L550.804 167.213ZM574.582 154.617C576.878 153.497 578.773 151.897 580.282 149.832C581.791 147.768 582.931 145.303 583.718 142.47C584.505 139.638 584.89 136.533 584.89 133.172C584.89 129.811 584.505 126.562 583.718 123.681C582.931 120.801 581.791 118.304 580.282 116.191C578.773 114.079 576.862 112.447 574.582 111.278C572.286 110.11 569.637 109.534 566.619 109.534C563.857 109.534 561.416 110.11 559.297 111.278C557.178 112.447 555.428 114.079 554.047 116.191C552.666 118.304 551.622 120.801 550.932 123.681C550.242 126.562 549.888 129.683 549.888 133.044C549.888 139.926 551.269 145.527 554.031 149.832C556.792 154.137 560.983 156.298 566.602 156.298C569.621 156.298 572.286 155.738 574.566 154.617H574.582Z" fill="#1B113C"/>
<path d="M524.07 87.5689H506.557L509.925 71.4023H527.438L524.07 87.5689Z" fill="#1B113C"/>
<path d="M631.354 166.765C626.987 164.877 623.294 162.284 620.276 159.019C617.257 155.754 614.945 151.897 613.34 147.464C611.734 143.031 610.947 138.278 610.947 133.189C610.947 128.099 611.766 123.218 613.404 118.785C615.041 114.352 617.386 110.495 620.404 107.23C623.423 103.965 627.051 101.388 631.29 99.5479C635.529 97.7074 640.185 96.7632 645.291 96.7632C650.396 96.7632 654.908 97.5954 658.842 99.2758C662.775 100.956 666.211 103.341 669.149 106.446C672.521 110.063 675.026 114.48 676.663 119.681C678.301 124.898 679.088 130.724 678.992 137.19H627.276C627.886 143.127 629.765 147.928 632.912 151.593C636.058 155.258 640.538 157.083 646.318 157.083C650.284 157.083 653.559 156.283 656.096 154.698C658.649 153.098 660.479 150.889 661.603 148.04H677.675C676.808 151.145 675.491 154.01 673.725 156.635C671.959 159.259 669.727 161.548 667.046 163.484C664.365 165.421 661.282 166.925 657.782 168.014C654.282 169.086 650.412 169.63 646.19 169.63C640.666 169.63 635.705 168.686 631.354 166.781V166.765ZM632.847 113.664C629.989 117.024 628.223 121.41 627.533 126.835H662.005C661.651 121.153 660.046 116.688 657.14 113.471C654.234 110.255 650.3 108.622 645.274 108.622C639.832 108.622 635.689 110.303 632.831 113.664H632.847Z" fill="#1B113C"/>
<path d="M124.557 92.1654L137.53 40.2634C138.099 37.9885 136.704 35.6886 134.74 35.6698L106.229 35.4191C104.896 35.4066 103.727 36.4782 103.376 38.0324L94.3376 77.8895C93.7059 80.6594 91.6291 82.5834 89.2521 82.5708L66.3581 82.5019C62.8927 82.4894 60.3844 78.4911 61.2976 74.4365L69.1354 39.8936C69.6483 37.625 68.2409 35.394 66.3018 35.394H18.4807C17.1859 35.394 16.0474 36.4218 15.6721 37.9196L0.12794 100.112C-0.441284 102.393 0.959883 104.693 2.92402 104.705L14.0896 104.768C17.605 104.787 20.1196 108.91 19.1 112.99L6.12668 164.892C5.55746 167.167 6.95237 169.467 8.91651 169.486L37.4277 169.736C38.7601 169.749 39.9298 168.677 40.2801 167.123L49.6254 125.912C50.2509 123.142 52.3277 121.231 54.6984 121.231H77.6112C81.0828 121.231 83.6037 125.235 82.6842 129.296L74.5274 165.256C74.0145 167.524 75.4219 169.755 77.361 169.755H125.176C126.471 169.755 127.609 168.727 127.984 167.23L143.522 105.044C144.092 102.763 142.69 100.463 140.726 100.45L129.561 100.387C126.045 100.369 123.531 96.2451 124.55 92.1654H124.557Z" fill="#1B113C"/>
<path d="M142.861 2.95135L137.494 31.7855C137.058 34.1405 138.555 36.3748 140.575 36.3748H173.605C175.032 36.3748 176.282 35.2275 176.648 33.582L183.114 4.74782C183.651 2.35504 182.142 0 180.071 0H145.942C144.465 0 143.183 1.23036 142.861 2.95135Z" fill="#1B113C"/>
</svg>
