<svg width="507" height="99" viewBox="0 0 507 99" fill="none" xmlns="http://www.w3.org/2000/svg">
<path d="M16.3929 30.7062C16.3447 32.9947 16.2805 35.1233 16.2002 37.1078H16.5856C18.9137 33.4109 21.8358 30.5141 25.336 28.4496C28.8361 26.385 33.0427 25.3448 37.9718 25.3448C45.4859 25.3448 51.3463 27.4733 55.5368 31.7464C59.7274 36.0035 61.8307 41.893 61.8307 49.383V96.147H45.3735V52.0877C45.3735 47.9586 44.2336 44.7258 41.9376 42.4052C39.6416 40.0846 36.3823 38.9163 32.1597 38.9163C29.8316 38.9163 27.7122 39.3324 25.8016 40.1486C23.907 40.9648 22.2533 42.1331 20.8725 43.6375C19.4917 45.1419 18.4159 46.9343 17.6292 48.9989C16.8425 51.0634 16.4571 53.304 16.4571 55.7206V96.163H0V0.0102539H16.4571V25.8409C16.4571 26.7851 16.4411 28.4016 16.3929 30.6901V30.7062Z" fill="#1B113C"/>
<path d="M119.632 86.3038H119.375C116.871 90.0968 113.997 92.9776 110.753 94.9621C107.51 96.9466 103.432 97.9388 98.5029 97.9388C90.8925 97.9388 85 95.7623 80.8095 91.4092C76.6189 87.056 74.5156 81.1345 74.5156 73.6446V27.1366H90.9728V71.324C90.9728 75.453 92.0967 78.6379 94.3445 80.8784C96.5923 83.119 99.7874 84.2393 103.93 84.2393C108.602 84.2393 112.311 82.6709 115.072 79.5181C117.834 76.3813 119.215 72.3963 119.215 67.563V27.1206H135.544V96.0984H119.6V86.2878L119.632 86.3038Z" fill="#1B113C"/>
<path d="M165.248 27.1527V37.6194H165.634C167.882 33.7464 170.707 30.7376 174.127 28.5771C177.531 26.4165 181.625 25.3442 186.378 25.3442C190.777 25.3442 194.566 26.4165 197.713 28.5771C200.86 30.7376 203.22 33.9545 204.778 38.2596H205.035C207.796 33.7784 211.039 30.5136 214.748 28.449C218.457 26.3845 222.487 25.3442 226.806 25.3442C233.887 25.3442 239.394 27.4728 243.328 31.7459C247.261 36.003 249.22 41.8925 249.22 49.3824V96.1465H232.763V51.575C232.763 47.606 231.719 44.5172 229.648 42.2766C227.577 40.036 224.847 38.9157 221.492 38.9157C217.43 38.9157 214.074 40.4201 211.441 43.4289C208.808 46.4377 207.491 50.4067 207.491 55.32V96.1465H191.034V51.575C191.034 47.606 190.087 44.5172 188.176 42.2766C186.281 40.036 183.6 38.9157 180.148 38.9157C178.254 38.9157 176.439 39.3318 174.705 40.148C172.971 40.9643 171.446 42.0846 170.097 43.5089C168.765 44.9333 167.705 46.6457 166.918 48.6782C166.132 50.7108 165.746 52.9193 165.746 55.336V96.1625H149.289V27.1847H165.232L165.248 27.1527Z" fill="#1B113C"/>
<path d="M305.816 92.834C305.431 91.4096 305.142 89.5371 304.965 87.2166H304.708C302.46 90.2253 299.651 92.754 296.279 94.7705C292.907 96.787 288.46 97.8113 282.936 97.8113C279.565 97.8113 276.434 97.3792 273.544 96.5149C270.654 95.6507 268.165 94.3544 266.094 92.6419C264.023 90.9135 262.385 88.785 261.165 86.2403C259.961 83.6956 259.351 80.7509 259.351 77.39C259.351 73.517 260.057 70.3002 261.486 67.7715C262.915 65.2429 264.874 63.1784 267.378 61.642C269.883 60.0896 272.87 58.9053 276.322 58.0891C279.774 57.2728 283.579 56.6007 287.721 56.0885C293.421 55.4004 297.708 54.4241 300.55 53.1758C303.392 51.9275 304.82 49.7509 304.82 46.6461C304.82 43.5413 303.777 41.2207 301.706 39.4122C299.634 37.6038 296.52 36.6915 292.377 36.6915C287.705 36.6915 284.237 37.6838 281.941 39.6683C279.645 41.6528 278.425 44.3575 278.248 47.8144H262.69C262.77 44.8856 263.445 42.0689 264.697 39.3482C265.949 36.6435 267.812 34.2429 270.268 32.1784C272.725 30.1138 275.776 28.4494 279.404 27.2011C283.033 25.9528 287.304 25.3286 292.233 25.3286C296.215 25.3286 299.731 25.6327 302.797 26.2248C305.864 26.833 308.529 27.8573 310.761 29.3296C317.328 33.2987 320.603 39.8444 320.603 48.9667V85.264C320.603 88.1128 320.844 90.3054 321.31 91.8578C321.791 93.4101 322.418 94.4344 323.188 94.9626V96.1308H307.245C306.635 95.3626 306.137 94.2584 305.752 92.834H305.816ZM295.251 85.216C297.419 84.3198 299.233 83.1515 300.694 81.7271C302.155 80.3028 303.279 78.6704 304.066 76.8139C304.837 74.9574 305.238 73.0529 305.238 71.0684V60.8578C303.6 61.898 301.561 62.7783 299.153 63.4984C296.728 64.2346 294.272 64.8588 291.767 65.3709C286.677 66.3152 282.744 67.5475 279.982 69.0519C277.221 70.5563 275.84 73.2129 275.84 76.9899C275.84 78.7984 276.161 80.3188 276.819 81.5831C277.461 82.8314 278.328 83.8237 279.404 84.5599C280.48 85.2961 281.764 85.8082 283.225 86.1123C284.703 86.4163 286.212 86.5604 287.769 86.5604C290.627 86.5604 293.132 86.1123 295.283 85.2L295.251 85.216Z" fill="#FCFF35"/>
<path d="M350.98 27.1528V96.1306H334.522V27.1528H350.98Z" fill="#FCFF35"/>
<path d="M378.708 95.8103C374.999 94.1299 371.836 91.6972 369.251 88.5124C366.666 85.3276 364.643 81.4706 363.23 76.9574C361.817 72.4443 361.095 67.371 361.095 61.7855C361.095 56.2001 361.833 51.2708 363.294 46.8057C364.771 42.3245 366.843 38.4995 369.524 35.3147C372.205 32.1299 375.384 29.6813 379.045 27.9528C382.706 26.2244 386.752 25.3761 391.167 25.3761C396 25.3761 400.19 26.4324 403.739 28.545C407.287 30.6575 410.177 33.5222 412.425 37.1392H412.682C412.505 35.2507 412.377 33.0261 412.297 30.4815C412.216 27.9368 412.168 25.3761 412.168 22.7995V0.0576172H428.625V96.1624H412.682V86.0798H412.425C410.273 90.1288 407.367 93.1856 403.739 95.2502C400.11 97.3147 395.92 98.3549 391.167 98.3549C386.415 98.3549 382.433 97.5227 378.724 95.8423L378.708 95.8103ZM402.486 83.215C404.782 82.0948 406.677 80.4943 408.186 78.4298C409.696 76.3653 410.835 73.9006 411.622 71.0679C412.409 68.2352 412.794 65.1304 412.794 61.7695C412.794 58.4087 412.409 55.1598 411.622 52.2791C410.835 49.3983 409.696 46.9017 408.186 44.7891C406.677 42.6766 404.766 41.0442 402.486 39.8759C400.19 38.7076 397.541 38.1314 394.523 38.1314C391.761 38.1314 389.321 38.7076 387.201 39.8759C385.082 41.0442 383.332 42.6766 381.951 44.7891C380.57 46.9017 379.527 49.3983 378.836 52.2791C378.146 55.1598 377.793 58.2806 377.793 61.6415C377.793 68.5233 379.174 74.1247 381.935 78.4298C384.697 82.7349 388.887 84.8955 394.507 84.8955C397.525 84.8955 400.19 84.3353 402.47 83.215H402.486Z" fill="#1B113C"/>
<path d="M351.975 16.1666H334.461L337.829 0H355.343L351.975 16.1666Z" fill="#FCFF35"/>
<path d="M459.258 95.3629C454.891 93.4744 451.198 90.8817 448.18 87.6169C445.161 84.352 442.849 80.495 441.244 76.0619C439.638 71.6287 438.852 66.8755 438.852 61.7862C438.852 56.6969 439.67 51.8156 441.308 47.3825C442.946 42.9494 445.29 39.0924 448.308 35.8275C451.327 32.5627 454.956 29.986 459.194 28.1456C463.433 26.3051 468.089 25.3608 473.195 25.3608C478.301 25.3608 482.812 26.1931 486.746 27.8735C490.68 29.5539 494.115 31.9385 497.054 35.0433C500.425 38.6603 502.93 43.0774 504.568 48.2787C506.205 53.4961 506.992 59.3216 506.896 65.7872H455.18C455.79 71.7248 457.669 76.526 460.816 80.1909C463.963 83.8559 468.442 85.6804 474.222 85.6804C478.188 85.6804 481.464 84.8802 484 83.2958C486.553 81.6953 488.384 79.4868 489.507 76.638H505.579C504.712 79.7428 503.396 82.6076 501.63 85.2322C499.863 87.8569 497.632 90.1455 494.95 92.082C492.269 94.0185 489.186 95.5229 485.686 96.6112C482.186 97.6835 478.317 98.2276 474.094 98.2276C468.571 98.2276 463.61 97.2833 459.258 95.3789V95.3629ZM460.752 42.2612C457.894 45.6221 456.128 50.0072 455.437 55.4326H489.909C489.556 49.7511 487.95 45.286 485.044 42.0691C482.138 38.8523 478.204 37.2199 473.179 37.2199C467.736 37.2199 463.593 38.9003 460.736 42.2612H460.752Z" fill="#1B113C"/>
</svg>
