<svg width="241" height="223" viewBox="0 0 241 223" fill="none" xmlns="http://www.w3.org/2000/svg">
<path d="M163.308 120.839L180.317 52.7895C181.063 49.8069 179.235 46.7914 176.659 46.7668L139.278 46.4381C137.531 46.4217 135.997 47.8267 135.538 49.8644L123.687 102.122C122.859 105.753 120.136 108.276 117.02 108.259L87.0029 108.169C82.4594 108.153 79.1707 102.91 80.3681 97.5943L90.6443 52.3047C91.3168 49.3304 89.4715 46.4053 86.9291 46.4053H24.2303C22.5326 46.4053 21.04 47.7528 20.5479 49.7165L0.167744 131.257C-0.578573 134.248 1.25851 137.264 3.83372 137.28L18.473 137.362C23.0821 137.387 26.379 142.793 25.0422 148.142L8.03277 216.192C7.28646 219.174 9.11534 222.19 11.6905 222.214L49.072 222.543C50.8189 222.56 52.3525 221.155 52.8118 219.117L65.0645 165.085C65.8846 161.453 68.6074 158.947 71.7157 158.947H101.757C106.309 158.947 109.614 164.198 108.408 169.522L97.7138 216.668C97.0413 219.643 98.8866 222.568 101.429 222.568H164.12C165.817 222.568 167.31 221.22 167.802 219.257L188.174 137.724C188.92 134.733 187.083 131.718 184.508 131.701L169.869 131.619C165.26 131.594 161.963 126.188 163.299 120.839H163.308Z" fill="white"/>
<path d="M187.307 3.86955L180.27 41.6744C179.699 44.7621 181.661 47.6915 184.31 47.6915H227.616C229.487 47.6915 231.126 46.1872 231.606 44.0298L240.084 6.22493C240.787 3.08772 238.809 0 236.093 0H191.347C189.41 0 187.729 1.61314 187.307 3.86955Z" fill="#FCFF35"/>
</svg>
