<svg id="Ebene_1" data-name="Ebene 1" xmlns="http://www.w3.org/2000/svg" width="149.87" height="45.87" viewBox="0 0 149.87 45.87">
  <defs>
    <style>
      .cls-1 {
        fill: #0068b4;
      }

      .cls-2 {
        fill: #1d1d1b;
      }

      .cls-3 {
        fill: #96241a;
      }
    </style>
  </defs>
  <path class="cls-1" d="M149.87,0H122.76V9.31a18.28,18.28,0,0,1,17.89,17.8h9.22Z" transform="translate(0)"/>
  <path class="cls-2" d="M21.73,33.74a4.06,4.06,0,0,1-3.52,4.31,29.93,29.93,0,0,1-4.78.22H7V29h5.64a23.12,23.12,0,0,1,6.18.5A4.2,4.2,0,0,1,21,31.1a4.56,4.56,0,0,1,.76,2.64M20.45,19.23a3.64,3.64,0,0,1-1,2.69,4.58,4.58,0,0,1-2.82,1.24c-.66.08-2.35.12-5.06.12H7v-8h4q4.92,0,6,.12a4,4,0,0,1,2.63,1.21,3.8,3.8,0,0,1,.88,2.61m1.94,6.5a8.2,8.2,0,0,0,4.85-7.49,7.79,7.79,0,0,0-1.06-4,8.8,8.8,0,0,0-2.65-2.89,9,9,0,0,0-3.61-1.43,40.91,40.91,0,0,0-6.11-.34H0V44.09H11.76c4.44,0,7.25-.11,8.41-.24a9.86,9.86,0,0,0,4.68-1.64,9.21,9.21,0,0,0,3-3.55,10.33,10.33,0,0,0,1.1-4.59,8.3,8.3,0,0,0-1.7-5.2,9.07,9.07,0,0,0-4.85-3.14" transform="translate(0)"/>
  <rect class="cls-3" x="32.78" y="9.54" width="6.62" height="7.31"/>
  <rect class="cls-3" x="32.78" y="22.95" width="6.62" height="21.14"/>
  <path class="cls-2" d="M64.61,20.26A4.61,4.61,0,0,1,63.82,23a4.53,4.53,0,0,1-2.18,1.7,18,18,0,0,1-5.51.54H52.31v-9.8h3.37a34.77,34.77,0,0,1,5,.23,4.92,4.92,0,0,1,2.81,1.53,4.51,4.51,0,0,1,1.1,3.11m7.19-.09a10.77,10.77,0,0,0-2-6.73,9.1,9.1,0,0,0-5-3.38,41.07,41.07,0,0,0-8.3-.52H45.34V44.09h7v-13h4.55a39.81,39.81,0,0,0,7.24-.5,10,10,0,0,0,3.61-1.64,9.35,9.35,0,0,0,2.94-3.4,11.29,11.29,0,0,0,1.15-5.35" transform="translate(0)"/>
  <path class="cls-2" d="M95.72,19.68A4.51,4.51,0,0,1,95,22.27a3.74,3.74,0,0,1-2,1.46,26.89,26.89,0,0,1-6.27.42H81.63V15.39h5.44c2.83,0,4.53,0,5.09.12a4.21,4.21,0,0,1,2.63,1.35,4.13,4.13,0,0,1,.93,2.82m4.9,6a9.2,9.2,0,0,0,2.29-6.42,10,10,0,0,0-1.51-5.45,8,8,0,0,0-4-3.31,25.12,25.12,0,0,0-8-.93H74.66V44.09h7V29.67H83a11.78,11.78,0,0,1,3.51.38,5.36,5.36,0,0,1,2.1,1.44,48.19,48.19,0,0,1,3.68,5.08l5,7.52h8.34l-4.22-6.74a38,38,0,0,0-4-5.61,16.24,16.24,0,0,0-3.73-2.9,11,11,0,0,0,6.83-3.19" transform="translate(0)"/>
  <path class="cls-3" d="M122.76,9.31h-.38a18.28,18.28,0,1,0,18.28,18.28c0-.16,0-.32,0-.48H122.76Z" transform="translate(0)"/>
</svg>
