<?xml version="1.0" encoding="utf-8"?>
<!-- Generator: Adobe Illustrator 23.1.0, SVG Export Plug-In . SVG Version: 6.00 Build 0)  -->
<svg version="1.1" id="Ebene_1" xmlns="http://www.w3.org/2000/svg" xmlns:xlink="http://www.w3.org/1999/xlink" x="0px" y="0px"
	 viewBox="0 0 283.46 283.46" style="enable-background:new 0 0 283.46 283.46;" xml:space="preserve">
<style type="text/css">
	.st0{fill-rule:evenodd;clip-rule:evenodd;fill:#006CB5;}
</style>
<path class="st0" d="M86.8,61.22h-3.86v-2.6c-0.22,0.76-0.74,1.45-1.56,2.07c-0.83,0.62-2.11,0.93-3.84,0.93
	c-0.89,0-1.75-0.18-2.56-0.55c-0.81-0.37-1.53-0.89-2.13-1.56c-0.61-0.68-1.09-1.49-1.44-2.44c-0.35-0.95-0.53-2.01-0.53-3.17V39.92
	c0-2.9,0.72-5.05,2.15-6.46c1.44-1.41,3.46-2.11,6.06-2.11c2.3,0,4.18,0.63,5.63,1.89c1.45,1.26,2.26,3.23,2.42,5.92h-5.08
	c0-1.03-0.29-1.79-0.87-2.28c-0.58-0.49-1.28-0.73-2.09-0.73c-0.98,0-1.75,0.36-2.34,1.08c-0.58,0.72-0.87,1.69-0.87,2.91v13.05
	c0,1.3,0.29,2.24,0.87,2.8c0.58,0.57,1.36,0.85,2.34,0.85c0.95,0,1.69-0.28,2.24-0.85c0.54-0.57,0.81-1.5,0.81-2.8v-4.39h-2.4v-4.23
	h7.07V61.22L86.8,61.22z M108.18,61.22L108.18,61.22h-5.61l-1.02-4.76h-4.8l-1.02,4.76h-5.28l6.22-29.47h5.24L108.18,61.22
	L108.18,61.22z M100.75,51.87L100.75,51.87l-1.54-9.35l-1.67,9.35H100.75L100.75,51.87z M126.32,36.71L126.32,36.71v-4.96h-18.13
	v4.96h6.42v24.51h5.29V36.71H126.32L126.32,36.71z M145.1,61.22L145.1,61.22h-14.96V31.75h14.96v4.67h-9.72v7.52h7.68v4.76h-7.68
	v7.56h9.72V61.22L145.1,61.22z M167.7,31.75L167.7,31.75l-3.78,29.47h-3.54l-2.44-12.44l-2.52,12.44h-3.66l-3.62-29.47h5.37
	l1.34,16.18l3.09-11.22l3.05,11.22l1.38-16.18H167.7L167.7,31.75z M187.09,61.22L187.09,61.22h-5.61l-1.02-4.76h-4.8l-1.02,4.76
	h-5.29l6.22-29.47h5.24L187.09,61.22L187.09,61.22z M179.65,51.87L179.65,51.87l-1.55-9.35l-1.67,9.35H179.65L179.65,51.87z
	 M206.5,31.75L206.5,31.75l-7.07,17.72v11.75h-5.28V49.48l-7.03-17.72h6.22l3.58,10.77l3.54-10.77H206.5z"/>
<path class="st0" d="M165.35,150.21h20.67V88.21h-20.67V150.21L165.35,150.21z M114.35,67.54L114.35,67.54h16.38
	c1.18,0,2.15,0.97,2.15,2.15v80.53h3.76c1.18,0,2.15,0.97,2.15,2.15v16.38c0,1.18-0.97,2.15-2.15,2.15h-3.76v59.86
	c0,1.18-0.97,2.15-2.15,2.15h-16.38c-1.18,0-2.15-0.97-2.15-2.15v-59.86H89.39H78.92h-5.91c-1.18,0-2.15-0.97-2.15-2.15V69.68
	c0-1.18,0.97-2.15,2.15-2.15h16.38c1.18,0,2.15,0.97,2.15,2.15v80.53h20.67V69.68C112.21,68.5,113.17,67.54,114.35,67.54
	L114.35,67.54z M146.83,67.54L146.83,67.54h16.38h24.96h16.38l0.06,0l0.05,0l0.05,0l0.05,0l0.05,0.01l0.05,0.01l0.05,0.01l0.05,0.01
	l0.05,0.01l0.05,0.01l0.05,0.01l0.05,0.01l0.05,0.02l0.05,0.02l0.05,0.02l0.05,0.02l0.05,0.02l0.05,0.02l0.05,0.02l0.05,0.02
	l0.05,0.03l0.04,0.03v0l0.04,0.03v0l0.04,0.03l0.04,0.03l0.04,0.03l0.04,0.03l0.04,0.03l0.04,0.03l0.04,0.03l0.04,0.04l0.04,0.04
	l0.04,0.04l0.04,0.04v0l0.03,0.04v0l0.03,0.04l0.03,0.04l0.03,0.04l0.03,0.04v0l0.03,0.04l0.03,0.04l0.03,0.04l0.03,0.04l0.03,0.05
	v0l0.02,0.05v0l0.02,0.05l0.02,0.05l0.02,0.05v0l0.02,0.05l0.02,0.05l0.02,0.05v0l0.02,0.05l0.01,0.05l0.01,0.05l0.01,0.05
	l0.01,0.05v0l0.01,0.05v0l0.01,0.05v0l0.01,0.05l0.01,0.05v0l0,0.05v0l0,0.05v0l0,0.05l0,0.06v0v16.38v64.15h3.76
	c1.18,0,2.15,0.97,2.15,2.15v16.38c0,1.18-0.97,2.15-2.15,2.15h-3.76v2.15v7.98v32.93v16.81v0.43c0,0.94-0.77,1.72-1.72,1.72h-0.43
	h-16.38h-24.96h-16.38h-0.43c-0.94,0-1.72-0.77-1.72-1.72v-0.43v-16.81V193.7c0-1.18,0.97-2.15,2.15-2.15h16.38
	c1.18,0,2.15,0.97,2.15,2.15v18.52h20.67v-31.21v-7.98v-2.15h-22.81h-10.47h-5.91c-1.18,0-2.15-0.97-2.15-2.15v-16.38v-66.3V69.68
	C144.69,68.5,145.65,67.54,146.83,67.54z"/>
<path class="st0" d="M206.69,251.95h-2.81l-2.39-4.98v4.98h-2.26v-12.58h3.49c1.16,0,2.07,0.33,2.72,0.98
	c0.66,0.65,0.99,1.58,0.99,2.77c0,1.04-0.23,1.84-0.69,2.39c-0.46,0.55-1.06,0.93-1.81,1.14L206.69,251.95L206.69,251.95z
	 M204.14,243.44L204.14,243.44c0-0.8-0.16-1.34-0.47-1.63c-0.31-0.29-0.78-0.43-1.41-0.43h-0.78v4.16h1.04
	c0.51,0,0.91-0.2,1.19-0.59C204,244.56,204.14,244.06,204.14,243.44L204.14,243.44z M197.7,248.11L197.7,248.11
	c0,1.27-0.31,2.26-0.94,2.96c-0.62,0.7-1.52,1.05-2.67,1.05c-1.2,0-2.11-0.36-2.72-1.09c-0.61-0.73-0.92-1.7-0.92-2.91v-4.89
	c0-1.23,0.31-2.2,0.92-2.93c0.61-0.73,1.52-1.09,2.72-1.09c1.16,0,2.05,0.35,2.67,1.05c0.62,0.7,0.94,1.69,0.94,2.98V248.11
	L197.7,248.11z M192.58,248.44L192.58,248.44c0,0.61,0.14,1.06,0.43,1.34c0.29,0.28,0.65,0.42,1.08,0.42c0.42,0,0.77-0.15,1.06-0.44
	c0.29-0.3,0.43-0.74,0.43-1.33v-5.57c0-0.59-0.14-1.03-0.43-1.33c-0.29-0.3-0.64-0.44-1.06-0.44c-0.43,0-0.79,0.14-1.08,0.43
	c-0.29,0.29-0.43,0.73-0.43,1.34V248.44L192.58,248.44z M189.27,241.48L189.27,241.48h-2.74v10.46h-2.26v-10.46h-2.74v-2.12h7.74
	V241.48L189.27,241.48z M180.5,251.95L180.5,251.95h-2.39l-0.43-2.03h-2.05l-0.43,2.03h-2.26l2.65-12.58h2.24L180.5,251.95
	L180.5,251.95z M177.33,247.95L177.33,247.95l-0.66-3.99l-0.71,3.99H177.33L177.33,247.95z M171.98,251.95L171.98,251.95h-2.81
	l-2.39-4.98v4.98h-2.26v-12.58h3.49c1.16,0,2.07,0.33,2.72,0.98c0.66,0.65,0.99,1.58,0.99,2.77c0,1.04-0.23,1.84-0.69,2.39
	c-0.46,0.55-1.06,0.93-1.81,1.14L171.98,251.95L171.98,251.95z M169.43,243.44L169.43,243.44c0-0.8-0.16-1.34-0.47-1.63
	c-0.31-0.29-0.78-0.43-1.41-0.43h-0.78v4.16h1.04c0.51,0,0.91-0.2,1.19-0.59C169.29,244.56,169.43,244.06,169.43,243.44
	L169.43,243.44z M162.58,251.95L162.58,251.95h-6.39v-12.58h6.39v2h-4.15v3.21h3.28v2.03h-3.28v3.23h4.15V251.95L162.58,251.95z
	 M154.11,251.95L154.11,251.95h-6.59v-12.58h2.22v10.46h4.37V251.95L154.11,251.95z M145.23,251.95L145.23,251.95h-6.39v-12.58h6.39
	v2h-4.15v3.21h3.28v2.03h-3.28v3.23h4.15V251.95L145.23,251.95z M131.99,248.37L131.99,248.37c0,0.58,0.12,1.01,0.36,1.28
	c0.24,0.28,0.58,0.42,1.01,0.42c0.32,0,0.61-0.1,0.86-0.3c0.25-0.2,0.39-0.53,0.43-0.99h2.17c-0.22,2.22-1.37,3.33-3.45,3.33
	c-1.15,0-2.02-0.3-2.61-0.91c-0.6-0.61-0.89-1.53-0.89-2.77v-5.57c0-1.24,0.3-2.16,0.89-2.77c0.6-0.61,1.47-0.91,2.61-0.91
	c2.08,0,3.23,1.11,3.45,3.33h-2.17c-0.03-0.45-0.18-0.78-0.43-0.98c-0.25-0.2-0.53-0.3-0.86-0.3c-0.43,0-0.76,0.14-1.01,0.42
	c-0.24,0.28-0.36,0.71-0.36,1.28V248.37L131.99,248.37z M123.31,248.37L123.31,248.37c0,0.58,0.12,1.01,0.36,1.28
	c0.24,0.28,0.58,0.42,1.01,0.42c0.32,0,0.61-0.1,0.86-0.3c0.25-0.2,0.39-0.53,0.43-0.99h2.17c-0.22,2.22-1.37,3.33-3.45,3.33
	c-1.15,0-2.02-0.3-2.61-0.91c-0.6-0.61-0.89-1.53-0.89-2.77v-5.57c0-1.24,0.3-2.16,0.89-2.77c0.6-0.61,1.47-0.91,2.61-0.91
	c2.08,0,3.23,1.11,3.45,3.33h-2.17c-0.03-0.45-0.18-0.78-0.43-0.98c-0.25-0.2-0.53-0.3-0.86-0.3c-0.43,0-0.76,0.14-1.01,0.42
	c-0.24,0.28-0.36,0.71-0.36,1.28V248.37L123.31,248.37z M119.77,251.95L119.77,251.95h-2.39l-0.43-2.03h-2.05l-0.43,2.03h-2.26
	l2.65-12.58h2.24L119.77,251.95L119.77,251.95z M116.6,247.95L116.6,247.95l-0.66-3.99l-0.71,3.99H116.6z"/>
</svg>
