<svg width="500" height="257" viewBox="0 0 500 257" fill="none" xmlns="http://www.w3.org/2000/svg">
<rect x="-3.05176e-05" y="77" width="500" height="180" rx="10" fill="white"/>
<rect x="-3.05176e-05" y="77" width="500" height="180" rx="10" fill="#004A5F" fill-opacity="0.2"/>
<rect x="2.99997" y="80.4615" width="494" height="173.077" rx="9" fill="#004A5F" fill-opacity="0.2"/>
<rect x="5.99997" y="83.9231" width="488" height="166.154" rx="8" fill="#004A5F" fill-opacity="0.2"/>
<rect x="8.99997" y="87.3846" width="482" height="159.231" rx="8" fill="white"/>
<rect x="253" y="42" width="35" height="5" transform="rotate(90 253 42)" fill="white"/>
<rect x="253" y="42" width="35" height="5" transform="rotate(90 253 42)" fill="#004A5F" fill-opacity="0.2"/>
<circle cx="250" cy="25" r="25" transform="rotate(90 250 25)" fill="white"/>
<circle cx="250" cy="25" r="25" transform="rotate(90 250 25)" fill="#004A5F" fill-opacity="0.2"/>
<circle cx="250.5" cy="24.5" r="17.5" transform="rotate(90 250.5 24.5)" fill="#004A5F"/>
</svg>
